<?xml version="1.0" standalone="no"?>
<!DOCTYPE svg PUBLIC "-//W3C//DTD SVG 1.1//EN" "http://www.w3.org/Graphics/SVG/1.1/DTD/svg11.dtd" >
<svg xmlns="http://www.w3.org/2000/svg" xmlns:xlink="http://www.w3.org/1999/xlink" version="1.1">
<metadata>
Created by FontForge 20170731 at Sun Dec  7 17:41:38 2014
 By Aleksey,,,
(c)2014 Steve Gardner
</metadata>
<defs>
<font id="LarkeNeue-Regular" horiz-adv-x="1255" >
  <font-face 
    font-family="Larke Neue"
    font-weight="400"
    font-stretch="normal"
    units-per-em="2048"
    panose-1="0 0 5 4 0 0 0 0 0 4"
    ascent="1565"
    descent="-483"
    x-height="1009"
    cap-height="1418"
    bbox="-183 -680 2566 1959"
    underline-thickness="109"
    underline-position="-383"
    unicode-range="U+0020-FB04"
  />
<missing-glyph horiz-adv-x="1306" 
d="M140 -360h1026v1804h-1026v-1804zM257 -248v1577h795v-1577h-795z" />
    <glyph glyph-name="ff" unicode="ff" horiz-adv-x="1268" 
d="M1121 1009v-134h-184v-875h-160v875h-464v-875h-160v875h-133v134h133v175q0 121 70 191t188 70q112 0 213 -80l-79 -98q-55 51 -115 51q-54 0 -86 -32q-31 -32 -31 -86v-191h464v175q0 121 70 191t188 70q112 0 213 -80l-79 -98q-55 51 -115 51q-54 0 -86 -32
q-31 -32 -31 -86v-191h184z" />
    <glyph glyph-name="fi" unicode="fi" horiz-adv-x="1117" 
d="M857 1376q-50 0 -85 -35q-34 -34 -35 -83q1 -50 35 -84q35 -35 85 -35q48 0 84 34t36 85q-1 48 -35 82q-37 36 -85 36zM313 875v-875h-160v875h-133v134h133v175q0 121 70 191t188 70q112 0 213 -80l-79 -98q-55 51 -115 51q-54 0 -86 -32q-31 -32 -31 -86v-191h624
v-1009h-160v875h-464z" />
    <glyph glyph-name="fl" unicode="fl" horiz-adv-x="1023" 
d="M411 1445q112 0 213 -80l-79 -98q-55 51 -115 51q-54 0 -86 -32q-31 -32 -31 -86v-191h184v-134h-184v-875h-160v875h-133v134h133v175q0 121 70 191t188 70zM777 1418h159v-1418h-159v1418z" />
    <glyph glyph-name="ffi" unicode="ffi" horiz-adv-x="1768" 
d="M1481 1376q-50 0 -85 -35q-34 -34 -35 -83q1 -50 35 -84q35 -35 85 -35q48 0 84 34t36 85q-1 48 -35 82q-37 36 -85 36zM153 1009v175q0 121 70 191t188 70q112 0 213 -80l-79 -98q-55 51 -115 51q-54 0 -86 -32q-31 -32 -31 -86v-191h464v175q0 121 70 191t188 70
q112 0 213 -80l-79 -98q-55 51 -115 51q-54 0 -86 -32q-31 -32 -31 -86v-191h624v-1009h-160v875h-464v-875h-160v875h-464v-875h-160v875h-133v134h133z" />
    <glyph glyph-name="ffl" unicode="ffl" horiz-adv-x="1647" 
d="M1121 1009v-134h-184v-875h-160v875h-464v-875h-160v875h-133v134h133v175q0 121 70 191t188 70q112 0 213 -80l-79 -98q-55 51 -115 51q-54 0 -86 -32q-31 -32 -31 -86v-191h464v175q0 121 70 191t188 70q112 0 213 -80l-79 -98q-55 51 -115 51q-54 0 -86 -32
q-31 -32 -31 -86v-191h184zM1401 1418h159v-1418h-159v1418z" />
    <glyph glyph-name="fj" unicode="fj" horiz-adv-x="1124" 
d="M884 1376q-50 0 -85 -35q-34 -34 -35 -83q1 -50 35 -84q35 -35 85 -35q48 0 84 34t36 85q-1 48 -35 82q-37 36 -85 36zM313 875v-875h-160v875h-133v134h133v175q0 121 70 191t188 70q112 0 213 -80l-79 -98q-55 51 -115 51q-54 0 -86 -32q-31 -32 -31 -86v-191h650
v-1184q0 -121 -70 -191t-188 -70q-111 0 -213 80l80 95q54 -48 114 -48q54 0 86 32t32 83v1069h-491z" />
    <glyph glyph-name=".notdef" horiz-adv-x="1306" 
d="M140 -360h1026v1804h-1026v-1804zM257 -248v1577h795v-1577h-795z" />
    <glyph glyph-name=".null" horiz-adv-x="120" 
 />
    <glyph glyph-name="nonmarkingreturn" horiz-adv-x="120" 
 />
    <glyph glyph-name="space" unicode=" " horiz-adv-x="600" 
 />
    <glyph glyph-name="exclam" unicode="!" horiz-adv-x="466" 
d="M126 1418h215l-50 -1019h-115zM233 242q-56 0 -94 -38t-39 -93q1 -54 39 -92q38 -39 94 -39q54 0 93 38q40 38 40 93q-1 54 -39 92q-40 39 -94 39z" />
    <glyph glyph-name="quotedbl" unicode="&#x22;" horiz-adv-x="726" 
d="M100 1418h172l-24 -555h-124zM454 1418h172l-24 -555h-124z" />
    <glyph glyph-name="numbersign" unicode="#" horiz-adv-x="1221" 
d="M538 875l-89 -334h234l89 334h-234zM413 408l-109 -408h-143l109 408h-240l36 133h240l89 334h-240l36 133h240l110 410h143l-110 -410h234l110 410h143l-110 -410h240l-36 -133h-240l-89 -334h240l-36 -133h-240l-109 -408h-143l109 408h-234z" />
    <glyph glyph-name="dollar" unicode="$" horiz-adv-x="1237" 
d="M548 1699h144v-269q231 -16 416 -169l-109 -135q-162 144 -362 144q-147 0 -220 -64q-67 -57 -67 -160q0 -95 83 -147q64 -38 249 -92q208 -62 298 -123q157 -105 157 -296q0 -183 -147 -295q-119 -90 -298 -106v-268h-144v268q-239 26 -448 195l109 135
q198 -170 432 -170q147 0 230 64q87 68 87 176t-87 167q-63 44 -246 96q-212 60 -295 115q-162 105 -162 281q0 170 127 278q100 84 253 103v272z" />
    <glyph glyph-name="percent" unicode="%" horiz-adv-x="1730" 
d="M1262 1418h117l-916 -1418h-117zM455 1443q73 0 138.5 -28t114 -76t77.5 -113t29 -138q0 -75 -29 -140.5t-77.5 -114t-114 -76.5t-138.5 -28q-75 0 -139.5 28t-112.5 76.5t-75.5 114t-27.5 140.5q0 73 27.5 138t75.5 113t112.5 76t139.5 28zM455 1332q-51 0 -95.5 -19.5
t-77.5 -52.5t-52 -77.5t-19 -94.5q0 -51 19 -96t52 -78t77.5 -52t95.5 -19q50 0 94.5 19t77.5 52t52.5 78t19.5 96q0 50 -19.5 94.5t-52.5 77.5t-77.5 52.5t-94.5 19.5zM1271 689q73 0 138.5 -28t114 -76t77.5 -113t29 -138q0 -75 -29 -140.5t-77.5 -114t-114 -76.5
t-138.5 -28q-75 0 -139.5 28t-112.5 76.5t-75.5 114t-27.5 140.5q0 73 27.5 138t75.5 113t112.5 76t139.5 28zM1271 578q-51 0 -95.5 -19.5t-77.5 -52.5t-52 -77.5t-19 -94.5q0 -51 19 -96t52 -78t77.5 -52t95.5 -19q50 0 94.5 19t77.5 52t52.5 78t19.5 96q0 50 -19.5 94.5
t-52.5 77.5t-77.5 52.5t-94.5 19.5z" />
    <glyph glyph-name="ampersand" unicode="&#x26;" horiz-adv-x="1282" 
d="M631 1437q154 0 239 -80t85 -202q0 -161 -159 -272q-64 -45 -219 -131q112 -192 310 -390q23 35 50 153.5t30 178.5h215v-115h-83q-29 -179 -106 -329q74 -77 259 -250h-214q-48 42 -141 134q-147 -147 -368 -147q-189 0 -309 102.5t-120 278.5q0 128 70 230
q55 84 209 189q-93 173 -93 298q0 166 99 259t246 93zM644 1319q-93 0 -149 -61t-56 -167q0 -108 80 -240q146 74 204 125q84 75 84 179q0 76 -44 120q-45 44 -119 44zM446 675q-186 -127 -186 -307q0 -116 73 -184q74 -69 190 -69q169 0 275 122q-192 201 -352 438z" />
    <glyph glyph-name="quotesingle" unicode="'" horiz-adv-x="372" 
d="M100 1418h172l-24 -555h-124z" />
    <glyph glyph-name="parenleft" unicode="(" horiz-adv-x="799" 
d="M706 1438l63 -112q-223 -107 -359 -325t-136 -481.5t136 -483t359 -326.5l-63 -109q-264 99 -435 350.5t-171 567.5t171 567.5t435 351.5z" />
    <glyph glyph-name="parenright" unicode=")" horiz-adv-x="799" 
d="M93 -400l-63 112q223 107 359 325t136 481.5t-136 483t-359 326.5l63 109q264 -99 435 -350.5t171 -567.5t-171 -567.5t-435 -351.5z" />
    <glyph glyph-name="asterisk" unicode="*" horiz-adv-x="1005" 
d="M414 1418h174l-36 -329l264 200l89 -153l-307 -129l307 -133l-89 -149l-264 196l36 -328h-174l39 328l-267 -196l-86 149l304 133l-304 129l86 153l267 -200z" />
    <glyph glyph-name="plus" unicode="+" horiz-adv-x="1200" 
d="M521 775v434h158l1 -434h420v-133h-420l-1 -433h-158v433h-421v133h421z" />
    <glyph glyph-name="comma" unicode="," horiz-adv-x="477" 
d="M234 241q65 0 104 -45.5t39 -118.5q0 -207 -197 -391l-75 65q131 130 148 230q-6 -1 -21 -1q-55 0 -94 37q-38 38 -38 94q0 53 39 91.5t95 38.5z" />
    <glyph glyph-name="hyphen" unicode="-" horiz-adv-x="677" 
d="M100 642v-133h477v133h-477z" />
    <glyph glyph-name="period" unicode="." horiz-adv-x="466" 
d="M233 242q-56 0 -94 -38t-39 -93q1 -54 39 -92q38 -39 94 -39q54 0 93 38q40 38 40 93q-1 54 -39 92q-40 39 -94 39z" />
    <glyph glyph-name="slash" unicode="/" horiz-adv-x="978" 
d="M805 1829h143l-775 -2240h-143z" />
    <glyph glyph-name="zero" unicode="0" horiz-adv-x="1299" 
d="M1043 1232q156 -206 156 -523.5t-155.5 -525.5t-393.5 -208t-394 208t-156 525.5t156 525t394 207.5t393 -209zM380 1124q-105 -162 -105 -419t103 -419t271.5 -162t273 162t104.5 419t-104.5 420.5t-273 163.5t-269.5 -165z" />
    <glyph glyph-name="one" unicode="1" horiz-adv-x="713" 
d="M433 1418h140v-1418h-165v1247l-245 -127l-63 120z" />
    <glyph glyph-name="two" unicode="2" horiz-adv-x="1079" 
d="M519 1441q206 0 340 -127q120 -114 120 -292q0 -136 -89 -273q-41 -66 -222 -257l-327 -346h638v-146h-879v130l429 454q152 159 206 238q67 99 67 200q0 115 -80 194q-76 76 -203 76q-181 0 -321 -139l-95 123q181 165 416 165z" />
    <glyph glyph-name="three" unicode="3" horiz-adv-x="1158" 
d="M538 1441q213 0 342 -94q134 -96 134 -264q0 -240 -261 -324q146 -50 224 -149q81 -107 81 -243q0 -199 -148 -297q-147 -95 -378 -95q-278 0 -452 122l100 121q146 -93 342 -93q167 0 267 68q99 69 99 199t-102 211.5t-248 81.5h-162v146h162q124 0 215 62q87 59 87 171
t-81 168q-82 56 -236 56q-158 0 -287 -59l-97 118q174 94 399 94z" />
    <glyph glyph-name="four" unicode="4" horiz-adv-x="1229" 
d="M811 1418h143v-911h175v-140h-175v-367h-165v367h-689v114zM789 1161l-499 -654h499v654z" />
    <glyph glyph-name="five" unicode="5" horiz-adv-x="1197" 
d="M224 1418h797v-137h-645l-51 -518q131 146 321.5 146t320.5 -133.5t130 -333.5q0 -203 -142 -335t-366 -132q-292 0 -489 229l105 124q154 -203 384 -203q147 0 241 88q96 90 96 229q0 141 -88 229q-88 89 -224 89q-206 0 -285 -178l-175 70z" />
    <glyph glyph-name="six" unicode="6" horiz-adv-x="1235" 
d="M662 1441q168 0 308 -95q41 -28 95 -82l-99 -131q-70 70 -104 96q-83 60 -200 60q-150 0 -251 -117q-134 -156 -140 -489q148 225 384 225q190 0 334 -127q146 -130 146 -343q0 -209 -140 -340q-133 -123 -346 -123q-238 0 -381 158q-168 188 -168 559q0 375 171 572
q156 177 391 177zM404 664q-95 -93 -95 -223t95.5 -223.5t232 -93.5t231.5 93.5t95 223.5t-95 224t-231.5 94t-232.5 -95z" />
    <glyph glyph-name="seven" unicode="7" horiz-adv-x="1168" 
d="M100 1418h968v-111l-619 -1307h-184l622 1278h-787v140z" />
    <glyph glyph-name="eight" unicode="8" horiz-adv-x="1219" 
d="M941 1349q131 -92 131 -266q0 -238 -248 -324q137 -48 216 -149.5t79 -244.5q0 -190 -142.5 -290t-368 -100t-367 100t-141.5 290q0 143 79.5 244.5t212.5 149.5q-247 86 -247 324q0 174 130 266t333 92t333 -92zM395 1232q-79 -57 -79 -168.5t82.5 -171.5t209.5 -60
t209.5 60t82.5 171.5t-81 168.5t-211 57t-213 -57zM367 603q-95 -79 -95 -212q0 -131 95 -199t241 -68t241.5 68t95.5 199q0 133 -97 214t-240 81t-241 -83z" />
    <glyph glyph-name="nine" unicode="9" horiz-adv-x="1235" 
d="M586 1441q238 0 380 -161q169 -188 169 -559q0 -375 -172 -572q-152 -174 -390 -174q-172 0 -308 92q-41 28 -99 85l102 127q70 -69 105 -95q82 -60 200 -60q149 0 251 117q133 156 139 489q-148 -225 -384 -225q-190 0 -333 127q-146 130 -146 343q0 209 139 339
q137 127 347 127zM365 1193q-95 -93 -95 -223t95.5 -223.5t232 -93.5t231.5 93.5t95 223.5t-95 224t-231.5 94t-232.5 -95z" />
    <glyph glyph-name="colon" unicode=":" horiz-adv-x="466" 
d="M233 1029q-56 0 -94 -38t-39 -93q1 -54 39 -92q38 -39 94 -39q54 0 93 38q40 38 40 93q-1 54 -39 92q-40 39 -94 39zM233 242q-56 0 -94 -38t-39 -93q1 -54 39 -92q38 -39 94 -39q54 0 93 38q40 38 40 93q-1 54 -39 92q-40 39 -94 39z" />
    <glyph glyph-name="semicolon" unicode=";" horiz-adv-x="477" 
d="M234 1029q-56 0 -94 -38t-39 -93q1 -54 39 -92q38 -39 94 -39q54 0 93 38q40 38 40 93q-1 54 -39 92q-40 39 -94 39zM234 241q65 0 104 -45.5t39 -118.5q0 -207 -197 -391l-75 65q131 130 148 230q-6 -1 -21 -1q-55 0 -94 37q-38 38 -38 94q0 53 39 91.5t95 38.5z" />
    <glyph glyph-name="less" unicode="&#x3c;" horiz-adv-x="1200" 
d="M1100 1184v-143l-834 -332l834 -334v-141l-1000 420v110z" />
    <glyph glyph-name="equal" unicode="=" horiz-adv-x="1200" 
d="M100 1008v-133h1000v133h-1000zM100 541v-133h1000v133h-1000z" />
    <glyph glyph-name="greater" unicode="&#x3e;" horiz-adv-x="1200" 
d="M100 234v143l834 332l-834 334v141l1000 -420v-110z" />
    <glyph glyph-name="question" unicode="?" horiz-adv-x="1006" 
d="M408 1440q220 0 359 -127q139 -128 139 -336q0 -193 -134 -309.5t-351 -141.5l-13 -128h-140l-12 246l158 19q324 59 324 314q0 137 -92 225.5t-238 88.5q-143 0 -242 -68l-66 137q158 80 308 80zM338 242q-56 0 -94 -38t-39 -93q1 -54 39 -92q38 -39 94 -39q54 0 93 38
q40 38 40 93q-1 54 -39 92q-40 39 -94 39z" />
    <glyph glyph-name="at" unicode="@" horiz-adv-x="2066" 
d="M1698 1146q-269 261 -657 261t-664.5 -263.5t-276.5 -639.5t275 -643.5t662 -267.5q333 0 590 204l-58 54q-230 -186 -532 -186q-349 0 -597.5 246.5t-248.5 592.5t249 588t602 242q349 0 591.5 -240t242.5 -586q0 -186 -64.5 -283t-148.5 -97q-60 0 -102.5 48.5
t-42.5 128.5v702h-163v-135q-44 52 -145.5 106t-228.5 54q-219 0 -360.5 -149t-141.5 -378.5t141.5 -379.5t360.5 -150q127 0 228.5 53.5t145.5 104.5q33 -69 97 -109t140 -40q147 -3 260.5 134.5t113.5 389.5q0 376 -268 638zM748 790q101 110 261.5 110t261.5 -110.5
t101 -285t-101 -287t-261.5 -112.5t-261 112.5t-100.5 287t100 285.5z" />
    <glyph glyph-name="A" unicode="A" horiz-adv-x="1402" 
d="M624 1418h156l592 -1418h-178l-153 372h-680l-150 -372h-181zM701 1208l-283 -696h569z" />
    <glyph glyph-name="B" unicode="B" horiz-adv-x="1315" 
d="M802 1418q149 0 255.5 -105t106.5 -254q0 -102 -50.5 -188t-136.5 -130q108 -45 173 -140t65 -216q0 -159 -111 -272t-270 -113h-694v1418h662zM751 1281h-445v-477h445q99 0 169 70t70 168.5t-70 168.5t-169 70zM306 668v-531h474q108 0 186 77.5t78 189.5
q0 108 -78 186t-186 78h-474z" />
    <glyph glyph-name="C" unicode="C" horiz-adv-x="1472" 
d="M802 1444q388 0 590 -321l-159 -72q-145 228 -431 228q-234 0 -380 -163q-143 -159 -143 -409q0 -253 145 -412t378 -159q286 0 431 228l159 -72q-198 -318 -590 -318q-304 0 -503 207.5t-199 526t199 527.5t503 209z" />
    <glyph glyph-name="D" unicode="D" horiz-adv-x="1455" 
d="M140 1418h506q305 0 507 -192.5t202 -516.5t-202 -516.5t-507 -192.5h-506v1418zM306 1281v-1144h302q245 0 408.5 157t163.5 415t-163.5 415t-408.5 157h-302z" />
    <glyph glyph-name="E" unicode="E" horiz-adv-x="1169" 
d="M140 1418h929v-137h-763v-477h699v-136h-699v-531h763v-137h-929v1418z" />
    <glyph glyph-name="F" unicode="F" horiz-adv-x="1149" 
d="M140 1418h929v-137h-763v-477h635v-136h-635v-668h-166v1418z" />
    <glyph glyph-name="G" unicode="G" horiz-adv-x="1567" 
d="M803 1442q191 0 340 -88t233 -240l-159 -71q-132 237 -414 237q-234 0 -379 -160t-145 -413.5t145 -412t379 -158.5q217 0 348 138.5t148 364.5h-532v139h697q3 -37 3 -68q0 -324 -181 -529q-182 -206 -483 -206q-304 0 -503.5 208.5t-199.5 526.5t199.5 525t503.5 207z
" />
    <glyph glyph-name="H" unicode="H" horiz-adv-x="1403" 
d="M140 1418h166v-614h791v614h166v-1418h-166v668h-791v-668h-166v1418z" />
    <glyph glyph-name="I" unicode="I" horiz-adv-x="446" 
d="M140 1418h166v-1418h-166v1418z" />
    <glyph glyph-name="J" unicode="J" horiz-adv-x="903" 
d="M607 1418h166v-1027q0 -174 -104.5 -287.5t-297.5 -113.5q-210 0 -321 149l104 125q87 -125 217 -125q114 0 175 76q61 77 61 197v1006z" />
    <glyph glyph-name="K" unicode="K" horiz-adv-x="1185" 
d="M140 1418h166v-668l611 668h226l-608 -645l620 -773h-209l-516 658l-124 -133v-525h-166v1418z" />
    <glyph glyph-name="L" unicode="L" horiz-adv-x="1054" 
d="M140 1418h166v-1281h668v-137h-834v1418z" />
    <glyph glyph-name="M" unicode="M" horiz-adv-x="1747" 
d="M140 1418h217l518 -1176l515 1176h217v-1418h-166v1154l-505 -1154h-124l-506 1154v-1154h-166v1418z" />
    <glyph glyph-name="N" unicode="N" horiz-adv-x="1432" 
d="M140 1418h166l820 -1154v1154h166v-1418h-166l-820 1157v-1157h-166v1418z" />
    <glyph glyph-name="O" unicode="O" horiz-adv-x="1608" 
d="M1310 1234q198 -208 198 -526t-199.5 -525.5t-504 -207.5t-504.5 207.5t-200 525.5t200 527.5t504.5 209.5t505.5 -211zM279 708q0 -253 146 -412q145 -159 379 -159t379.5 159t145.5 412t-145 412t-380 159q-239 0 -382 -159t-143 -412z" />
    <glyph glyph-name="P" unicode="P" horiz-adv-x="1201" 
d="M140 1418h557q172 0 288 -108t116 -292.5t-116 -292.5t-288 -108h-391v-617h-166v1418zM306 1281v-527h356q114 0 189 71.5t75 192t-75 192t-189 71.5h-356z" />
    <glyph glyph-name="Q" unicode="Q" horiz-adv-x="1594" 
d="M1298 1236q196 -205 196 -520q0 -353 -280 -578h328v-138h-745q-302 -10 -499.5 195.5t-197.5 520.5t197.5 522t499.5 207t501 -209zM277 716q0 -250 144 -408q145 -158 376 -158t375.5 158t144.5 408.5t-144 408t-376 157.5q-236 0 -378 -157.5t-142 -408.5z" />
    <glyph glyph-name="R" unicode="R" horiz-adv-x="1201" 
d="M306 1281v-527h356q114 0 189 71.5t75 192t-75 192t-189 71.5h-356zM947 0l-375 617h-266v-617h-166v1418h557q172 0 288 -108t116 -293q0 -182 -116 -286q-94 -86 -225 -105l391 -626h-204z" />
    <glyph glyph-name="S" unicode="S" horiz-adv-x="1252" 
d="M642 1445q256 3 480 -179l-111 -133q-165 155 -366 155q-149 0 -223 -66q-69 -58 -69 -162q0 -97 85 -149q74 -46 253 -98q206 -57 298 -122q163 -118 163 -306t-150 -303q-143 -107 -360 -107q-302 0 -542 202l111 133q197 -177 437 -177q153 0 234 61q87 69 87 182
q-1 107 -90 168q-70 47 -246 98q-216 61 -299 116q-165 114 -165 294q0 174 129 283q130 110 344 110z" />
    <glyph glyph-name="T" unicode="T" horiz-adv-x="1257" 
d="M80 1418h1097v-137h-467v-1281h-165v1281h-465v137z" />
    <glyph glyph-name="U" unicode="U" horiz-adv-x="1398" 
d="M130 1418h165v-893q0 -181 109.5 -292t291 -111t292.5 111t111 292v893h169v-886q0 -261 -154 -409t-418 -148t-415 148t-151 409v886z" />
    <glyph glyph-name="V" unicode="V" horiz-adv-x="1402" 
d="M30 1418h181l490 -1205l493 1205h178l-592 -1418h-155z" />
    <glyph glyph-name="W" unicode="W" horiz-adv-x="2047" 
d="M30 1418h174l369 -1202l356 1202h188l359 -1202l369 1202h172l-436 -1418h-194l-362 1227l-366 -1227h-194z" />
    <glyph glyph-name="X" unicode="X" horiz-adv-x="1379" 
d="M65 1418h210l416 -550l417 550h206l-524 -684l559 -734h-206l-452 598l-451 -598h-210l560 734z" />
    <glyph glyph-name="Y" unicode="Y" horiz-adv-x="1313" 
d="M30 1418h201l426 -639l426 639h200l-544 -788v-630h-165v630z" />
    <glyph glyph-name="Z" unicode="Z" horiz-adv-x="1306" 
d="M135 1418h1055v-118l-865 -1151h881v-149h-1106v121l861 1148h-826v149z" />
    <glyph glyph-name="bracketleft" unicode="[" horiz-adv-x="478" 
d="M140 -411h308v115h-171v2040h171v115h-308v-2270z" />
    <glyph glyph-name="backslash" unicode="\" horiz-adv-x="978" 
d="M173 1829l775 -2240h-143l-775 2240h143z" />
    <glyph glyph-name="bracketright" unicode="]" horiz-adv-x="478" 
d="M338 1859v-2270h-308v115h171v2040h-171v115h308z" />
    <glyph glyph-name="asciicircum" unicode="^" horiz-adv-x="789" 
d="M329 1418h131l299 -694h-153l-212 504l-211 -504h-153z" />
    <glyph glyph-name="underscore" unicode="_" horiz-adv-x="1700" 
d="M100 -91v-133h1500v133h-1500z" />
    <glyph glyph-name="grave" unicode="`" horiz-adv-x="625" 
d="M100 1418l173 75l252 -286h-144z" />
    <glyph glyph-name="a" unicode="a" 
d="M956 1009h159v-1009h-159v134q-153 -159 -366 -159t-351 149q-139 150 -139 379t138.5 380t351.5 151t366 -159v134zM364 792q-99 -111 -99 -289t99 -288t255 -110t254.5 110t98.5 288t-98.5 289.5t-254.5 111.5t-255 -112z" />
    <glyph glyph-name="b" unicode="b" 
d="M140 1418h159v-543q153 159 366 159t351 -151q139 -151 139 -380t-138.5 -378.5t-351.5 -149.5t-366 159v-134h-159v1418zM382 792q-99 -111 -99 -289t98.5 -288t254.5 -110t255 110t99 288t-99 289.5t-255 111.5t-254 -112z" />
    <glyph glyph-name="c" unicode="c" horiz-adv-x="1112" 
d="M100 503q0 226 143 378.5t363 152.5q284 0 426 -232l-140 -64q-92 166 -286 166q-153 0 -247 -111.5t-94 -289.5t94 -288t247 -110q194 0 286 166l140 -67q-143 -229 -426 -229q-220 0 -363 149.5t-143 378.5z" />
    <glyph glyph-name="d" unicode="d" 
d="M956 1418h159v-1418h-159v134q-153 -159 -366 -159t-351 149q-139 150 -139 379t138.5 380t351.5 151t366 -159v543zM364 792q-99 -111 -99 -289t99 -288t255 -110t254.5 110t98.5 288t-98.5 289.5t-254.5 111.5t-255 -112z" />
    <glyph glyph-name="e" unicode="e" horiz-adv-x="1193" 
d="M100 507q0 226 143 377t363 151q218 0 352 -148q135 -148 135 -380v-58h-827q3 -19 9 -51q29 -133 127.5 -212.5t235.5 -79.5q165 0 274 117l143 -66q-140 -182 -417 -182q-232 0 -385 151.5t-153 380.5zM374 809q-92 -95 -108 -248h681q-16 153 -108.5 248t-232.5 95
t-232 -95z" />
    <glyph glyph-name="f" unicode="f" horiz-adv-x="724" 
d="M451 1445q112 0 213 -80l-79 -98q-55 51 -115 51q-54 0 -86 -32q-31 -32 -31 -86v-191h184v-134h-184v-875h-160v875h-133v134h133v175q0 121 70 191t188 70z" />
    <glyph glyph-name="g" unicode="g" horiz-adv-x="1259" 
d="M594 1035q214 0 366 -159v134h159v-1022q0 -191 -137 -307t-367 -116q-255 0 -448 114l73 134q199 -105 379 -105q165 0 253 71q88 72 88 190v165q-152 -159 -366 -159t-354 151q-140 152 -140 381t140 378.5t354 149.5zM622 904q-159 0 -257.5 -111t-98.5 -286
q0 -179 100 -290t256 -111t254.5 111t98.5 289.5t-98.5 288t-254.5 109.5z" />
    <glyph glyph-name="h" unicode="h" horiz-adv-x="1172" 
d="M140 1418h160v-549q153 165 359 165q163 0 273 -108q110 -109 110 -293v-633h-160v624q0 124 -67 202t-188 78q-130 0 -228.5 -92.5t-98.5 -251.5v-560h-160v1418z" />
    <glyph glyph-name="i" unicode="i" horiz-adv-x="520" 
d="M180 1009h160v-1009h-160v1009zM260 1376q-50 0 -85 -35q-34 -34 -35 -83q1 -50 35 -84q35 -35 85 -35q48 0 84 34t36 85q-1 48 -35 82q-37 36 -85 36z" />
    <glyph glyph-name="j" unicode="j" horiz-adv-x="702" 
d="M362 1009h159v-1184q0 -121 -70 -191t-188 -70q-111 0 -213 80l80 95q54 -48 114 -48q54 0 86 32t32 83v1203zM442 1376q-50 0 -85 -35q-34 -34 -35 -83q1 -50 35 -84q35 -35 85 -35q48 0 84 34t36 85q-1 48 -35 82q-37 36 -85 36z" />
    <glyph glyph-name="k" unicode="k" horiz-adv-x="1035" 
d="M140 1418h159v-902l484 493h219l-458 -452l461 -557h-203l-363 452l-140 -140v-312h-159v1418z" />
    <glyph glyph-name="l" unicode="l" horiz-adv-x="439" 
d="M140 1418h159v-1418h-159v1418z" />
    <glyph glyph-name="m" unicode="m" horiz-adv-x="1807" 
d="M630 1034q213 0 321 -194q175 194 369 194q156 0 256.5 -106.5t100.5 -294.5v-633h-160v624q0 280 -225 280q-118 0 -210.5 -92.5t-92.5 -251.5v-560h-159v624q0 280 -226 280q-121 0 -213 -92.5t-92 -251.5v-560h-159v1009h159v-140q146 165 331 165z" />
    <glyph glyph-name="n" unicode="n" horiz-adv-x="1170" 
d="M657 1034q164 0 274 -108q109 -109 109 -293v-633h-159v624q0 124 -66.5 202t-187.5 78q-131 0 -229.5 -92.5t-98.5 -251.5v-560h-159v1009h159v-140q152 165 358 165z" />
    <glyph glyph-name="o" unicode="o" horiz-adv-x="1215" 
d="M972 882q143 -150 143 -379t-145 -378.5t-364.5 -149.5t-362.5 149.5t-143 378.5t143 380t362.5 151t366.5 -152zM361 792q-96 -111 -96 -289t94 -288t246.5 -110t248 110t95.5 288t-95.5 289.5t-248 111.5t-244.5 -112z" />
    <glyph glyph-name="p" unicode="p" 
d="M665 1034q213 0 351 -151q139 -151 139 -380t-138.5 -378.5t-351.5 -149.5t-366 159v-545h-159v1420h159v-134q153 159 366 159zM382 792q-99 -111 -99 -289t99 -288t254.5 -110t254.5 110t99 288t-99 289.5t-254.5 111.5t-254.5 -112z" />
    <glyph glyph-name="q" unicode="q" 
d="M590 1034q213 0 366 -159v134h159v-1420h-159v545q-153 -159 -366 -159t-351 149q-139 150 -139 379t138.5 380t351.5 151zM873 792q-99 112 -254.5 112t-254.5 -111.5t-99 -289.5t99 -288t254.5 -110t254.5 110t99 288t-99 289z" />
    <glyph glyph-name="r" unicode="r" horiz-adv-x="715" 
d="M649 1034h6v-181q-57 19 -127 19q-96 0 -162 -52q-67 -53 -67 -164v-656h-159v1009h159v-121q133 146 350 146z" />
    <glyph glyph-name="s" unicode="s" horiz-adv-x="1002" 
d="M511 1034q204 0 372 -140l-89 -114q-127 121 -283 121q-99 0 -156 -45q-48 -38 -48 -105q0 -64 61 -102q44 -25 184 -67q160 -47 226 -89q124 -79 124 -219q0 -134 -114 -220q-108 -79 -277 -79q-235 0 -411 159l93 114q140 -140 318 -140q108 0 169 45q63 48 63 121
q0 76 -63 114q-38 23 -182 67q-178 54 -226 83q-127 76 -127 210q0 130 99 207q105 79 267 79z" />
    <glyph glyph-name="t" unicode="t" horiz-adv-x="725" 
d="M214 1330h159v-321h185v-134h-185v-659q0 -51 32 -82.5t86 -31.5q60 0 114 48l80 -99q-99 -76 -213 -76q-118 0 -188 70t-70 191v639h-134v134h134v321z" />
    <glyph glyph-name="u" unicode="u" horiz-adv-x="1170" 
d="M130 1009h159v-624q0 -124 67 -202t187 -78q131 0 229.5 92.5t98.5 251.5v560h159v-1009h-159v140q-152 -165 -358 -165q-163 0 -273 108q-110 109 -110 293v633z" />
    <glyph glyph-name="v" unicode="v" horiz-adv-x="1047" 
d="M30 1009h172l322 -805l324 805h169l-407 -1009h-172z" />
    <glyph glyph-name="w" unicode="w" horiz-adv-x="1553" 
d="M30 1009h166l245 -799l258 799h156l257 -799l246 799h165l-312 -1009h-169l-264 824l-264 -824h-172z" />
    <glyph glyph-name="x" unicode="x" horiz-adv-x="1047" 
d="M55 1009h195l273 -363l274 363h194l-375 -487l401 -522h-195l-299 395l-299 -395h-194l401 522z" />
    <glyph glyph-name="y" unicode="y" horiz-adv-x="1171" 
d="M130 1009h159v-624q0 -127 65.5 -203.5t186.5 -76.5q130 0 230.5 92.5t100.5 251.5v560h159v-1022q0 -191 -136 -307q-137 -116 -353 -116q-232 0 -412 115l73 130q169 -102 341 -102q153 0 240 73q88 74 88 188v172q-147 -165 -357 -165q-162 0 -273.5 108t-111.5 293
v633z" />
    <glyph glyph-name="z" unicode="z" horiz-adv-x="1024" 
d="M129 1009h783v-115l-599 -760h611v-134h-824v112l598 763h-569v134z" />
    <glyph glyph-name="braceleft" unicode="{" horiz-adv-x="549" 
d="M518 1858v-138q-44 0 -85 -21q-82 -43 -82 -171v-548q0 -118 -59 -191q-34 -40 -93 -65q56 -23 93 -69q59 -69 59 -190v-544q0 -130 82 -174q42 -22 85 -22v-138q-79 0 -148 36q-66 35 -111.5 111t-45.5 187v591q0 133 -102 133h-82v156h82q102 0 102 132v595
q-1 216 157 294q74 36 148 36z" />
    <glyph glyph-name="bar" unicode="|" horiz-adv-x="418" 
d="M278 1829v-2240h-138v2240h138z" />
    <glyph glyph-name="braceright" unicode="}" horiz-adv-x="549" 
d="M30 -412v138q44 0 85 21q82 43 82 171v548q0 118 59 191q34 40 93 65q-56 23 -93 69q-59 69 -59 190v544q0 130 -82 174q-42 22 -85 22v138q79 0 148 -36q66 -35 111.5 -111t45.5 -187v-591q0 -133 102 -133h82v-156h-82q-102 0 -102 -132v-595q1 -216 -157 -294
q-74 -36 -148 -36z" />
    <glyph glyph-name="asciitilde" unicode="~" horiz-adv-x="1010" 
d="M345 1447q80 0 192 -94q84 -72 128 -72q38 0 76 38t75 96l94 -51q-51 -99 -111.5 -148.5t-134.5 -49.5t-189 96q-82 68 -130 68q-38 0 -77 -36t-75 -96l-93 53q50 99 110.5 147.5t134.5 48.5z" />
    <glyph glyph-name="exclamdown" unicode="&#xa1;" horiz-adv-x="466" 
d="M340 -409h-215l50 1019h115zM233 767q56 0 94 38t39 93q-1 54 -39 92q-38 39 -94 39q-54 0 -93 -38q-40 -38 -40 -93q1 -54 39 -92q40 -39 94 -39z" />
    <glyph glyph-name="cent" unicode="&#xa2;" horiz-adv-x="1111" 
d="M532 1309h153v-283q228 -35 346 -223l-140 -66q-92 165 -283 165q-152 0 -247.5 -109.5t-95.5 -287.5t95.5 -289.5t247.5 -111.5q191 0 283 165l140 -63q-121 -191 -346 -226v-279h-153v279q-191 26 -311.5 170.5t-120.5 354t120.5 354.5t311.5 170v280z" />
    <glyph glyph-name="sterling" unicode="&#xa3;" horiz-adv-x="1260" 
d="M764 1442q214 0 329 -153l-108 -127q-84 129 -221 129q-115 0 -177.5 -79t-62.5 -202v-249h367v-127h-367v-420q65 -9 168 -45q132 -46 199 -46q111 0 199 60l70 -132q-122 -76 -269 -76q-103 0 -249 50q-132 46 -201 46q-120 0 -224 -104l-117 96q103 119 257 149v422
h-168v127h168v273q0 178 106.5 293t300.5 115z" />
    <glyph glyph-name="currency" unicode="&#xa4;" horiz-adv-x="1002" 
d="M502 953q-101 0 -170.5 -72.5t-69.5 -171.5q0 -100 69.5 -169t170.5 -69q99 0 170 69t71 169q0 99 -71 171.5t-170 72.5zM292 1009q31 21 67 37q67 29 143 29q75 0 141 -29q36 -16 67 -38l97 98l94 -94l-99 -99q21 -30 36 -64q30 -67 30 -142q0 -78 -29 -146
q-15 -34 -35 -64l98 -98l-94 -94l-97 97q-32 -21 -68 -37q-66 -29 -141 -29q-76 0 -142 28q-37 16 -68 39l-98 -98l-94 94l100 100q-19 29 -32 62q-28 68 -28 146q0 75 27 141q14 34 34 64l-100 100l94 94z" />
    <glyph glyph-name="yen" unicode="&#xa5;" horiz-adv-x="1312" 
d="M30 1418h200l426 -639l426 639h200l-356 -519h239v-133h-334l-92 -137v-76h426v-137h-426v-416h-165v416h-429v137h429v76l-96 137h-333v133h241z" />
    <glyph glyph-name="brokenbar" unicode="&#xa6;" horiz-adv-x="418" 
d="M278 597v-597h-138v597h138zM278 1418v-597h-138v597h138z" />
    <glyph glyph-name="section" unicode="&#xa7;" horiz-adv-x="1001" 
d="M510 1443q203 0 372 -140l-92 -114q-127 120 -280 120q-102 0 -156 -44q-47 -38 -47 -105q0 -70 57 -105q44 -25 184 -67q165 -47 229 -89q124 -79 124 -216q0 -133 -114 -219q-19 -13 -23 -16q96 -79 96 -184q0 -131 -102 -207q-105 -79 -264 -79q-206 0 -375 140
l92 114q128 -121 280 -121q105 0 156 41.5t51 108.5q0 63 -61 101q-44 26 -184 67q-165 48 -229 89q-124 79 -124 219q0 131 115 216q19 13 22 16q-92 77 -92 188q0 127 98 203q108 83 267 83zM399 893q-45 -10 -76 -35q-61 -44 -61.5 -120.5t61.5 -114.5q34 -22 184 -67
l95 -28q45 9 77 34q63 48 61.5 118t-61.5 114q-36 26 -182 70z" />
    <glyph glyph-name="dieresis" unicode="&#xa8;" horiz-adv-x="794" 
d="M588 1727q-45 0 -76 -31q-30 -30 -31 -74q1 -43 31 -74q31 -31 76 -31q43 0 74 30q32 31 32 75q-1 43 -31 73q-32 32 -75 32zM207 1727q-45 0 -76 -31q-30 -30 -31 -74q1 -43 31 -74q31 -31 76 -31q43 0 74 30q32 31 32 75q-1 43 -31 73q-32 32 -75 32z" />
    <glyph glyph-name="copyright" unicode="&#xa9;" horiz-adv-x="1258" 
d="M631 1035q218 0 372 -154q155 -155 155 -376.5t-154.5 -376t-373 -154.5t-374.5 156t-156 375q0 215 156 372t375 158zM309 823q-134 -131 -134 -318t134.5 -319.5t321.5 -132.5t319.5 132.5t132.5 319.5t-132.5 319.5t-319.5 132.5t-322 -134zM634 839q178 0 268 -147
l-72 -31q-63 102 -196 102q-106 0 -173 -74q-65 -73 -65 -184q0 -116 66 -187.5t172 -71.5q133 0 196 103l72 -31q-90 -147 -268 -147q-137 0 -227.5 95t-90.5 238.5t90.5 239t227.5 95.5z" />
    <glyph glyph-name="ordfeminine" unicode="&#xaa;" horiz-adv-x="754" 
d="M371 1433q129 0 206 -65t77 -179v-390h-95v57q-98 -71 -227 -71q-112 0 -172 55t-60 149.5t61.5 151t170.5 56.5q129 0 227 -73v69q0 72 -53 116t-135 44q-94 0 -161 -38l-45 75q95 43 206 43zM357 1119q-74 0 -115 -36.5t-41 -93t41 -92t115 -35.5q81 0 146.5 40.5
t65.5 87t-65.5 88t-146.5 41.5z" />
    <glyph glyph-name="guillemotleft" unicode="&#xab;" horiz-adv-x="1090" 
d="M658 505l332 -387h-193l-328 387l328 387h193zM289 505l332 -387h-193l-328 387l328 387h193z" />
    <glyph glyph-name="logicalnot" unicode="&#xac;" horiz-adv-x="1200" 
d="M962 776h-862v133h1000v-399h-138v266z" />
    <glyph glyph-name="sfthyphen" unicode="&#xad;" horiz-adv-x="677" 
d="M100 642v-133h477v133h-477z" />
    <glyph glyph-name="registered" unicode="&#xae;" horiz-adv-x="1257" 
d="M628 1034q219 0 374 -157q155 -155 155 -373t-155.5 -373.5t-373 -155.5t-373 155.5t-155.5 373.5q0 215 155.5 372.5t372.5 157.5zM311 821q-134 -130 -134 -316.5t133 -318.5t318.5 -132t318.5 132t133 318.5t-133 318.5t-318.5 132t-317.5 -134zM488 774v-243h165
q52 0 87 33t35 88.5t-35 88.5t-87 33h-165zM784 182l-173 285h-123v-285h-76v655h257q79 0 133 -49q54 -50 54 -136q0 -84 -54 -132q-43 -40 -104 -48l181 -290h-95z" />
    <glyph glyph-name="macron" unicode="&#xaf;" horiz-adv-x="929" 
d="M100 1577v-134h729v134h-729z" />
    <glyph glyph-name="degree" unicode="&#xb0;" horiz-adv-x="660" 
d="M329 1328q-53 0 -89.5 -38t-36.5 -90t36.5 -88.5t89.5 -36.5q52 0 89 36.5t37 88.5t-37 90t-89 38zM329 1433q47 0 89 -18.5t73.5 -50.5t50 -74t18.5 -90q0 -49 -18.5 -92t-50 -74.5t-73.5 -49.5t-89 -18q-48 0 -90 18t-73 49.5t-48.5 74.5t-17.5 92q0 48 17.5 90
t48.5 74t73 50.5t90 18.5z" />
    <glyph glyph-name="plusminus" unicode="&#xb1;" horiz-adv-x="1200" 
d="M679 342l1 300h420v133h-420l-1 434h-158v-434h-421v-133h421v-300h-421v-133h1000v133h-421z" />
    <glyph glyph-name="twosuperior" unicode="&#xb2;" horiz-adv-x="728" 
d="M352 1443q123 0 204 -77q72 -68 72 -175q0 -81 -54 -164q-24 -39 -133 -154l-196 -207h383v-88h-528v78l258 272q91 96 123 143q40 60 40 120q0 69 -48 117q-45 45 -121 45q-109 0 -193 -83l-57 74q109 99 250 99z" />
    <glyph glyph-name="threesuperior" unicode="&#xb3;" horiz-adv-x="768" 
d="M356 1441q127 0 205 -56q81 -58 81 -159q0 -144 -157 -194q88 -30 134 -90q49 -63 49 -145q0 -116 -88 -176t-228 -60q-166 0 -252 74l60 72q70 -56 196 -56q91 0 149 41q58 42 58 120t-59.5 126.5t-147.5 48.5h-97v88h97q74 0 129 37q52 36 52 103t-48.5 100.5
t-127.5 33.5q-96 0 -167 -32l-58 68q101 56 220 56z" />
    <glyph glyph-name="acute" unicode="&#xb4;" horiz-adv-x="425" 
d="M425 1654l-281 -211h-144l252 286z" />
    <glyph glyph-name="acute" unicode="&#x301;" horiz-adv-x="425" 
d="M425 1654l-281 -211h-144l252 286z" />
    <glyph glyph-name="mu" unicode="&#xb5;" horiz-adv-x="1180" 
d="M299 42v-453h-159v1420h1h-1h159v-633q3 -118 67 -193q67 -78 187 -78q131 0 229 92q99 93 99 252v560h159v-1009h-159v140q-152 -165 -358 -165q-128 0 -224 67z" />
    <glyph glyph-name="paragraph" unicode="&#xb6;" horiz-adv-x="1221" 
d="M749 1418v-1829h-166v1028h-79q-172 0 -288 108t-116 292.5t116 292.5t288 108h245zM915 1418h166v-1829h-166v1829z" />
    <glyph glyph-name="periodcentered" unicode="&#xb7;" horiz-adv-x="266" 
d="M133 636q-56 0 -94 -38t-39 -93q1 -54 39 -92q38 -39 94 -39q54 0 93 38q40 38 40 93q-1 54 -39 92q-40 39 -94 39z" />
    <glyph glyph-name="cedilla" unicode="&#xb8;" horiz-adv-x="371" 
d="M125 0h104l-91 -181q33 14 72 14q68 0 114 -43q47 -44 47 -117q0 -78 -60.5 -132t-158.5 -54q-85 0 -149 33l45 91q52 -26 104 -26q54 0 84 25q31 25 31 63q0 34 -28.5 58t-68.5 24q-58 0 -99 -36l-71 33z" />
    <glyph glyph-name="onesuperior" unicode="&#xb9;" horiz-adv-x="504" 
d="M280 1418h84v-851h-99v748l-147 -76l-38 72z" />
    <glyph glyph-name="ordmasculine" unicode="&#xba;" horiz-adv-x="820" 
d="M632 1339q88 -92 88 -231.5t-88.5 -231t-223 -91.5t-221.5 91.5t-87 231t87 232t221.5 92.5t223.5 -93zM259 1284q-59 -68 -59 -176.5t57.5 -176t151 -67.5t151.5 67.5t58 176t-58 177t-151.5 68.5t-149.5 -69z" />
    <glyph glyph-name="guillemotright" unicode="&#xbb;" horiz-adv-x="1090" 
d="M432 505l-332 387h193l328 -387l-328 -387h-193zM801 505l-332 387h193l328 -387l-328 -387h-193z" />
    <glyph glyph-name="onequarter" unicode="&#xbc;" horiz-adv-x="1554" 
d="M1138 1418h117l-916 -1418h-117zM300 1418h84v-851h-99v748l-147 -76l-38 72zM1263 851h86v-547h105v-84h-105v-220h-99v220h-414v69zM1250 697l-300 -393h300v393z" />
    <glyph glyph-name="onehalf" unicode="&#xbd;" horiz-adv-x="1581" 
d="M1205 865q123 0 204 -77q72 -68 72 -175q0 -81 -54 -164q-24 -39 -133 -154l-196 -207h383v-88h-528v78l258 272q91 96 123 143q40 60 40 120q0 69 -48 117q-45 45 -121 45q-109 0 -193 -83l-57 74q109 99 250 99zM1105 1418h117l-916 -1418h-117zM300 1418h84v-851h-99
v748l-147 -76l-38 72z" />
    <glyph glyph-name="threequarters" unicode="&#xbe;" horiz-adv-x="1648" 
d="M1310 1418h117l-916 -1418h-117zM1357 851h86v-547h105v-84h-105v-220h-99v220h-414v69zM1344 697l-300 -393h300v393zM356 1441q127 0 205 -56q81 -58 81 -159q0 -144 -157 -194q88 -30 134 -90q49 -63 49 -145q0 -116 -88 -176t-228 -60q-166 0 -252 74l60 72
q70 -56 196 -56q91 0 149 41q58 42 58 120t-59.5 126.5t-147.5 48.5h-97v88h97q74 0 129 37q52 36 52 103t-48.5 100.5t-127.5 33.5q-96 0 -167 -32l-58 68q101 56 220 56z" />
    <glyph glyph-name="questiondown" unicode="&#xbf;" horiz-adv-x="1006" 
d="M598 -431q-220 0 -359 127q-139 128 -139 336q0 193 134 309.5t351 141.5l13 128h140l12 -246l-158 -19q-324 -59 -324 -314q0 -137 92 -225.5t238 -88.5q143 0 242 68l66 -137q-158 -80 -308 -80zM668 767q56 0 94 38t39 93q-1 54 -39 92q-38 39 -94 39q-54 0 -93 -38
q-40 -38 -40 -93q1 -54 39 -92q40 -39 94 -39z" />
    <glyph glyph-name="Agrave" unicode="&#xc0;" horiz-adv-x="1402" 
d="M624 1418h156l592 -1418h-178l-153 372h-680l-150 -372h-181zM701 1208l-283 -696h569zM489 1731l173 75l252 -286h-144z" />
    <glyph glyph-name="Aacute" unicode="&#xc1;" horiz-adv-x="1402" 
d="M624 1418h156l592 -1418h-178l-153 372h-680l-150 -372h-181zM701 1208l-283 -696h569zM914 1731l-281 -211h-144l252 286z" />
    <glyph glyph-name="Acircumflex" unicode="&#xc2;" horiz-adv-x="1402" 
d="M624 1418h156l592 -1418h-178l-153 372h-680l-150 -372h-181zM701 1208l-283 -696h569zM600 1805h203l251 -285h-142l-210 158l-210 -158h-143z" />
    <glyph glyph-name="Atilde" unicode="&#xc3;" horiz-adv-x="1402" 
d="M624 1418h156l592 -1418h-178l-153 372h-680l-150 -372h-181zM701 1208l-283 -696h569zM577 1743q66 0 159 -56q60 -36 92 -36q58 0 102 62l110 -71q-45 -60 -97.5 -91t-114.5 -31q-69 0 -159 54q-62 38 -92 38q-58 0 -103 -62l-111 71q47 59 99 91t115 31z" />
    <glyph glyph-name="Adieresis" unicode="&#xc4;" horiz-adv-x="1402" 
d="M624 1418h156l592 -1418h-178l-153 372h-680l-150 -372h-181zM701 1208l-283 -696h569zM892 1730q-45 0 -76 -31q-30 -30 -31 -74q1 -43 31 -74q31 -31 76 -31q43 0 74 30q32 31 32 75q-1 43 -31 73q-32 32 -75 32zM511 1730q-45 0 -76 -31q-30 -30 -31 -74q1 -43 31 -74
q31 -31 76 -31q43 0 74 30q32 31 32 75q-1 43 -31 73q-32 32 -75 32z" />
    <glyph glyph-name="Aring" unicode="&#xc5;" horiz-adv-x="1402" 
d="M624 1418h156l592 -1418h-178l-153 372h-680l-150 -372h-181zM701 1208l-283 -696h569zM699 1843q-48 0 -81.5 -35t-33.5 -82q0 -48 33.5 -81t81.5 -33t81.5 33t33.5 81q0 47 -33.5 82t-81.5 35zM699 1959q47 0 89 -18.5t73.5 -50.5t50 -74t18.5 -90q0 -49 -18.5 -92
t-50 -74.5t-73.5 -49.5t-89 -18q-48 0 -90 18t-73 49.5t-48.5 74.5t-17.5 92q0 48 17.5 90t48.5 74t73 50.5t90 18.5z" />
    <glyph glyph-name="AE" unicode="&#xc6;" horiz-adv-x="2094" 
d="M1066 1418h928v-136h-763v-481h699v-137h-699v-527h763v-137h-928v372h-563l-270 -372h-203zM1066 1155l-464 -647h464v647z" />
    <glyph glyph-name="Ccedilla" unicode="&#xc7;" horiz-adv-x="1472" 
d="M823 -26l-80 -159q33 14 72 14q68 0 114 -43q47 -44 47 -117q0 -78 -61 -132q-60 -54 -158 -54q-85 0 -149 33l45 91q52 -26 104 -26q54 0 84 25q31 25 31 63q0 34 -29 58q-28 24 -68 24q-58 0 -99 -36l-71 33l116 230q-250 24 -422 204q-199 207 -199 526q0 318 199 527
t503 209q388 0 590 -321l-159 -72q-145 228 -431 228q-234 0 -380 -163q-143 -159 -143 -409q0 -253 145 -412t378 -159q286 0 431 228l159 -72q-193 -310 -569 -318z" />
    <glyph glyph-name="Egrave" unicode="&#xc8;" horiz-adv-x="1169" 
d="M140 1418h929v-137h-763v-477h699v-136h-699v-531h763v-137h-929v1418zM392 1731l173 75l252 -286h-144z" />
    <glyph glyph-name="Eacute" unicode="&#xc9;" horiz-adv-x="1169" 
d="M140 1418h929v-137h-763v-477h699v-136h-699v-531h763v-137h-929v1418zM817 1731l-281 -211h-144l252 286z" />
    <glyph glyph-name="Ecircumflex" unicode="&#xca;" horiz-adv-x="1169" 
d="M140 1418h929v-137h-763v-477h699v-136h-699v-531h763v-137h-929v1418zM503 1805h203l251 -285h-142l-210 158l-210 -158h-143z" />
    <glyph glyph-name="Edieresis" unicode="&#xcb;" horiz-adv-x="1169" 
d="M140 1418h929v-137h-763v-477h699v-136h-699v-531h763v-137h-929v1418zM795 1730q-45 0 -76 -31q-30 -30 -31 -74q1 -43 31 -74q31 -31 76 -31q43 0 74 30q32 31 32 75q-1 43 -31 73q-32 32 -75 32zM414 1730q-45 0 -76 -31q-30 -30 -31 -74q1 -43 31 -74q31 -31 76 -31
q43 0 74 30q32 31 32 75q-1 43 -31 73q-32 32 -75 32z" />
    <glyph glyph-name="Igrave" unicode="&#xcc;" horiz-adv-x="425" 
d="M140 1418h166v-1418h-166v1418zM11 1731l173 75l252 -286h-144z" />
    <glyph glyph-name="Iacute" unicode="&#xcd;" horiz-adv-x="447" 
d="M140 1418h166v-1418h-166v1418zM436 1731l-281 -211h-144l252 286z" />
    <glyph glyph-name="Icircumflex" unicode="&#xce;" horiz-adv-x="447" 
d="M140 1418h166v-1418h-166v1418zM122 1805h203l251 -285h-142l-210 158l-210 -158h-143z" />
    <glyph glyph-name="Idieresis" unicode="&#xcf;" horiz-adv-x="446" 
d="M140 1418h166v-1418h-166v1418zM414 1730q-45 0 -76 -31q-30 -30 -31 -74q1 -43 31 -74q31 -31 76 -31q43 0 74 30q32 31 32 75q-1 43 -31 73q-32 32 -75 32zM33 1730q-45 0 -76 -31q-30 -30 -31 -74q1 -43 31 -74q31 -31 76 -31q43 0 74 30q32 31 32 75q-1 43 -31 73
q-32 32 -75 32z" />
    <glyph glyph-name="Eth" unicode="&#xd0;" horiz-adv-x="1529" 
d="M215 1418h506q305 0 506.5 -192t201.5 -516.5t-201.5 -517t-506.5 -192.5h-506v640h-165v136h165v642zM381 1282v-506h330v-136h-330v-503h305q244 0 408 157.5t164 415t-164 415t-408 157.5h-305z" />
    <glyph glyph-name="Ntilde" unicode="&#xd1;" horiz-adv-x="1432" 
d="M140 1418h166l820 -1154v1154h166v-1418h-166l-820 1157v-1157h-166v1418zM592 1743q66 0 159 -56q60 -36 92 -36q58 0 102 62l110 -71q-45 -60 -97.5 -91t-114.5 -31q-69 0 -159 54q-62 38 -92 38q-58 0 -103 -62l-111 71q47 59 99 91t115 31z" />
    <glyph glyph-name="Ograve" unicode="&#xd2;" horiz-adv-x="1608" 
d="M1310 1234q198 -208 198 -526t-199.5 -525.5t-504 -207.5t-504.5 207.5t-200 525.5t200 527.5t504.5 209.5t505.5 -211zM279 708q0 -253 146 -412q145 -159 379 -159t379.5 159t145.5 412t-145 412t-380 159q-239 0 -382 -159t-143 -412zM592 1758l173 75l252 -286h-144z
" />
    <glyph glyph-name="Oacute" unicode="&#xd3;" horiz-adv-x="1608" 
d="M1310 1234q198 -208 198 -526t-199.5 -525.5t-504 -207.5t-504.5 207.5t-200 525.5t200 527.5t504.5 209.5t505.5 -211zM279 708q0 -253 146 -412q145 -159 379 -159t379.5 159t145.5 412t-145 412t-380 159q-239 0 -382 -159t-143 -412zM1017 1758l-281 -211h-144
l252 286z" />
    <glyph glyph-name="Ocircumflex" unicode="&#xd4;" horiz-adv-x="1608" 
d="M1310 1234q198 -208 198 -526t-199.5 -525.5t-504 -207.5t-504.5 207.5t-200 525.5t200 527.5t504.5 209.5t505.5 -211zM279 708q0 -253 146 -412q145 -159 379 -159t379.5 159t145.5 412t-145 412t-380 159q-239 0 -382 -159t-143 -412zM703 1832h203l251 -285h-142
l-210 158l-210 -158h-143z" />
    <glyph glyph-name="Otilde" unicode="&#xd5;" horiz-adv-x="1608" 
d="M1310 1234q198 -208 198 -526t-199.5 -525.5t-504 -207.5t-504.5 207.5t-200 525.5t200 527.5t504.5 209.5t505.5 -211zM279 708q0 -253 146 -412q145 -159 379 -159t379.5 159t145.5 412t-145 412t-380 159q-239 0 -382 -159t-143 -412zM680 1770q66 0 159 -56
q60 -36 92 -36q58 0 102 62l110 -71q-45 -60 -97.5 -91t-114.5 -31q-69 0 -159 54q-62 38 -92 38q-58 0 -103 -62l-111 71q47 59 99 91t115 31z" />
    <glyph glyph-name="Odieresis" unicode="&#xd6;" horiz-adv-x="1608" 
d="M1310 1234q198 -208 198 -526t-199.5 -525.5t-504 -207.5t-504.5 207.5t-200 525.5t200 527.5t504.5 209.5t505.5 -211zM279 708q0 -253 146 -412q145 -159 379 -159t379.5 159t145.5 412t-145 412t-380 159q-239 0 -382 -159t-143 -412zM995 1757q-45 0 -76 -31
q-30 -30 -31 -74q1 -43 31 -74q31 -31 76 -31q43 0 74 30q32 31 32 75q-1 43 -31 73q-32 32 -75 32zM614 1757q-45 0 -76 -31q-30 -30 -31 -74q1 -43 31 -74q31 -31 76 -31q43 0 74 30q32 31 32 75q-1 43 -31 73q-32 32 -75 32z" />
    <glyph glyph-name="multiply" unicode="&#xd7;" horiz-adv-x="1002" 
d="M596 711l306 -308l-94 -94l-306 307l-308 -307l-94 94l308 308l-307 305l94 94l307 -306l305 306l94 -94z" />
    <glyph glyph-name="Oslash" unicode="&#xd8;" horiz-adv-x="1605" 
d="M802 1443q289 0 480 -182l172 172l71 -75l-175 -174q156 -201 156 -474q0 -318 -199.5 -527t-504.5 -209q-285 0 -479 185l-172 -172l-71 72l174 175q-155 201 -155 476q0 318 199.5 525.5t503.5 207.5zM802 1255q-229 0 -372 -155.5t-143 -403.5q0 -204 99 -347l769 769
q-143 137 -353 137zM1227 1063l-784 -784q146 -140 359 -140q234 0 379.5 159t145.5 412q0 208 -100 353z" />
    <glyph glyph-name="Ugrave" unicode="&#xd9;" horiz-adv-x="1398" 
d="M130 1418h165v-893q0 -181 109.5 -292t291 -111t292.5 111t111 292v893h169v-886q0 -261 -154 -409t-418 -148t-415 148t-151 409v886zM487 1731l173 75l252 -286h-144z" />
    <glyph glyph-name="Uacute" unicode="&#xda;" horiz-adv-x="1398" 
d="M130 1418h165v-893q0 -181 109.5 -292t291 -111t292.5 111t111 292v893h169v-886q0 -261 -154 -409t-418 -148t-415 148t-151 409v886zM912 1731l-281 -211h-144l252 286z" />
    <glyph glyph-name="Ucircumflex" unicode="&#xdb;" horiz-adv-x="1398" 
d="M130 1418h165v-893q0 -181 109.5 -292t291 -111t292.5 111t111 292v893h169v-886q0 -261 -154 -409t-418 -148t-415 148t-151 409v886zM598 1805h203l251 -285h-142l-210 158l-210 -158h-143z" />
    <glyph glyph-name="Udieresis" unicode="&#xdc;" horiz-adv-x="1398" 
d="M130 1418h165v-893q0 -181 109.5 -292t291 -111t292.5 111t111 292v893h169v-886q0 -261 -154 -409t-418 -148t-415 148t-151 409v886zM890 1730q-45 0 -76 -31q-30 -30 -31 -74q1 -43 31 -74q31 -31 76 -31q43 0 74 30q32 31 32 75q-1 43 -31 73q-32 32 -75 32z
M509 1730q-45 0 -76 -31q-30 -30 -31 -74q1 -43 31 -74q31 -31 76 -31q43 0 74 30q32 31 32 75q-1 43 -31 73q-32 32 -75 32z" />
    <glyph glyph-name="Yacute" unicode="&#xdd;" horiz-adv-x="1313" 
d="M30 1418h201l426 -639l426 639h200l-544 -788v-630h-165v630zM869 1731l-281 -211h-144l252 286z" />
    <glyph glyph-name="Thorn" unicode="&#xde;" horiz-adv-x="1201" 
d="M306 972v-527h356q114 0 189 71.5t75 192t-75 192t-189 71.5h-356zM306 1418v-309h391q172 0 288 -108t116 -292q0 -185 -116 -293t-288 -108h-391v-308h-166v1418h166z" />
    <glyph glyph-name="germandbls" unicode="&#xdf;" horiz-adv-x="1099" 
d="M529 1442q165 0 282 -102t117 -245q0 -106 -67.5 -192.5t-175.5 -125.5q314 -84 314 -381q0 -175 -124.5 -285.5t-308.5 -110.5h-141v130h109q138 0 220.5 79t82.5 211t-82.5 211t-220.5 79h-109v130h96q112 0 178 67t66 169q0 104 -68 170t-168 66q-91 0 -158 -63
t-76 -154v-1095h-155v1095q0 143 113.5 245t275.5 102z" />
    <glyph glyph-name="agrave" unicode="&#xe0;" 
d="M406 1346l173 75l252 -286h-144zM956 1009h159v-1009h-159v134q-153 -159 -366 -159t-351 149q-139 150 -139 379t138.5 380t351.5 151t366 -159v134zM364 792q-99 -111 -99 -289t99 -288t255 -110t254.5 110t98.5 288t-98.5 289.5t-254.5 111.5t-255 -112z" />
    <glyph glyph-name="aacute" unicode="&#xe1;" 
d="M843 1346l-281 -211h-144l252 286zM956 1009h159v-1009h-159v134q-153 -159 -366 -159t-351 149q-139 150 -139 379t138.5 380t351.5 151t366 -159v134zM364 792q-99 -111 -99 -289t99 -288t255 -110t254.5 110t98.5 288t-98.5 289.5t-254.5 111.5t-255 -112z" />
    <glyph glyph-name="acircumflex" unicode="&#xe2;" 
d="M507 1420h203l251 -285h-142l-210 158l-210 -158h-143zM956 1009h159v-1009h-159v134q-153 -159 -366 -159t-351 149q-139 150 -139 379t138.5 380t351.5 151t366 -159v134zM364 792q-99 -111 -99 -289t99 -288t255 -110t254.5 110t98.5 288t-98.5 289.5t-254.5 111.5
t-255 -112z" />
    <glyph glyph-name="atilde" unicode="&#xe3;" 
d="M500 1358q66 0 159 -56q60 -36 92 -36q58 0 102 62l110 -71q-45 -60 -97.5 -91t-114.5 -31q-69 0 -159 54q-62 38 -92 38q-58 0 -103 -62l-111 71q47 59 99 91t115 31zM956 1009h159v-1009h-159v134q-153 -159 -366 -159t-351 149q-139 150 -139 379t138.5 380t351.5 151
t366 -159v134zM364 792q-99 -111 -99 -289t99 -288t255 -110t254.5 110t98.5 288t-98.5 289.5t-254.5 111.5t-255 -112z" />
    <glyph glyph-name="adieresis" unicode="&#xe4;" 
d="M803 1345q-45 0 -76 -31q-30 -30 -31 -74q1 -43 31 -74q31 -31 76 -31q43 0 74 30q32 31 32 75q-1 43 -31 73q-32 32 -75 32zM422 1345q-45 0 -76 -31q-30 -30 -31 -74q1 -43 31 -74q31 -31 76 -31q43 0 74 30q32 31 32 75q-1 43 -31 73q-32 32 -75 32zM956 1009h159
v-1009h-159v134q-153 -159 -366 -159t-351 149q-139 150 -139 379t138.5 380t351.5 151t366 -159v134zM364 792q-99 -111 -99 -289t99 -288t255 -110t254.5 110t98.5 288t-98.5 289.5t-254.5 111.5t-255 -112z" />
    <glyph glyph-name="aring" unicode="&#xe5;" 
d="M606 1486q-48 0 -81.5 -35t-33.5 -82q0 -48 33.5 -81t81.5 -33t81.5 33t33.5 81q0 47 -33.5 82t-81.5 35zM606 1602q47 0 89 -18.5t73.5 -50.5t50 -74t18.5 -90q0 -49 -18.5 -92t-50 -74.5t-73.5 -49.5t-89 -18q-48 0 -90 18t-73 49.5t-48.5 74.5t-17.5 92q0 48 17.5 90
t48.5 74t73 50.5t90 18.5zM956 1009h159v-1009h-159v134q-153 -159 -366 -159t-351 149q-139 150 -139 379t138.5 380t351.5 151t366 -159v134zM364 792q-99 -111 -99 -289t99 -288t255 -110t254.5 110t98.5 288t-98.5 289.5t-254.5 111.5t-255 -112z" />
    <glyph glyph-name="ae" unicode="&#xe6;" horiz-adv-x="1941" 
d="M1352 1034q216 0 353 -148q136 -148 136 -380q0 -38 -3 -57h-823q3 -19 10 -51q28 -134 125 -213t234 -79q168 0 276 117l140 -67q-140 -181 -416 -181q-283 0 -436 210q-38 -48 -101 -92q-159 -118 -369 -118q-181 0 -279.5 90.5t-98.5 243t100 245t278 92.5
q210 0 369 -118v111q0 118 -86 189.5t-220 71.5q-152 0 -260 -60l-76 120q156 70 336 70q296 0 410 -194q182 198 401 198zM1120 808q-89 -95 -105 -248h677q-16 153 -108 248t-232 95t-232 -95zM519 522q-121 0 -187.5 -57.5t-66.5 -149.5t66.5 -149t187.5 -57
q131 0 237 65t106 141.5t-106 141.5t-237 65z" />
    <glyph glyph-name="ccedilla" unicode="&#xe7;" horiz-adv-x="1112" 
d="M616 -25l-62 -122q33 14 72 14q68 0 114 -43q47 -44 47 -117q0 -78 -61 -132q-60 -54 -158 -54q-85 0 -149 33l45 91q52 -26 104 -26q54 0 84 25q31 25 31 63q0 34 -29 58q-28 24 -68 24q-58 0 -99 -36l-71 33l99 196q-160 26 -272 143q-143 149 -143 378q0 226 143 379
q143 152 363 152q284 0 426 -232l-140 -64q-92 166 -286 166q-153 0 -247 -112q-94 -111 -94 -289t94 -288t247 -110q194 0 286 166l140 -67q-140 -225 -416 -229z" />
    <glyph glyph-name="egrave" unicode="&#xe8;" horiz-adv-x="1193" 
d="M100 507q0 226 143 377t363 151q218 0 352 -148q135 -148 135 -380v-58h-827q3 -19 9 -51q29 -133 127.5 -212.5t235.5 -79.5q165 0 274 117l143 -66q-140 -182 -417 -182q-232 0 -385 151.5t-153 380.5zM374 809q-92 -95 -108 -248h681q-16 153 -108.5 248t-232.5 95
t-232 -95zM384 1348l173 75l252 -286h-144z" />
    <glyph glyph-name="eacute" unicode="&#xe9;" horiz-adv-x="1193" 
d="M100 507q0 226 143 377t363 151q218 0 352 -148q135 -148 135 -380v-58h-827q3 -19 9 -51q29 -133 127.5 -212.5t235.5 -79.5q165 0 274 117l143 -66q-140 -182 -417 -182q-232 0 -385 151.5t-153 380.5zM374 809q-92 -95 -108 -248h681q-16 153 -108.5 248t-232.5 95
t-232 -95zM809 1348l-281 -211h-144l252 286z" />
    <glyph glyph-name="ecircumflex" unicode="&#xea;" horiz-adv-x="1193" 
d="M100 507q0 226 143 377t363 151q218 0 352 -148q135 -148 135 -380v-58h-827q3 -19 9 -51q29 -133 127.5 -212.5t235.5 -79.5q165 0 274 117l143 -66q-140 -182 -417 -182q-232 0 -385 151.5t-153 380.5zM374 809q-92 -95 -108 -248h681q-16 153 -108.5 248t-232.5 95
t-232 -95zM495 1422h203l251 -285h-142l-210 158l-210 -158h-143z" />
    <glyph glyph-name="edieresis" unicode="&#xeb;" horiz-adv-x="1193" 
d="M100 507q0 226 143 377t363 151q218 0 352 -148q135 -148 135 -380v-58h-827q3 -19 9 -51q29 -133 127.5 -212.5t235.5 -79.5q165 0 274 117l143 -66q-140 -182 -417 -182q-232 0 -385 151.5t-153 380.5zM374 809q-92 -95 -108 -248h681q-16 153 -108.5 248t-232.5 95
t-232 -95zM799 1347q-45 0 -76 -31q-30 -30 -31 -74q1 -43 31 -74q31 -31 76 -31q43 0 74 30q32 31 32 75q-1 43 -31 73q-32 32 -75 32zM418 1347q-45 0 -76 -31q-30 -30 -31 -74q1 -43 31 -74q31 -31 76 -31q43 0 74 30q32 31 32 75q-1 43 -31 73q-32 32 -75 32z" />
    <glyph glyph-name="igrave" unicode="&#xec;" horiz-adv-x="445" 
d="M142 1009h160v-1009h-160v1009zM10 1323l173 75l252 -286h-144z" />
    <glyph glyph-name="iacute" unicode="&#xed;" horiz-adv-x="445" 
d="M142 1009h160v-1009h-160v1009zM435 1322l-281 -211h-144l252 286z" />
    <glyph glyph-name="icircumflex" unicode="&#xee;" horiz-adv-x="441" 
d="M140 1009h160v-1009h-160v1009zM119 1396h203l251 -285h-142l-210 158l-210 -158h-143z" />
    <glyph glyph-name="idieresis" unicode="&#xef;" horiz-adv-x="440" 
d="M140 1009h160v-1009h-160v1009zM411 1321q-45 0 -76 -31q-30 -30 -31 -74q1 -43 31 -74q31 -31 76 -31q43 0 74 30q32 31 32 75q-1 43 -31 73q-32 32 -75 32zM30 1321q-45 0 -76 -31q-30 -30 -31 -74q1 -43 31 -74q31 -31 76 -31q43 0 74 30q32 31 32 75q-1 43 -31 73
q-32 32 -75 32z" />
    <glyph glyph-name="eth" unicode="&#xf0;" horiz-adv-x="1198" 
d="M946 1537l57 -89l-204 -134q299 -340 299 -773q0 -248 -135 -407t-358 -159q-219 0 -362 151t-143 380t134.5 378.5t334.5 149.5q210 0 329 -156q-69 184 -216 357l-239 -156l-57 89l223 146q-35 35 -118 105l92 105q76 -67 143 -133zM357 793q-95 -109 -95 -287
t95.5 -289.5t248 -111.5t246.5 111.5t94 289.5t-94 288t-246.5 110t-248.5 -111z" />
    <glyph glyph-name="ntilde" unicode="&#xf1;" horiz-adv-x="1170" 
d="M657 1034q164 0 274 -108q109 -109 109 -293v-633h-159v624q0 124 -66.5 202t-187.5 78q-131 0 -229.5 -92.5t-98.5 -251.5v-560h-159v1009h159v-140q152 165 358 165zM466 1359q66 0 159 -56q60 -36 92 -36q58 0 102 62l110 -71q-45 -60 -97.5 -91t-114.5 -31
q-69 0 -159 54q-62 38 -92 38q-58 0 -103 -62l-111 71q47 59 99 91t115 31z" />
    <glyph glyph-name="ograve" unicode="&#xf2;" horiz-adv-x="1215" 
d="M972 882q143 -150 143 -379t-145 -378.5t-364.5 -149.5t-362.5 149.5t-143 378.5t143 380t362.5 151t366.5 -152zM361 792q-96 -111 -96 -289t94 -288t246.5 -110t248 110t95.5 288t-95.5 289.5t-248 111.5t-244.5 -112zM396 1347l173 75l252 -286h-144z" />
    <glyph glyph-name="oacute" unicode="&#xf3;" horiz-adv-x="1215" 
d="M972 882q143 -150 143 -379t-145 -378.5t-364.5 -149.5t-362.5 149.5t-143 378.5t143 380t362.5 151t366.5 -152zM361 792q-96 -111 -96 -289t94 -288t246.5 -110t248 110t95.5 288t-95.5 289.5t-248 111.5t-244.5 -112zM821 1347l-281 -211h-144l252 286z" />
    <glyph glyph-name="ocircumflex" unicode="&#xf4;" horiz-adv-x="1215" 
d="M972 882q143 -150 143 -379t-145 -378.5t-364.5 -149.5t-362.5 149.5t-143 378.5t143 380t362.5 151t366.5 -152zM361 792q-96 -111 -96 -289t94 -288t246.5 -110t248 110t95.5 288t-95.5 289.5t-248 111.5t-244.5 -112zM507 1421h203l251 -285h-142l-210 158l-210 -158
h-143z" />
    <glyph glyph-name="otilde" unicode="&#xf5;" horiz-adv-x="1215" 
d="M972 882q143 -150 143 -379t-145 -378.5t-364.5 -149.5t-362.5 149.5t-143 378.5t143 380t362.5 151t366.5 -152zM361 792q-96 -111 -96 -289t94 -288t246.5 -110t248 110t95.5 288t-95.5 289.5t-248 111.5t-244.5 -112zM484 1359q66 0 159 -56q60 -36 92 -36
q58 0 102 62l110 -71q-45 -60 -97.5 -91t-114.5 -31q-69 0 -159 54q-62 38 -92 38q-58 0 -103 -62l-111 71q47 59 99 91t115 31z" />
    <glyph glyph-name="odieresis" unicode="&#xf6;" horiz-adv-x="1215" 
d="M972 882q143 -150 143 -379t-145 -378.5t-364.5 -149.5t-362.5 149.5t-143 378.5t143 380t362.5 151t366.5 -152zM361 792q-96 -111 -96 -289t94 -288t246.5 -110t248 110t95.5 288t-95.5 289.5t-248 111.5t-244.5 -112zM799 1346q-45 0 -76 -31q-30 -30 -31 -74
q1 -43 31 -74q31 -31 76 -31q43 0 74 30q32 31 32 75q-1 43 -31 73q-32 32 -75 32zM418 1346q-45 0 -76 -31q-30 -30 -31 -74q1 -43 31 -74q31 -31 76 -31q43 0 74 30q32 31 32 75q-1 43 -31 73q-32 32 -75 32z" />
    <glyph glyph-name="divide" unicode="&#xf7;" horiz-adv-x="1200" 
d="M600 472q-45 0 -76 -31q-30 -30 -31 -74q1 -43 31 -74q31 -31 76 -31q43 0 74 30q32 31 32 75q-1 43 -31 73q-32 32 -75 32zM600 1157q-45 0 -76 -31q-30 -30 -31 -74q1 -43 31 -74q31 -31 76 -31q43 0 74 30q32 31 32 75q-1 43 -31 73q-32 32 -75 32zM100 776v-133h1000
v133h-1000z" />
    <glyph glyph-name="oslash" unicode="&#xf8;" horiz-adv-x="1207" 
d="M602 1034q197 0 337 -121l95 95l73 -70l-101 -102q104 -139 104 -330q0 -229 -144.5 -380t-363.5 -151q-188 0 -334 124l-98 -98l-70 73l102 98q-105 140 -105 334q0 229 143 378.5t362 149.5zM602 903q-153 0 -246.5 -109.5t-93.5 -287.5q0 -130 48 -222l524 524
q-95 95 -232 95zM894 725l-524 -524q95 -95 232 -95q152 0 247.5 111t95.5 289q0 124 -51 219z" />
    <glyph glyph-name="ugrave" unicode="&#xf9;" horiz-adv-x="1170" 
d="M130 1009h159v-624q0 -124 67 -202t187 -78q131 0 229.5 92.5t98.5 251.5v560h159v-1009h-159v140q-152 -165 -358 -165q-163 0 -273 108q-110 109 -110 293v633zM368 1322l173 75l252 -286h-144z" />
    <glyph glyph-name="uacute" unicode="&#xfa;" horiz-adv-x="1170" 
d="M130 1009h159v-624q0 -124 67 -202t187 -78q131 0 229.5 92.5t98.5 251.5v560h159v-1009h-159v140q-152 -165 -358 -165q-163 0 -273 108q-110 109 -110 293v633zM793 1322l-281 -211h-144l252 286z" />
    <glyph glyph-name="ucircumflex" unicode="&#xfb;" horiz-adv-x="1170" 
d="M130 1009h159v-624q0 -124 67 -202t187 -78q131 0 229.5 92.5t98.5 251.5v560h159v-1009h-159v140q-152 -165 -358 -165q-163 0 -273 108q-110 109 -110 293v633zM479 1396h203l251 -285h-142l-210 158l-210 -158h-143z" />
    <glyph glyph-name="udieresis" unicode="&#xfc;" horiz-adv-x="1170" 
d="M130 1009h159v-624q0 -124 67 -202t187 -78q131 0 229.5 92.5t98.5 251.5v560h159v-1009h-159v140q-152 -165 -358 -165q-163 0 -273 108q-110 109 -110 293v633zM771 1321q-45 0 -76 -31q-30 -30 -31 -74q1 -43 31 -74q31 -31 76 -31q43 0 74 30q32 31 32 75
q-1 43 -31 73q-32 32 -75 32zM390 1321q-45 0 -76 -31q-30 -30 -31 -74q1 -43 31 -74q31 -31 76 -31q43 0 74 30q32 31 32 75q-1 43 -31 73q-32 32 -75 32z" />
    <glyph glyph-name="yacute" unicode="&#xfd;" horiz-adv-x="1171" 
d="M130 1009h159v-624q0 -127 65.5 -203.5t186.5 -76.5q130 0 230.5 92.5t100.5 251.5v560h159v-1022q0 -191 -136 -307q-137 -116 -353 -116q-232 0 -412 115l73 130q169 -102 341 -102q153 0 240 73q88 74 88 188v172q-147 -165 -357 -165q-162 0 -273.5 108t-111.5 293
v633zM793 1322l-281 -211h-144l252 286z" />
    <glyph glyph-name="thorn" unicode="&#xfe;" 
d="M665 1034q213 0 351 -151q139 -151 139 -380t-138.5 -378.5t-351.5 -149.5t-366 159v-545h-159v1829h159v-543q153 159 366 159zM382 792q-99 -111 -99 -289t99 -288t254.5 -110t254.5 110t99 288t-99 289.5t-254.5 111.5t-254.5 -112z" />
    <glyph glyph-name="ydieresis" unicode="&#xff;" horiz-adv-x="1171" 
d="M130 1009h159v-624q0 -127 65.5 -203.5t186.5 -76.5q130 0 230.5 92.5t100.5 251.5v560h159v-1022q0 -191 -136 -307q-137 -116 -353 -116q-232 0 -412 115l73 130q169 -102 341 -102q153 0 240 73q88 74 88 188v172q-147 -165 -357 -165q-162 0 -273.5 108t-111.5 293
v633zM771 1321q-45 0 -76 -31q-30 -30 -31 -74q1 -43 31 -74q31 -31 76 -31q43 0 74 30q32 31 32 75q-1 43 -31 73q-32 32 -75 32zM390 1321q-45 0 -76 -31q-30 -30 -31 -74q1 -43 31 -74q31 -31 76 -31q43 0 74 30q32 31 32 75q-1 43 -31 73q-32 32 -75 32z" />
    <glyph glyph-name="Amacron" unicode="&#x100;" horiz-adv-x="1402" 
d="M624 1418h156l592 -1418h-178l-153 372h-680l-150 -372h-181zM701 1208l-283 -696h569zM337 1654v-134h729v134h-729z" />
    <glyph glyph-name="amacron" unicode="&#x101;" 
d="M279 1269v-134h729v134h-729zM956 1009h159v-1009h-159v134q-153 -159 -366 -159t-351 149q-139 150 -139 379t138.5 380t351.5 151t366 -159v134zM364 792q-99 -111 -99 -289t99 -288t255 -110t254.5 110t98.5 288t-98.5 289.5t-254.5 111.5t-255 -112z" />
    <glyph glyph-name="Abreve" unicode="&#x102;" horiz-adv-x="1402" 
d="M624 1418h156l592 -1418h-178l-153 372h-680l-150 -372h-181zM701 1208l-283 -696h569zM703 1646q92 0 148 57.5t56 149.5h143q0 -145 -98 -239.5t-249 -94.5t-248.5 94.5t-97.5 239.5h142q0 -92 56.5 -149.5t147.5 -57.5z" />
    <glyph glyph-name="abreve" unicode="&#x103;" 
d="M613 1261q92 0 148 57.5t56 149.5h143q0 -145 -98 -239.5t-249 -94.5t-248.5 94.5t-97.5 239.5h142q0 -92 56.5 -149.5t147.5 -57.5zM956 1009h159v-1009h-159v134q-153 -159 -366 -159t-351 149q-139 150 -139 379t138.5 380t351.5 151t366 -159v134zM364 792
q-99 -111 -99 -289t99 -288t255 -110t254.5 110t98.5 288t-98.5 289.5t-254.5 111.5t-255 -112z" />
    <glyph glyph-name="Aogonek" unicode="&#x104;" horiz-adv-x="1404" 
d="M701 1208l-283 -696h569zM980 -335q0 171 240 335h-26l-153 372h-680l-150 -372h-181l594 1418h156l592 -1418q-271 -191 -271 -324q0 -46 30 -78q30 -33 79 -33q67 0 116 78l78 -68q-86 -115 -203 -115q-107 0 -164 58q-57 56 -57 147z" />
    <glyph glyph-name="aogonek" unicode="&#x105;" horiz-adv-x="1290" 
d="M364 792q-99 -111 -99 -289t99 -288t255 -110t254.5 110t98.5 288t-98.5 289.5t-254.5 111.5t-255 -112zM969 0h-13v134q-153 -159 -366 -159t-351 149q-139 150 -139 379t139 380q138 151 351 151t366 -159v134h159v-1009q-268 -190 -268 -326q0 -46 30 -78
q30 -33 79 -33q67 0 116 78l78 -68q-86 -115 -203 -115q-107 0 -164 58q-57 56 -57 147q0 172 243 337z" />
    <glyph glyph-name="Cacute" unicode="&#x106;" horiz-adv-x="1472" 
d="M802 1444q388 0 590 -321l-159 -72q-145 228 -431 228q-234 0 -380 -163q-143 -159 -143 -409q0 -253 145 -412t378 -159q286 0 431 228l159 -72q-198 -318 -590 -318q-304 0 -503 207.5t-199 526t199 527.5t503 209zM979 1757l-281 -211h-144l252 286z" />
    <glyph glyph-name="cacute" unicode="&#x107;" horiz-adv-x="1112" 
d="M100 503q0 226 143 378.5t363 152.5q284 0 426 -232l-140 -64q-92 166 -286 166q-153 0 -247 -111.5t-94 -289.5t94 -288t247 -110q194 0 286 166l140 -67q-143 -229 -426 -229q-220 0 -363 149.5t-143 378.5zM779 1347l-281 -211h-144l252 286z" />
    <glyph glyph-name="Ccircumflex" unicode="&#x108;" horiz-adv-x="1472" 
d="M802 1444q388 0 590 -321l-159 -72q-145 228 -431 228q-234 0 -380 -163q-143 -159 -143 -409q0 -253 145 -412t378 -159q286 0 431 228l159 -72q-198 -318 -590 -318q-304 0 -503 207.5t-199 526t199 527.5t503 209zM691 1831h203l251 -285h-142l-210 158l-210 -158
h-143z" />
    <glyph glyph-name="ccircumflex" unicode="&#x109;" horiz-adv-x="1112" 
d="M100 503q0 226 143 378.5t363 152.5q284 0 426 -232l-140 -64q-92 166 -286 166q-153 0 -247 -111.5t-94 -289.5t94 -288t247 -110q194 0 286 166l140 -67q-143 -229 -426 -229q-220 0 -363 149.5t-143 378.5zM502 1421h203l251 -285h-142l-210 158l-210 -158h-143z" />
    <glyph glyph-name="Cdot" unicode="&#x10a;" horiz-adv-x="1472" 
d="M804 1752q-45 0 -76 -31q-30 -30 -31 -74q1 -43 31 -74q31 -31 76 -31q43 0 74 30q32 31 32 75q-1 43 -31 73q-32 32 -75 32zM802 1444q388 0 590 -321l-159 -72q-145 228 -431 228q-234 0 -380 -163q-143 -159 -143 -409q0 -253 145 -412t378 -159q286 0 431 228
l159 -72q-198 -318 -590 -318q-304 0 -503 207.5t-199 526t199 527.5t503 209z" />
    <glyph glyph-name="cdot" unicode="&#x10b;" horiz-adv-x="1112" 
d="M605 1368q-45 0 -76 -31q-30 -30 -31 -74q1 -43 31 -74q31 -31 76 -31q43 0 74 30q32 31 32 75q-1 43 -31 73q-32 32 -75 32zM100 503q0 226 143 378.5t363 152.5q284 0 426 -232l-140 -64q-92 166 -286 166q-153 0 -247 -111.5t-94 -289.5t94 -288t247 -110
q194 0 286 166l140 -67q-143 -229 -426 -229q-220 0 -363 149.5t-143 378.5z" />
    <glyph glyph-name="Ccaron" unicode="&#x10c;" horiz-adv-x="1472" 
d="M802 1444q388 0 590 -321l-159 -72q-145 228 -431 228q-234 0 -380 -163q-143 -159 -143 -409q0 -253 145 -412t378 -159q286 0 431 228l159 -72q-198 -318 -590 -318q-304 0 -503 207.5t-199 526t199 527.5t503 209zM892 1546h-203l-251 285h142l210 -158l210 158h143z
" />
    <glyph glyph-name="ccaron" unicode="&#x10d;" horiz-adv-x="1112" 
d="M100 503q0 226 143 378.5t363 152.5q284 0 426 -232l-140 -64q-92 166 -286 166q-153 0 -247 -111.5t-94 -289.5t94 -288t247 -110q194 0 286 166l140 -67q-143 -229 -426 -229q-220 0 -363 149.5t-143 378.5zM698 1136h-203l-251 285h142l210 -158l210 158h143z" />
    <glyph glyph-name="Dcaron" unicode="&#x10e;" horiz-adv-x="1455" 
d="M140 1418h506q305 0 507 -192.5t202 -516.5t-202 -516.5t-507 -192.5h-506v1418zM306 1281v-1144h302q245 0 408.5 157t163.5 415t-163.5 415t-408.5 157h-302zM742 1520h-203l-251 285h142l210 -158l210 158h143z" />
    <glyph glyph-name="dcaron" unicode="&#x10f;" 
d="M956 1418h159v-1418h-159v134q-153 -159 -366 -159t-351 149q-139 150 -139 379t138.5 380t351.5 151t366 -159v543zM364 792q-99 -111 -99 -289t99 -288t255 -110t254.5 110t98.5 288t-98.5 289.5t-254.5 111.5t-255 -112zM710 1521h-203l-251 285h142l210 -158l210 158
h143z" />
    <glyph glyph-name="Dcroat" unicode="&#x110;" horiz-adv-x="1539" 
d="M225 1418h506q305 0 506.5 -192t201.5 -516.5t-201.5 -517t-506.5 -192.5h-506v640h-165v136h165v642zM391 1282v-506h330v-136h-330v-503h305q244 0 408 157.5t164 415t-164 415t-408 157.5h-305z" />
    <glyph glyph-name="dcroat" unicode="&#x111;" horiz-adv-x="1324" 
d="M364 792q-99 -111 -99 -289t99 -288t255 -110t254.5 110t98.5 288t-98.5 289.5t-254.5 111.5t-255 -112zM1115 1147v-1147h-159v134q-153 -159 -366 -159t-351 149q-139 150 -139 379t139 380q138 151 351 151t366 -159v272h-257v137h257v134h159v-134h169v-137h-169z
" />
    <glyph glyph-name="Emacron" unicode="&#x112;" horiz-adv-x="1169" 
d="M140 1418h929v-137h-763v-477h699v-136h-699v-531h763v-137h-929v1418zM240 1654v-134h729v134h-729z" />
    <glyph glyph-name="emacron" unicode="&#x113;" horiz-adv-x="1193" 
d="M100 507q0 226 143 377t363 151q218 0 352 -148q135 -148 135 -380v-58h-827q3 -19 9 -51q29 -133 127.5 -212.5t235.5 -79.5q165 0 274 117l143 -66q-140 -182 -417 -182q-232 0 -385 151.5t-153 380.5zM374 809q-92 -95 -108 -248h681q-16 153 -108.5 248t-232.5 95
t-232 -95zM232 1271v-134h729v134h-729z" />
    <glyph glyph-name="Ebreve" unicode="&#x114;" horiz-adv-x="1169" 
d="M140 1418h929v-137h-763v-477h699v-136h-699v-531h763v-137h-929v1418zM601 1646q92 0 148 57.5t56 149.5h143q0 -145 -98 -239.5t-249 -94.5t-248.5 94.5t-97.5 239.5h142q0 -92 56.5 -149.5t147.5 -57.5z" />
    <glyph glyph-name="ebreve" unicode="&#x115;" horiz-adv-x="1193" 
d="M100 507q0 226 143 377t363 151q218 0 352 -148q135 -148 135 -380v-58h-827q3 -19 9 -51q29 -133 127.5 -212.5t235.5 -79.5q165 0 274 117l143 -66q-140 -182 -417 -182q-232 0 -385 151.5t-153 380.5zM374 809q-92 -95 -108 -248h681q-16 153 -108.5 248t-232.5 95
t-232 -95zM606 1263q92 0 148 57.5t56 149.5h143q0 -145 -98 -239.5t-249 -94.5t-248.5 94.5t-97.5 239.5h142q0 -92 56.5 -149.5t147.5 -57.5z" />
    <glyph glyph-name="Edot" unicode="&#x116;" horiz-adv-x="1169" 
d="M599 1727q-45 0 -76 -31q-30 -30 -31 -74q1 -43 31 -74q31 -31 76 -31q43 0 74 30q32 31 32 75q-1 43 -31 73q-32 32 -75 32zM140 1418h929v-137h-763v-477h699v-136h-699v-531h763v-137h-929v1418z" />
    <glyph glyph-name="edot" unicode="&#x117;" horiz-adv-x="1193" 
d="M605 1343q-45 0 -76 -31q-30 -30 -31 -74q1 -43 31 -74q31 -31 76 -31q43 0 74 30q32 31 32 75q-1 43 -31 73q-32 32 -75 32zM100 507q0 226 143 377t363 151q218 0 352 -148q135 -148 135 -380v-58h-827q3 -19 9 -51q29 -133 127.5 -212.5t235.5 -79.5q165 0 274 117
l143 -66q-140 -182 -417 -182q-232 0 -385 151.5t-153 380.5zM374 809q-92 -95 -108 -248h681q-16 153 -108.5 248t-232.5 95t-232 -95z" />
    <glyph glyph-name="Eogonek" unicode="&#x118;" horiz-adv-x="1171" 
d="M140 0v1418h929v-137h-763v-477h699v-136h-699v-531h763v-137q-266 -191 -266 -324q0 -46 30 -78q30 -33 79 -33q67 0 116 78l78 -68q-86 -115 -203 -115q-107 0 -164 58q-57 56 -57 147q0 171 240 335h-782z" />
    <glyph glyph-name="eogonek" unicode="&#x119;" horiz-adv-x="1193" 
d="M374 809q-92 -95 -108 -248h681q-16 153 -108.5 248t-232.5 95t-232 -95zM855 10q-251 -183 -251 -313q0 -46 30 -78q30 -33 79 -33q67 0 116 78l78 -68q-86 -115 -203 -115q-107 0 -164 58q-57 56 -57 147q0 147 178 290q-11 -1 -23 -1q-232 0 -385 152
q-153 151 -153 380q0 226 143 377t363 151q218 0 352 -148q135 -148 135 -380v-58h-827q3 -19 9 -51q29 -133 128 -213q98 -79 235 -79q165 0 274 117l143 -66q-78 -102 -200 -147z" />
    <glyph glyph-name="Ecaron" unicode="&#x11a;" horiz-adv-x="1169" 
d="M140 1418h929v-137h-763v-477h699v-136h-699v-531h763v-137h-929v1418zM706 1520h-203l-251 285h142l210 -158l210 158h143z" />
    <glyph glyph-name="ecaron" unicode="&#x11b;" horiz-adv-x="1193" 
d="M100 507q0 226 143 377t363 151q218 0 352 -148q135 -148 135 -380v-58h-827q3 -19 9 -51q29 -133 127.5 -212.5t235.5 -79.5q165 0 274 117l143 -66q-140 -182 -417 -182q-232 0 -385 151.5t-153 380.5zM374 809q-92 -95 -108 -248h681q-16 153 -108.5 248t-232.5 95
t-232 -95zM704 1137h-203l-251 285h142l210 -158l210 158h143z" />
    <glyph glyph-name="Gcircumflex" unicode="&#x11c;" horiz-adv-x="1567" 
d="M803 1442q191 0 340 -88t233 -240l-159 -71q-132 237 -414 237q-234 0 -379 -160t-145 -413.5t145 -412t379 -158.5q217 0 348 138.5t148 364.5h-532v139h697q3 -37 3 -68q0 -324 -181 -529q-182 -206 -483 -206q-304 0 -503.5 208.5t-199.5 526.5t199.5 525t503.5 207z
M699 1829h203l251 -285h-142l-210 158l-210 -158h-143z" />
    <glyph glyph-name="gcircumflex" unicode="&#x11d;" horiz-adv-x="1259" 
d="M594 1035q214 0 366 -159v134h159v-1022q0 -191 -137 -307t-367 -116q-255 0 -448 114l73 134q199 -105 379 -105q165 0 253 71q88 72 88 190v165q-152 -159 -366 -159t-354 151q-140 152 -140 381t140 378.5t354 149.5zM622 904q-159 0 -257.5 -111t-98.5 -286
q0 -179 100 -290t256 -111t254.5 111t98.5 289.5t-98.5 288t-254.5 109.5zM487 1422h203l251 -285h-142l-210 158l-210 -158h-143z" />
    <glyph glyph-name="Gbreve" unicode="&#x11e;" horiz-adv-x="1567" 
d="M803 1442q191 0 340 -88t233 -240l-159 -71q-132 237 -414 237q-234 0 -379 -160t-145 -413.5t145 -412t379 -158.5q217 0 348 138.5t148 364.5h-532v139h697q3 -37 3 -68q0 -324 -181 -529q-182 -206 -483 -206q-304 0 -503.5 208.5t-199.5 526.5t199.5 525t503.5 207z
M800 1670q92 0 148 57.5t56 149.5h143q0 -145 -98 -239.5t-249 -94.5t-248.5 94.5t-97.5 239.5h142q0 -92 56.5 -149.5t147.5 -57.5z" />
    <glyph glyph-name="gbreve" unicode="&#x11f;" horiz-adv-x="1259" 
d="M594 1035q214 0 366 -159v134h159v-1022q0 -191 -137 -307t-367 -116q-255 0 -448 114l73 134q199 -105 379 -105q165 0 253 71q88 72 88 190v165q-152 -159 -366 -159t-354 151q-140 152 -140 381t140 378.5t354 149.5zM622 904q-159 0 -257.5 -111t-98.5 -286
q0 -179 100 -290t256 -111t254.5 111t98.5 289.5t-98.5 288t-254.5 109.5zM592 1263q92 0 148 57.5t56 149.5h143q0 -145 -98 -239.5t-249 -94.5t-248.5 94.5t-97.5 239.5h142q0 -92 56.5 -149.5t147.5 -57.5z" />
    <glyph glyph-name="Gdot" unicode="&#x120;" horiz-adv-x="1567" 
d="M799 1752q-45 0 -76 -31q-30 -30 -31 -74q1 -43 31 -74q31 -31 76 -31q43 0 74 30q32 31 32 75q-1 43 -31 73q-32 32 -75 32zM803 1442q191 0 340 -88t233 -240l-159 -71q-132 237 -414 237q-234 0 -379 -160t-145 -413.5t145 -412t379 -158.5q217 0 348 138.5t148 364.5
h-532v139h697q3 -37 3 -68q0 -324 -181 -529q-182 -206 -483 -206q-304 0 -503.5 208.5t-199.5 526.5t199.5 525t503.5 207z" />
    <glyph glyph-name="gdot" unicode="&#x121;" horiz-adv-x="1259" 
d="M595 1343q-45 0 -76 -31q-30 -30 -31 -74q1 -43 31 -74q31 -31 76 -31q43 0 74 30q32 31 32 75q-1 43 -31 73q-32 32 -75 32zM594 1035q214 0 366 -159v134h159v-1022q0 -191 -137 -307t-367 -116q-255 0 -448 114l73 134q199 -105 379 -105q165 0 253 71q88 72 88 190
v165q-152 -159 -366 -159t-354 151q-140 152 -140 381t140 378.5t354 149.5zM622 904q-159 0 -257.5 -111t-98.5 -286q0 -179 100 -290t256 -111t254.5 111t98.5 289.5t-98.5 288t-254.5 109.5z" />
    <glyph glyph-name="Gcedilla" unicode="&#x122;" horiz-adv-x="1567" 
d="M830 -25l-86 -171q33 14 72 14q68 0 114 -43q47 -44 47 -117q0 -78 -61 -132q-60 -54 -158 -54q-85 0 -149 33l45 91q52 -26 104 -26q54 0 84 25q31 25 31 63q0 34 -29 58q-28 24 -68 24q-58 0 -99 -36l-71 33l122 242q-254 22 -429 205q-199 208 -199 526t200 525
q199 207 503 207q191 0 340 -88t233 -240l-159 -71q-132 237 -414 237q-234 0 -379 -160t-145 -414q0 -253 145 -412q145 -158 379 -158q217 0 348 139q131 138 148 364h-532v139h697q3 -37 3 -68q0 -324 -181 -529q-174 -197 -456 -206z" />
    <glyph glyph-name="gcedilla" unicode="&#x123;" horiz-adv-x="1259" 
d="M622 1113q-65 0 -104 45.5t-39 118.5q0 207 197 391l75 -65q-131 -130 -148 -230q6 1 21 1q55 0 94 -37q38 -38 38 -94q0 -53 -39 -91.5t-95 -38.5zM594 1035q214 0 366 -159v134h159v-1022q0 -191 -137 -307t-367 -116q-255 0 -448 114l73 134q199 -105 379 -105
q165 0 253 71q88 72 88 190v165q-152 -159 -366 -159t-354 151q-140 152 -140 381t140 378.5t354 149.5zM622 904q-159 0 -257.5 -111t-98.5 -286q0 -179 100 -290t256 -111t254.5 111t98.5 289.5t-98.5 288t-254.5 109.5z" />
    <glyph glyph-name="Hcircumflex" unicode="&#x124;" horiz-adv-x="1403" 
d="M140 1418h166v-614h791v614h166v-1418h-166v668h-791v-668h-166v1418zM601 1805h203l251 -285h-142l-210 158l-210 -158h-143z" />
    <glyph glyph-name="hcircumflex" unicode="&#x125;" horiz-adv-x="1172" 
d="M140 1418h160v-549q153 165 359 165q163 0 273 -108q110 -109 110 -293v-633h-160v624q0 124 -67 202t-188 78q-130 0 -228.5 -92.5t-98.5 -251.5v-560h-160v1418zM490 1806h203l251 -285h-142l-210 158l-210 -158h-143z" />
    <glyph glyph-name="Itilde" unicode="&#x128;" horiz-adv-x="447" 
d="M140 1418h166v-1418h-166v1418zM99 1743q66 0 159 -56q60 -36 92 -36q58 0 102 62l110 -71q-45 -60 -97.5 -91t-114.5 -31q-69 0 -159 54q-62 38 -92 38q-58 0 -103 -62l-111 71q47 59 99 91t115 31z" />
    <glyph glyph-name="itilde" unicode="&#x129;" horiz-adv-x="441" 
d="M140 1009h160v-1009h-160v1009zM96 1334q66 0 159 -56q60 -36 92 -36q58 0 102 62l110 -71q-45 -60 -97.5 -91t-114.5 -31q-69 0 -159 54q-62 38 -92 38q-58 0 -103 -62l-111 71q47 59 99 91t115 31z" />
    <glyph glyph-name="Imacron" unicode="&#x12a;" horiz-adv-x="446" 
d="M140 1418h166v-1418h-166v1418zM-141 1654v-134h729v134h-729z" />
    <glyph glyph-name="imacron" unicode="&#x12b;" horiz-adv-x="440" 
d="M140 1009h160v-1009h-160v1009zM-144 1245v-134h729v134h-729z" />
    <glyph glyph-name="Ibreve" unicode="&#x12c;" horiz-adv-x="446" 
d="M140 1418h166v-1418h-166v1418zM221 1646q92 0 148 57.5t56 149.5h143q0 -145 -98 -239.5t-249 -94.5t-248.5 94.5t-97.5 239.5h142q0 -92 56.5 -149.5t147.5 -57.5z" />
    <glyph glyph-name="ibreve" unicode="&#x12d;" horiz-adv-x="449" 
d="M140 1009h160v-1009h-160v1009zM224 1237q92 0 148 57.5t56 149.5h143q0 -145 -98 -239.5t-249 -94.5t-248.5 94.5t-97.5 239.5h142q0 -92 56.5 -149.5t147.5 -57.5z" />
    <glyph glyph-name="Iogonek" unicode="&#x12e;" horiz-adv-x="443" 
d="M140 0v1418h166v-1418q-266 -191 -266 -324q0 -46 30 -78q30 -33 79 -33q67 0 116 78l78 -68q-86 -115 -203 -115q-107 0 -164 58q-57 56 -57 147q0 171 240 335h-19z" />
    <glyph glyph-name="iogonek" unicode="&#x12f;" horiz-adv-x="436" 
d="M140 0v1009h160v-1009q-267 -191 -267 -325q0 -46 30 -78q30 -33 79 -33q67 0 116 78l78 -68q-86 -115 -203 -115q-107 0 -164 58q-57 56 -57 147q0 172 242 336h-14z" />
    <glyph glyph-name="Idotaccent" unicode="&#x130;" horiz-adv-x="493" 
d="M247 1727q-45 0 -76 -31q-30 -30 -31 -74q1 -43 31 -74q31 -31 76 -31q43 0 74 30q32 31 32 75q-1 43 -31 73q-32 32 -75 32zM160 1418h166v-1418h-166v1418z" />
    <glyph glyph-name="dotlessi" unicode="&#x131;" horiz-adv-x="440" 
d="M140 1009h160v-1009h-160v1009z" />
    <glyph glyph-name="Jcircumflex" unicode="&#x134;" horiz-adv-x="923" 
d="M617 1418h166v-1027q0 -174 -104.5 -287.5t-297.5 -113.5q-210 0 -321 149l104 125q87 -125 217 -125q114 0 175 76q61 77 61 197v1006zM585 1805h203l251 -285h-142l-210 158l-210 -158h-143z" />
    <glyph glyph-name="jcircumflex" unicode="&#x135;" horiz-adv-x="671" 
d="M372 1009h159v-1184q0 -121 -70 -191t-188 -70q-111 0 -213 80l80 95q54 -48 114 -48q54 0 86 32t32 83v1203zM351 1395h203l251 -285h-142l-210 158l-210 -158h-143z" />
    <glyph glyph-name="Kcedilla" unicode="&#x136;" horiz-adv-x="1205" 
d="M140 1418h166v-668l611 668h226l-608 -645l620 -773h-209l-516 658l-124 -133v-525h-166v1418zM564 0h104l-91 -181q33 14 72 14q68 0 114 -43q47 -44 47 -117q0 -78 -60.5 -132t-158.5 -54q-85 0 -149 33l45 91q52 -26 104 -26q54 0 84 25q31 25 31 63q0 34 -28.5 58
t-68.5 24q-58 0 -99 -36l-71 33z" />
    <glyph glyph-name="kcedilla" unicode="&#x137;" horiz-adv-x="1055" 
d="M140 1418h159v-902l484 493h219l-458 -452l461 -557h-203l-363 452l-140 -140v-312h-159v1418zM481 0h104l-91 -181q33 14 72 14q68 0 114 -43q47 -44 47 -117q0 -78 -60.5 -132t-158.5 -54q-85 0 -149 33l45 91q52 -26 104 -26q54 0 84 25q31 25 31 63q0 34 -28.5 58
t-68.5 24q-58 0 -99 -36l-71 33z" />
    <glyph glyph-name="Lacute" unicode="&#x139;" horiz-adv-x="1034" 
d="M140 1418h166v-1281h668v-137h-834v1418zM770 1731l-281 -211h-144l252 286z" />
    <glyph glyph-name="lacute" unicode="&#x13a;" horiz-adv-x="445" 
d="M142 1418h159v-1418h-159v1418zM435 1732l-281 -211h-144l252 286z" />
    <glyph glyph-name="Lcedilla" unicode="&#x13b;" horiz-adv-x="1034" 
d="M616 0l-91 -179q33 14 72 14q68 0 114 -43q47 -44 47 -117q0 -78 -61 -132q-60 -54 -158 -54q-85 0 -149 33l45 91q52 -26 104 -26q54 0 84 25q31 25 31 63q0 34 -29 58q-28 24 -68 24q-58 0 -99 -36l-71 33l124 245l-371 1v1418h166v-1281h668v-137h-358z" />
    <glyph glyph-name="lcedilla" unicode="&#x13c;" horiz-adv-x="441" 
d="M274 0l-91 -179q33 14 72 14q68 0 114 -43q47 -44 47 -117q0 -78 -61 -132q-60 -54 -158 -54q-85 0 -149 33l45 91q52 -26 104 -26q54 0 84 25q31 25 31 63q0 34 -29 58q-28 24 -68 24q-58 0 -99 -36l-71 33l124 245l-29 1v1418h159v-1418h-25z" />
    <glyph glyph-name="Lcaron" unicode="&#x13d;" horiz-adv-x="1034" 
d="M140 1418h166v-1281h668v-137h-834v1418zM659 1520h-203l-251 285h142l210 -158l210 158h143z" />
    <glyph glyph-name="lcaron" unicode="&#x13e;" horiz-adv-x="441" 
d="M140 1418h159v-1418h-159v1418zM322 1521h-203l-251 285h142l210 -158l210 158h143z" />
    <glyph glyph-name="Ldot" unicode="&#x13f;" horiz-adv-x="1034" 
d="M868 814q-45 0 -76 -31q-30 -30 -31 -74q1 -43 31 -74q31 -31 76 -31q43 0 74 30q32 31 32 75q-1 43 -31 73q-32 32 -75 32zM140 1418h166v-1281h668v-137h-834v1418z" />
    <glyph glyph-name="ldot" unicode="&#x140;" horiz-adv-x="732" 
d="M140 1418h159v-1418h-159v1418zM566 814q-45 0 -76 -31q-30 -30 -31 -74q1 -43 31 -74q31 -31 76 -31q43 0 74 30q32 31 32 75q-1 43 -31 73q-32 32 -75 32z" />
    <glyph glyph-name="Lslash" unicode="&#x141;" horiz-adv-x="1242" 
d="M348 533l-224 -224l-94 94l318 318v697h166v-530l223 222l94 -94l-317 -316v-563h668v-137h-834v533z" />
    <glyph glyph-name="lslash" unicode="&#x142;" horiz-adv-x="861" 
d="M351 536l-227 -227l-94 94l321 321v695h159v-535l227 226l94 -94l-321 -320v-696h-159v536z" />
    <glyph glyph-name="Nacute" unicode="&#x143;" horiz-adv-x="1432" 
d="M140 1418h166l820 -1154v1154h166v-1418h-166l-820 1157v-1157h-166v1418zM929 1731l-281 -211h-144l252 286z" />
    <glyph glyph-name="nacute" unicode="&#x144;" horiz-adv-x="1170" 
d="M657 1034q164 0 274 -108q109 -109 109 -293v-633h-159v624q0 124 -66.5 202t-187.5 78q-131 0 -229.5 -92.5t-98.5 -251.5v-560h-159v1009h159v-140q152 165 358 165zM803 1347l-281 -211h-144l252 286z" />
    <glyph glyph-name="Ncedilla" unicode="&#x145;" horiz-adv-x="1432" 
d="M140 1418h166l820 -1154v1154h166v-1418h-166l-820 1157v-1157h-166v1418zM635 0h104l-91 -181q33 14 72 14q68 0 114 -43q47 -44 47 -117q0 -78 -60.5 -132t-158.5 -54q-85 0 -149 33l45 91q52 -26 104 -26q54 0 84 25q31 25 31 63q0 34 -28.5 58t-68.5 24
q-58 0 -99 -36l-71 33z" />
    <glyph glyph-name="ncedilla" unicode="&#x146;" horiz-adv-x="1170" 
d="M657 1034q164 0 274 -108q109 -109 109 -293v-633h-159v624q0 124 -66.5 202t-187.5 78q-131 0 -229.5 -92.5t-98.5 -251.5v-560h-159v1009h159v-140q152 165 358 165zM522 0h104l-91 -181q33 14 72 14q68 0 114 -43q47 -44 47 -117q0 -78 -60.5 -132t-158.5 -54
q-85 0 -149 33l45 91q52 -26 104 -26q54 0 84 25q31 25 31 63q0 34 -28.5 58t-68.5 24q-58 0 -99 -36l-71 33z" />
    <glyph glyph-name="Ncaron" unicode="&#x147;" horiz-adv-x="1432" 
d="M140 1418h166l820 -1154v1154h166v-1418h-166l-820 1157v-1157h-166v1418zM818 1520h-203l-251 285h142l210 -158l210 158h143z" />
    <glyph glyph-name="ncaron" unicode="&#x148;" horiz-adv-x="1170" 
d="M657 1034q164 0 274 -108q109 -109 109 -293v-633h-159v624q0 124 -66.5 202t-187.5 78q-131 0 -229.5 -92.5t-98.5 -251.5v-560h-159v1009h159v-140q152 165 358 165zM692 1136h-203l-251 285h142l210 -158l210 158h143z" />
    <glyph glyph-name="Omacron" unicode="&#x14c;" horiz-adv-x="1608" 
d="M1310 1234q198 -208 198 -526t-199.5 -525.5t-504 -207.5t-504.5 207.5t-200 525.5t200 527.5t504.5 209.5t505.5 -211zM279 708q0 -253 146 -412q145 -159 379 -159t379.5 159t145.5 412t-145 412t-380 159q-239 0 -382 -159t-143 -412zM440 1681v-134h729v134h-729z
" />
    <glyph glyph-name="omacron" unicode="&#x14d;" horiz-adv-x="1215" 
d="M972 882q143 -150 143 -379t-145 -378.5t-364.5 -149.5t-362.5 149.5t-143 378.5t143 380t362.5 151t366.5 -152zM361 792q-96 -111 -96 -289t94 -288t246.5 -110t248 110t95.5 288t-95.5 289.5t-248 111.5t-244.5 -112zM244 1270v-134h729v134h-729z" />
    <glyph glyph-name="Obreve" unicode="&#x14e;" horiz-adv-x="1608" 
d="M1310 1234q198 -208 198 -526t-199.5 -525.5t-504 -207.5t-504.5 207.5t-200 525.5t200 527.5t504.5 209.5t505.5 -211zM279 708q0 -253 146 -412q145 -159 379 -159t379.5 159t145.5 412t-145 412t-380 159q-239 0 -382 -159t-143 -412zM802 1673q92 0 148 57.5
t56 149.5h143q0 -145 -98 -239.5t-249 -94.5t-248.5 94.5t-97.5 239.5h142q0 -92 56.5 -149.5t147.5 -57.5z" />
    <glyph glyph-name="obreve" unicode="&#x14f;" horiz-adv-x="1215" 
d="M972 882q143 -150 143 -379t-145 -378.5t-364.5 -149.5t-362.5 149.5t-143 378.5t143 380t362.5 151t366.5 -152zM361 792q-96 -111 -96 -289t94 -288t246.5 -110t248 110t95.5 288t-95.5 289.5t-248 111.5t-244.5 -112zM604 1262q92 0 148 57.5t56 149.5h143
q0 -145 -98 -239.5t-249 -94.5t-248.5 94.5t-97.5 239.5h142q0 -92 56.5 -149.5t147.5 -57.5z" />
    <glyph glyph-name="Odblacute" unicode="&#x150;" horiz-adv-x="1608" 
d="M1310 1234q198 -208 198 -526t-199.5 -525.5t-504 -207.5t-504.5 207.5t-200 525.5t200 527.5t504.5 209.5t505.5 -211zM279 708q0 -253 146 -412q145 -159 379 -159t379.5 159t145.5 412t-145 412t-380 159q-239 0 -382 -159t-143 -412zM826 1758l-281 -211h-144
l252 286zM1207 1758l-281 -211h-144l252 286z" />
    <glyph glyph-name="odblacute" unicode="&#x151;" horiz-adv-x="1215" 
d="M972 882q143 -150 143 -379t-145 -378.5t-364.5 -149.5t-362.5 149.5t-143 378.5t143 380t362.5 151t366.5 -152zM361 792q-96 -111 -96 -289t94 -288t246.5 -110t248 110t95.5 288t-95.5 289.5t-248 111.5t-244.5 -112zM630 1347l-281 -211h-144l252 286zM1011 1347
l-281 -211h-144l252 286z" />
    <glyph glyph-name="OE" unicode="&#x152;" horiz-adv-x="2357" 
d="M279 708q0 -253 146 -412q145 -159 379 -159t379.5 159t145.5 412t-145 412t-380 159q-239 0 -382 -159t-143 -412zM1328 206q-9 -12 -19 -23q-200 -208 -504 -208q-305 0 -505 207q-200 208 -200 526t200 527q200 210 504 210q305 0 506 -211q9 -10 18 -21v205h929v-137
h-763v-477h699v-136h-699v-531h763v-137h-929v206z" />
    <glyph glyph-name="oe" unicode="&#x153;" horiz-adv-x="2045" 
d="M361 792q-96 -111 -96 -289t94 -288t246.5 -110t248 110t95.5 288t-95.5 289.5t-248 111.5t-244.5 -112zM1226 809q-92 -95 -108 -248h681q-16 153 -108.5 248t-232.5 95t-232 -95zM1033 804q27 43 62 80q143 151 363 151q218 0 352 -148q135 -148 135 -380v-58h-827
q3 -19 9 -51q29 -133 127 -212q99 -80 236 -80q165 0 274 117l143 -66q-140 -182 -417 -182q-232 0 -385 151q-39 39 -68 83q-29 -45 -67 -84q-145 -150 -364 -150q-220 0 -363 149q-143 150 -143 379t143 380t362 151q220 0 367 -152q35 -37 61 -78z" />
    <glyph glyph-name="Racute" unicode="&#x154;" horiz-adv-x="1239" 
d="M877 1731l-281 -211h-144l252 286zM306 1281v-527h356q114 0 189 71.5t75 192t-75 192t-189 71.5h-356zM947 0l-375 617h-266v-617h-166v1418h557q172 0 288 -108t116 -293q0 -182 -116 -286q-94 -86 -225 -105l391 -626h-204z" />
    <glyph glyph-name="racute" unicode="&#x155;" horiz-adv-x="715" 
d="M649 1034h6v-181q-57 19 -127 19q-96 0 -162 -52q-67 -53 -67 -164v-656h-159v1009h159v-121q133 146 350 146zM611 1347l-281 -211h-144l252 286z" />
    <glyph glyph-name="Rcedilla" unicode="&#x156;" horiz-adv-x="1239" 
d="M569 0h104l-91 -181q33 14 72 14q68 0 114 -43q47 -44 47 -117q0 -78 -60.5 -132t-158.5 -54q-85 0 -149 33l45 91q52 -26 104 -26q54 0 84 25q31 25 31 63q0 34 -28.5 58t-68.5 24q-58 0 -99 -36l-71 33zM306 1281v-527h356q114 0 189 71.5t75 192t-75 192t-189 71.5
h-356zM947 0l-375 617h-266v-617h-166v1418h557q172 0 288 -108t116 -293q0 -182 -116 -286q-94 -86 -225 -105l391 -626h-204z" />
    <glyph glyph-name="rcedilla" unicode="&#x157;" horiz-adv-x="812" 
d="M369 0l-91 -179q33 14 72 14q68 0 114 -43q47 -44 47 -117q0 -78 -60 -132q-61 -54 -159 -54q-85 0 -149 33l45 91q52 -26 104 -26q54 0 84 25q31 25 31 63q0 34 -28 58q-29 24 -69 24q-58 0 -99 -36l-71 33l124 245l-27 1v1009h159v-121q133 146 350 146h6v-181
q-57 19 -127 19q-96 0 -162 -52q-67 -53 -67 -164v-656h-27z" />
    <glyph glyph-name="Rcaron" unicode="&#x158;" horiz-adv-x="1239" 
d="M642 1520h-203l-251 285h142l210 -158l210 158h143zM306 1281v-527h356q114 0 189 71.5t75 192t-75 192t-189 71.5h-356zM947 0l-375 617h-266v-617h-166v1418h557q172 0 288 -108t116 -293q0 -182 -116 -286q-94 -86 -225 -105l391 -626h-204z" />
    <glyph glyph-name="rcaron" unicode="&#x159;" horiz-adv-x="715" 
d="M649 1034h6v-181q-57 19 -127 19q-96 0 -162 -52q-67 -53 -67 -164v-656h-159v1009h159v-121q133 146 350 146zM500 1136h-203l-251 285h142l210 -158l210 158h143z" />
    <glyph glyph-name="Sacute" unicode="&#x15a;" horiz-adv-x="1252" 
d="M642 1445q256 3 480 -179l-111 -133q-165 155 -366 155q-149 0 -223 -66q-69 -58 -69 -162q0 -97 85 -149q74 -46 253 -98q206 -57 298 -122q163 -118 163 -306t-150 -303q-143 -107 -360 -107q-302 0 -542 202l111 133q197 -177 437 -177q153 0 234 61q87 69 87 182
q-1 107 -90 168q-70 47 -246 98q-216 61 -299 116q-165 114 -165 294q0 174 129 283q130 110 344 110zM839 1761l-281 -211h-144l252 286z" />
    <glyph glyph-name="sacute" unicode="&#x15b;" horiz-adv-x="1002" 
d="M511 1034q204 0 372 -140l-89 -114q-127 121 -283 121q-99 0 -156 -45q-48 -38 -48 -105q0 -64 61 -102q44 -25 184 -67q160 -47 226 -89q124 -79 124 -219q0 -134 -114 -220q-108 -79 -277 -79q-235 0 -411 159l93 114q140 -140 318 -140q108 0 169 45q63 48 63 121
q0 76 -63 114q-38 23 -182 67q-178 54 -226 83q-127 76 -127 210q0 130 99 207q105 79 267 79zM714 1347l-281 -211h-144l252 286z" />
    <glyph glyph-name="Scircumflex" unicode="&#x15c;" horiz-adv-x="1252" 
d="M642 1445q256 3 480 -179l-111 -133q-165 155 -366 155q-149 0 -223 -66q-69 -58 -69 -162q0 -97 85 -149q74 -46 253 -98q206 -57 298 -122q163 -118 163 -306t-150 -303q-143 -107 -360 -107q-302 0 -542 202l111 133q197 -177 437 -177q153 0 234 61q87 69 87 182
q-1 107 -90 168q-70 47 -246 98q-216 61 -299 116q-165 114 -165 294q0 174 129 283q130 110 344 110zM539 1835h203l251 -285h-142l-210 158l-210 -158h-143z" />
    <glyph glyph-name="scircumflex" unicode="&#x15d;" horiz-adv-x="1002" 
d="M511 1034q204 0 372 -140l-89 -114q-127 121 -283 121q-99 0 -156 -45q-48 -38 -48 -105q0 -64 61 -102q44 -25 184 -67q160 -47 226 -89q124 -79 124 -219q0 -134 -114 -220q-108 -79 -277 -79q-235 0 -411 159l93 114q140 -140 318 -140q108 0 169 45q63 48 63 121
q0 76 -63 114q-38 23 -182 67q-178 54 -226 83q-127 76 -127 210q0 130 99 207q105 79 267 79zM406 1421h203l251 -285h-142l-210 158l-210 -158h-143z" />
    <glyph glyph-name="Scedilla" unicode="&#x15e;" horiz-adv-x="1252" 
d="M683 -24l-87 -173q33 14 72 14q68 0 114 -43q47 -44 47 -117q0 -78 -61 -132q-60 -54 -158 -54q-85 0 -149 33l45 91q52 -26 104 -26q54 0 84 25q31 25 31 63q0 34 -29 58q-28 24 -68 24q-58 0 -99 -36l-71 33l121 241q-264 19 -479 200l111 133q197 -177 437 -177
q153 0 234 61q87 69 87 182q-1 107 -90 168q-70 47 -246 98q-216 61 -299 116q-165 114 -165 294q0 174 129 283q130 110 344 110q256 3 480 -179l-111 -133q-165 155 -366 155q-149 0 -223 -66q-69 -58 -69 -162q0 -97 85 -149q74 -46 253 -98q206 -57 298 -122
q163 -118 163 -306t-150 -303q-129 -97 -319 -106z" />
    <glyph glyph-name="scedilla" unicode="&#x15f;" horiz-adv-x="1002" 
d="M548 -24l-87 -173q33 14 72 14q68 0 114 -43q47 -44 47 -117q0 -78 -61 -132q-60 -54 -158 -54q-85 0 -149 33l45 91q52 -26 104 -26q54 0 84 25q31 25 31 63q0 34 -29 58q-28 24 -68 24q-58 0 -99 -36l-71 33l122 242q-194 20 -345 156l93 114q140 -140 318 -140
q108 0 169 45q63 48 63 121q0 76 -63 114q-38 23 -182 67q-178 54 -226 83q-127 76 -127 210q0 130 99 207q105 79 267 79q204 0 372 -140l-89 -114q-127 121 -283 121q-99 0 -156 -45q-48 -38 -48 -105q0 -64 61 -102q44 -25 184 -67q160 -47 226 -89q124 -79 124 -219
q0 -134 -114 -220q-96 -70 -240 -78z" />
    <glyph glyph-name="Scaron" unicode="&#x160;" horiz-adv-x="1252" 
d="M642 1445q256 3 480 -179l-111 -133q-165 155 -366 155q-149 0 -223 -66q-69 -58 -69 -162q0 -97 85 -149q74 -46 253 -98q206 -57 298 -122q163 -118 163 -306t-150 -303q-143 -107 -360 -107q-302 0 -542 202l111 133q197 -177 437 -177q153 0 234 61q87 69 87 182
q-1 107 -90 168q-70 47 -246 98q-216 61 -299 116q-165 114 -165 294q0 174 129 283q130 110 344 110zM744 1550h-203l-251 285h142l210 -158l210 158h143z" />
    <glyph glyph-name="scaron" unicode="&#x161;" horiz-adv-x="1002" 
d="M511 1034q204 0 372 -140l-89 -114q-127 121 -283 121q-99 0 -156 -45q-48 -38 -48 -105q0 -64 61 -102q44 -25 184 -67q160 -47 226 -89q124 -79 124 -219q0 -134 -114 -220q-108 -79 -277 -79q-235 0 -411 159l93 114q140 -140 318 -140q108 0 169 45q63 48 63 121
q0 76 -63 114q-38 23 -182 67q-178 54 -226 83q-127 76 -127 210q0 130 99 207q105 79 267 79zM609 1136h-203l-251 285h142l210 -158l210 158h143z" />
    <glyph glyph-name="Tcedilla" unicode="&#x162;" horiz-adv-x="1217" 
d="M660 0l-91 -179q33 14 72 14q68 0 114 -43q47 -44 47 -117q0 -78 -61 -132q-60 -54 -158 -54q-85 0 -149 33l45 91q52 -26 104 -26q54 0 84 25q31 25 31 63q0 34 -29 58q-28 24 -68 24q-58 0 -99 -36l-71 33l124 245l-30 1v1281h-465v137h1097v-137h-467v-1281h-30z" />
    <glyph glyph-name="tcedilla" unicode="&#x163;" horiz-adv-x="745" 
d="M485 -25l-84 -168q33 14 72 14q68 0 114 -43q47 -44 47 -117q0 -78 -61 -132q-60 -54 -158 -54q-85 0 -149 33l45 91q52 -26 104 -26q54 0 84 25q31 25 31 63q0 34 -29 58q-28 24 -68 24q-58 0 -99 -36l-71 33l124 245q-61 18 -103 60q-70 70 -70 191v639h-134v134h134
v321h159v-321h185v-134h-185v-659q0 -51 32 -83q32 -31 86 -31q60 0 114 48l80 -99q-93 -72 -200 -76z" />
    <glyph glyph-name="Tcaron" unicode="&#x164;" horiz-adv-x="1217" 
d="M60 1418h1097v-137h-467v-1281h-165v1281h-465v137zM704 1520h-203l-251 285h142l210 -158l210 158h143z" />
    <glyph glyph-name="tcaron" unicode="&#x165;" horiz-adv-x="745" 
d="M214 1330h159v-321h185v-134h-185v-659q0 -51 32 -82.5t86 -31.5q60 0 114 48l80 -99q-99 -76 -213 -76q-118 0 -188 70t-70 191v639h-134v134h134v321zM392 1432h-203l-251 285h142l210 -158l210 158h143z" />
    <glyph glyph-name="Utilde" unicode="&#x168;" horiz-adv-x="1398" 
d="M130 1418h165v-893q0 -181 109.5 -292t291 -111t292.5 111t111 292v893h169v-886q0 -261 -154 -409t-418 -148t-415 148t-151 409v886zM575 1743q66 0 159 -56q60 -36 92 -36q58 0 102 62l110 -71q-45 -60 -97.5 -91t-114.5 -31q-69 0 -159 54q-62 38 -92 38
q-58 0 -103 -62l-111 71q47 59 99 91t115 31z" />
    <glyph glyph-name="utilde" unicode="&#x169;" horiz-adv-x="1170" 
d="M130 1009h159v-624q0 -124 67 -202t187 -78q131 0 229.5 92.5t98.5 251.5v560h159v-1009h-159v140q-152 -165 -358 -165q-163 0 -273 108q-110 109 -110 293v633zM456 1334q66 0 159 -56q60 -36 92 -36q58 0 102 62l110 -71q-45 -60 -97.5 -91t-114.5 -31q-69 0 -159 54
q-62 38 -92 38q-58 0 -103 -62l-111 71q47 59 99 91t115 31z" />
    <glyph glyph-name="Umacron" unicode="&#x16a;" horiz-adv-x="1398" 
d="M130 1418h165v-893q0 -181 109.5 -292t291 -111t292.5 111t111 292v893h169v-886q0 -261 -154 -409t-418 -148t-415 148t-151 409v886zM335 1654v-134h729v134h-729z" />
    <glyph glyph-name="umacron" unicode="&#x16b;" horiz-adv-x="1170" 
d="M130 1009h159v-624q0 -124 67 -202t187 -78q131 0 229.5 92.5t98.5 251.5v560h159v-1009h-159v140q-152 -165 -358 -165q-163 0 -273 108q-110 109 -110 293v633zM216 1245v-134h729v134h-729z" />
    <glyph glyph-name="Ubreve" unicode="&#x16c;" horiz-adv-x="1398" 
d="M130 1418h165v-893q0 -181 109.5 -292t291 -111t292.5 111t111 292v893h169v-886q0 -261 -154 -409t-418 -148t-415 148t-151 409v886zM696 1646q92 0 148 57.5t56 149.5h143q0 -145 -98 -239.5t-249 -94.5t-248.5 94.5t-97.5 239.5h142q0 -92 56.5 -149.5t147.5 -57.5z
" />
    <glyph glyph-name="ubreve" unicode="&#x16d;" horiz-adv-x="1170" 
d="M130 1009h159v-624q0 -124 67 -202t187 -78q131 0 229.5 92.5t98.5 251.5v560h159v-1009h-159v140q-152 -165 -358 -165q-163 0 -273 108q-110 109 -110 293v633zM580 1237q92 0 148 57.5t56 149.5h143q0 -145 -98 -239.5t-249 -94.5t-248.5 94.5t-97.5 239.5h142
q0 -92 56.5 -149.5t147.5 -57.5z" />
    <glyph glyph-name="Uring" unicode="&#x16e;" horiz-adv-x="1398" 
d="M130 1418h165v-893q0 -181 109.5 -292t291 -111t292.5 111t111 292v893h169v-886q0 -261 -154 -409t-418 -148t-415 148t-151 409v886zM684 1817q-48 0 -81.5 -35t-33.5 -82q0 -48 33.5 -81t81.5 -33t81.5 33t33.5 81q0 47 -33.5 82t-81.5 35zM684 1933q47 0 89 -18.5
t73.5 -50.5t50 -74t18.5 -90q0 -49 -18.5 -92t-50 -74.5t-73.5 -49.5t-89 -18q-48 0 -90 18t-73 49.5t-48.5 74.5t-17.5 92q0 48 17.5 90t48.5 74t73 50.5t90 18.5z" />
    <glyph glyph-name="uring" unicode="&#x16f;" horiz-adv-x="1170" 
d="M130 1009h159v-624q0 -124 67 -202t187 -78q131 0 229.5 92.5t98.5 251.5v560h159v-1009h-159v140q-152 -165 -358 -165q-163 0 -273 108q-110 109 -110 293v633zM580 1462q-48 0 -81.5 -35t-33.5 -82q0 -48 33.5 -81t81.5 -33t81.5 33t33.5 81q0 47 -33.5 82t-81.5 35z
M580 1578q47 0 89 -18.5t73.5 -50.5t50 -74t18.5 -90q0 -49 -18.5 -92t-50 -74.5t-73.5 -49.5t-89 -18q-48 0 -90 18t-73 49.5t-48.5 74.5t-17.5 92q0 48 17.5 90t48.5 74t73 50.5t90 18.5z" />
    <glyph glyph-name="Udblacute" unicode="&#x170;" horiz-adv-x="1398" 
d="M130 1418h165v-893q0 -181 109.5 -292t291 -111t292.5 111t111 292v893h169v-886q0 -261 -154 -409t-418 -148t-415 148t-151 409v886zM721 1731l-281 -211h-144l252 286zM1102 1731l-281 -211h-144l252 286z" />
    <glyph glyph-name="udblacute" unicode="&#x171;" horiz-adv-x="1170" 
d="M130 1009h159v-624q0 -124 67 -202t187 -78q131 0 229.5 92.5t98.5 251.5v560h159v-1009h-159v140q-152 -165 -358 -165q-163 0 -273 108q-110 109 -110 293v633zM602 1322l-281 -211h-144l252 286zM983 1322l-281 -211h-144l252 286z" />
    <glyph glyph-name="Uogonek" unicode="&#x172;" horiz-adv-x="1398" 
d="M888 -2q-257 -186 -257 -317q0 -46 30 -78q30 -33 79 -33q67 0 116 78l78 -68q-86 -115 -203 -115q-107 0 -164 58q-57 56 -57 147q0 156 199 305h-13q-264 0 -415 148t-151 409v886h165v-893q0 -181 110 -292q109 -111 291 -111q181 0 292 111t111 292v893h169v-886
q0 -261 -154 -409q-93 -89 -226 -125z" />
    <glyph glyph-name="uogonek" unicode="&#x173;" horiz-adv-x="1205" 
d="M871 0v140q-152 -165 -358 -165q-163 0 -273 108q-110 109 -110 293v633h159v-624q0 -124 67 -202t187 -78q131 0 229 92q99 93 99 252v560h159v-1009q-268 -191 -268 -325q0 -46 30 -78q30 -33 79 -33q67 0 116 78l78 -68q-86 -115 -203 -115q-107 0 -164 58
q-57 56 -57 147q0 172 242 336h-12z" />
    <glyph glyph-name="Wcircumflex" unicode="&#x174;" horiz-adv-x="2047" 
d="M30 1418h174l369 -1202l356 1202h188l359 -1202l369 1202h172l-436 -1418h-194l-362 1227l-366 -1227h-194zM923 1805h203l251 -285h-142l-210 158l-210 -158h-143z" />
    <glyph glyph-name="wcircumflex" unicode="&#x175;" horiz-adv-x="1553" 
d="M30 1009h166l245 -799l258 799h156l257 -799l246 799h165l-312 -1009h-169l-264 824l-264 -824h-172zM675 1396h203l251 -285h-142l-210 158l-210 -158h-143z" />
    <glyph glyph-name="Ycircumflex" unicode="&#x176;" horiz-adv-x="1313" 
d="M30 1418h201l426 -639l426 639h200l-544 -788v-630h-165v630zM555 1805h203l251 -285h-142l-210 158l-210 -158h-143z" />
    <glyph glyph-name="ycircumflex" unicode="&#x177;" horiz-adv-x="1171" 
d="M130 1009h159v-624q0 -127 65.5 -203.5t186.5 -76.5q130 0 230.5 92.5t100.5 251.5v560h159v-1022q0 -191 -136 -307q-137 -116 -353 -116q-232 0 -412 115l73 130q169 -102 341 -102q153 0 240 73q88 74 88 188v172q-147 -165 -357 -165q-162 0 -273.5 108t-111.5 293
v633zM479 1396h203l251 -285h-142l-210 158l-210 -158h-143z" />
    <glyph glyph-name="Ydieresis" unicode="&#x178;" horiz-adv-x="1313" 
d="M30 1418h201l426 -639l426 639h200l-544 -788v-630h-165v630zM847 1730q-45 0 -76 -31q-30 -30 -31 -74q1 -43 31 -74q31 -31 76 -31q43 0 74 30q32 31 32 75q-1 43 -31 73q-32 32 -75 32zM466 1730q-45 0 -76 -31q-30 -30 -31 -74q1 -43 31 -74q31 -31 76 -31
q43 0 74 30q32 31 32 75q-1 43 -31 73q-32 32 -75 32z" />
    <glyph glyph-name="Zacute" unicode="&#x179;" horiz-adv-x="1306" 
d="M135 1418h1055v-118l-865 -1151h881v-149h-1106v121l861 1148h-826v149zM866 1731l-281 -211h-144l252 286z" />
    <glyph glyph-name="zacute" unicode="&#x17a;" horiz-adv-x="1024" 
d="M129 1009h783v-115l-599 -760h611v-134h-824v112l598 763h-569v134zM725 1322l-281 -211h-144l252 286z" />
    <glyph glyph-name="Zdot" unicode="&#x17b;" horiz-adv-x="1306" 
d="M599 1727q-45 0 -76 -31q-30 -30 -31 -74q1 -43 31 -74q31 -31 76 -31q43 0 74 30q32 31 32 75q-1 43 -31 73q-32 32 -75 32zM135 1418h1055v-118l-865 -1151h881v-149h-1106v121l861 1148h-826v149z" />
    <glyph glyph-name="zdot" unicode="&#x17c;" horiz-adv-x="1024" 
d="M500 1318q-45 0 -76 -31q-30 -30 -31 -74q1 -43 31 -74q31 -31 76 -31q43 0 74 30q32 31 32 75q-1 43 -31 73q-32 32 -75 32zM129 1009h783v-115l-599 -760h611v-134h-824v112l598 763h-569v134z" />
    <glyph glyph-name="Zcaron" unicode="&#x17d;" horiz-adv-x="1306" 
d="M135 1418h1055v-118l-865 -1151h881v-149h-1106v121l861 1148h-826v149zM755 1520h-203l-251 285h142l210 -158l210 158h143z" />
    <glyph glyph-name="zcaron" unicode="&#x17e;" horiz-adv-x="1024" 
d="M129 1009h783v-115l-599 -760h611v-134h-824v112l598 763h-569v134zM614 1111h-203l-251 285h142l210 -158l210 158h143z" />
    <glyph glyph-name="longs" unicode="&#x17f;" horiz-adv-x="661" 
d="M289 0h-159v1184q0 121 70 191t188 70q111 0 213 -80l-80 -95q-54 48 -114 48q-54 0 -86 -32t-32 -83v-1203z" />
    <glyph glyph-name="DZcaron" unicode="&#x1c4;" horiz-adv-x="2666" 
d="M140 1418h506q305 0 507 -192.5t202 -516.5t-202 -516.5t-507 -192.5h-506v1418zM306 1281v-1144h302q245 0 408.5 157t163.5 415t-163.5 415t-408.5 157h-302zM1495 1418h1055v-118l-865 -1151h881v-149h-1106v121l861 1148h-826v149zM2115 1520h-203l-251 285h142
l210 -158l210 158h143z" />
    <glyph glyph-name="Dzcaron" unicode="&#x1c5;" horiz-adv-x="2390" 
d="M140 1418h506q305 0 507 -192.5t202 -516.5t-202 -516.5t-507 -192.5h-506v1418zM306 1281v-1144h302q245 0 408.5 157t163.5 415t-163.5 415t-408.5 157h-302zM1495 1009h783v-115l-599 -760h611v-134h-824v112l598 763h-569v134zM1980 1111h-203l-251 285h142l210 -158
l210 158h143z" />
    <glyph glyph-name="dzcaron" unicode="&#x1c6;" horiz-adv-x="2170" 
d="M956 1418h159v-1418h-159v134q-153 -159 -366 -159t-351 149q-139 150 -139 379t138.5 380t351.5 151t366 -159v543zM364 792q-99 -111 -99 -289t99 -288t255 -110t254.5 110t98.5 288t-98.5 289.5t-254.5 111.5t-255 -112zM1275 1009h783v-115l-599 -760h611v-134h-824
v112l598 763h-569v134zM1760 1111h-203l-251 285h142l210 -158l210 158h143z" />
    <glyph glyph-name="LJ" unicode="&#x1c7;" horiz-adv-x="1957" 
d="M1661 1418h166v-1027q0 -174 -104.5 -287.5t-297.5 -113.5q-210 0 -321 149l104 125q87 -125 217 -125q114 0 175 76q61 77 61 197v1006zM140 1418h166v-1281h668v-137h-834v1418z" />
    <glyph glyph-name="Lj" unicode="&#x1c8;" horiz-adv-x="1546" 
d="M140 1418h166v-1281h668v-137h-834v1418zM1206 1009h159v-1184q0 -121 -70 -191t-188 -70q-111 0 -213 80l80 95q54 -48 114 -48q54 0 86 32t32 83v1203zM1286 1376q-50 0 -85 -35q-34 -34 -35 -83q1 -50 35 -84q35 -35 85 -35q48 0 84 34t36 85q-1 48 -35 82
q-37 36 -85 36z" />
    <glyph glyph-name="lj" unicode="&#x1c9;" horiz-adv-x="991" 
d="M140 1418h159v-1418h-159v1418zM651 1009h159v-1184q0 -121 -70 -191t-188 -70q-111 0 -213 80l80 95q54 -48 114 -48q54 0 86 32t32 83v1203zM731 1376q-50 0 -85 -35q-34 -34 -35 -83q1 -50 35 -84q35 -35 85 -35q48 0 84 34t36 85q-1 48 -35 82q-37 36 -85 36z" />
    <glyph glyph-name="NJ" unicode="&#x1ca;" horiz-adv-x="2265" 
d="M140 1418h166l820 -1154v1154h166v-1418h-166l-820 1157v-1157h-166v1418zM1969 1418h166v-1027q0 -174 -104.5 -287.5t-297.5 -113.5q-210 0 -321 149l104 125q87 -125 217 -125q114 0 175 76q61 77 61 197v1006z" />
    <glyph glyph-name="Nj" unicode="&#x1cb;" horiz-adv-x="1944" 
d="M140 1418h166l820 -1154v1154h166v-1418h-166l-820 1157v-1157h-166v1418zM1604 1009h159v-1184q0 -121 -70 -191t-188 -70q-111 0 -213 80l80 95q54 -48 114 -48q54 0 86 32t32 83v1203zM1684 1376q-50 0 -85 -35q-34 -34 -35 -83q1 -50 35 -84q35 -35 85 -35
q48 0 84 34t36 85q-1 48 -35 82q-37 36 -85 36z" />
    <glyph glyph-name="nj" unicode="&#x1cc;" horiz-adv-x="1692" 
d="M657 1034q164 0 274 -108q109 -109 109 -293v-633h-159v624q0 124 -66.5 202t-187.5 78q-131 0 -229.5 -92.5t-98.5 -251.5v-560h-159v1009h159v-140q152 165 358 165zM1352 1009h159v-1184q0 -121 -70 -191t-188 -70q-111 0 -213 80l80 95q54 -48 114 -48q54 0 86 32
t32 83v1203zM1432 1376q-50 0 -85 -35q-34 -34 -35 -83q1 -50 35 -84q35 -35 85 -35q48 0 84 34t36 85q-1 48 -35 82q-37 36 -85 36z" />
    <glyph glyph-name="Acaron" unicode="&#x1cd;" horiz-adv-x="1402" 
d="M624 1418h156l592 -1418h-178l-153 372h-680l-150 -372h-181zM701 1208l-283 -696h569zM803 1520h-203l-251 285h142l210 -158l210 158h143z" />
    <glyph glyph-name="acaron" unicode="&#x1ce;" 
d="M726 1135h-203l-251 285h142l210 -158l210 158h143zM956 1009h159v-1009h-159v134q-153 -159 -366 -159t-351 149q-139 150 -139 379t138.5 380t351.5 151t366 -159v134zM364 792q-99 -111 -99 -289t99 -288t255 -110t254.5 110t98.5 288t-98.5 289.5t-254.5 111.5
t-255 -112z" />
    <glyph glyph-name="Icaron" unicode="&#x1cf;" horiz-adv-x="447" 
d="M140 1418h166v-1418h-166v1418zM325 1520h-203l-251 285h142l210 -158l210 158h143z" />
    <glyph glyph-name="icaron" unicode="&#x1d0;" horiz-adv-x="441" 
d="M140 1009h160v-1009h-160v1009zM322 1111h-203l-251 285h142l210 -158l210 158h143z" />
    <glyph glyph-name="Ocaron" unicode="&#x1d1;" horiz-adv-x="1608" 
d="M1310 1234q198 -208 198 -526t-199.5 -525.5t-504 -207.5t-504.5 207.5t-200 525.5t200 527.5t504.5 209.5t505.5 -211zM279 708q0 -253 146 -412q145 -159 379 -159t379.5 159t145.5 412t-145 412t-380 159q-239 0 -382 -159t-143 -412zM906 1547h-203l-251 285h142
l210 -158l210 158h143z" />
    <glyph glyph-name="ocaron" unicode="&#x1d2;" horiz-adv-x="1215" 
d="M972 882q143 -150 143 -379t-145 -378.5t-364.5 -149.5t-362.5 149.5t-143 378.5t143 380t362.5 151t366.5 -152zM361 792q-96 -111 -96 -289t94 -288t246.5 -110t248 110t95.5 288t-95.5 289.5t-248 111.5t-244.5 -112zM710 1136h-203l-251 285h142l210 -158l210 158
h143z" />
    <glyph glyph-name="Ucaron" unicode="&#x1d3;" horiz-adv-x="1398" 
d="M130 1418h165v-893q0 -181 109.5 -292t291 -111t292.5 111t111 292v893h169v-886q0 -261 -154 -409t-418 -148t-415 148t-151 409v886zM801 1520h-203l-251 285h142l210 -158l210 158h143z" />
    <glyph glyph-name="ucaron" unicode="&#x1d4;" horiz-adv-x="1170" 
d="M130 1009h159v-624q0 -124 67 -202t187 -78q131 0 229.5 92.5t98.5 251.5v560h159v-1009h-159v140q-152 -165 -358 -165q-163 0 -273 108q-110 109 -110 293v633zM682 1111h-203l-251 285h142l210 -158l210 158h143z" />
    <glyph glyph-name="Gcaron" unicode="&#x1e6;" horiz-adv-x="1567" 
d="M803 1442q191 0 340 -88t233 -240l-159 -71q-132 237 -414 237q-234 0 -379 -160t-145 -413.5t145 -412t379 -158.5q217 0 348 138.5t148 364.5h-532v139h697q3 -37 3 -68q0 -324 -181 -529q-182 -206 -483 -206q-304 0 -503.5 208.5t-199.5 526.5t199.5 525t503.5 207z
M898 1544h-203l-251 285h142l210 -158l210 158h143z" />
    <glyph glyph-name="gcaron" unicode="&#x1e7;" horiz-adv-x="1259" 
d="M634 1035q214 0 366 -159v134h159v-1022q0 -191 -137 -307t-367 -116q-255 0 -448 114l73 134q199 -105 379 -105q165 0 253 71q88 72 88 190v165q-152 -159 -366 -159t-354 151q-140 152 -140 381t140 378.5t354 149.5zM662 904q-159 0 -257.5 -111t-98.5 -286
q0 -179 100 -290t256 -111t254.5 111t98.5 289.5t-98.5 288t-254.5 109.5zM731 1137h-203l-251 285h142l210 -158l210 158h143z" />
    <glyph glyph-name="Kcaron" unicode="&#x1e8;" horiz-adv-x="1185" 
d="M140 1418h166v-668l611 668h226l-608 -645l620 -773h-209l-516 658l-124 -133v-525h-166v1418zM678 1520h-203l-251 285h142l210 -158l210 158h143z" />
    <glyph glyph-name="kcaron" unicode="&#x1e9;" horiz-adv-x="1035" 
d="M140 1418h159v-902l484 493h219l-458 -452l461 -557h-203l-363 452l-140 -140v-312h-159v1418zM674 1521h-203l-251 285h142l210 -158l210 158h143z" />
    <glyph glyph-name="Oogonek" unicode="&#x1ea;" horiz-adv-x="1608" 
d="M279 708q0 -253 146 -412q145 -159 379 -159t379.5 159t145.5 412t-145 412t-380 159q-239 0 -382 -159t-143 -412zM985 -5q-263 -189 -263 -321q0 -46 30 -78q30 -33 79 -33q67 0 116 78l78 -68q-86 -115 -203 -115q-107 0 -164 58q-57 56 -57 147q0 159 208 312h-5
q-304 0 -504 208q-200 207 -200 525t200 528q200 209 505 209q304 0 505 -211q198 -208 198 -526t-200 -526q-136 -142 -323 -187z" />
    <glyph glyph-name="oogonek" unicode="&#x1eb;" horiz-adv-x="1215" 
d="M361 792q-96 -111 -96 -289t94 -288t246.5 -110t248 110t95.5 288t-95.5 289.5t-248 111.5t-244.5 -112zM768 -2q-267 -191 -267 -324q0 -46 30 -78q30 -33 79 -33q67 0 116 78l78 -68q-86 -115 -203 -115q-107 0 -164 58q-57 56 -57 147q0 159 207 312q-207 6 -344 150
q-143 149 -143 378t143 380t363 151q219 0 366 -152q143 -150 143 -379t-145 -379q-88 -90 -202 -126z" />
    <glyph glyph-name="jcaron" unicode="&#x1f0;" horiz-adv-x="661" 
d="M362 1009h159v-1184q0 -121 -70 -191t-188 -70q-111 0 -213 80l80 95q54 -48 114 -48q54 0 86 32t32 83v1203zM544 1112h-203l-251 285h142l210 -158l210 158h143z" />
    <glyph glyph-name="DZ" unicode="&#x1f1;" horiz-adv-x="2666" 
d="M140 1418h506q305 0 507 -192.5t202 -516.5t-202 -516.5t-507 -192.5h-506v1418zM306 1281v-1144h302q245 0 408.5 157t163.5 415t-163.5 415t-408.5 157h-302zM1495 1418h1055v-118l-865 -1151h881v-149h-1106v121l861 1148h-826v149z" />
    <glyph glyph-name="Dz" unicode="&#x1f2;" horiz-adv-x="2390" 
d="M140 1418h506q305 0 507 -192.5t202 -516.5t-202 -516.5t-507 -192.5h-506v1418zM306 1281v-1144h302q245 0 408.5 157t163.5 415t-163.5 415t-408.5 157h-302zM1495 1009h783v-115l-599 -760h611v-134h-824v112l598 763h-569v134z" />
    <glyph glyph-name="dz" unicode="&#x1f3;" horiz-adv-x="2170" 
d="M956 1418h159v-1418h-159v134q-153 -159 -366 -159t-351 149q-139 150 -139 379t138.5 380t351.5 151t366 -159v543zM364 792q-99 -111 -99 -289t99 -288t255 -110t254.5 110t98.5 288t-98.5 289.5t-254.5 111.5t-255 -112zM1275 1009h783v-115l-599 -760h611v-134h-824
v112l598 763h-569v134z" />
    <glyph glyph-name="Gacute" unicode="&#x1f4;" horiz-adv-x="1567" 
d="M803 1442q191 0 340 -88t233 -240l-159 -71q-132 237 -414 237q-234 0 -379 -160t-145 -413.5t145 -412t379 -158.5q217 0 348 138.5t148 364.5h-532v139h697q3 -37 3 -68q0 -324 -181 -529q-182 -206 -483 -206q-304 0 -503.5 208.5t-199.5 526.5t199.5 525t503.5 207z
M997 1755l-281 -211h-144l252 286z" />
    <glyph glyph-name="gacute" unicode="&#x1f5;" horiz-adv-x="1259" 
d="M634 1035q214 0 366 -159v134h159v-1022q0 -191 -137.5 -307t-366.5 -116q-270 0 -448 114l73 134q199 -105 379 -105q165 0 253 71q88 72 88 190v165q-152 -159 -366 -159t-354 151q-140 152 -140 381t140 378.5t354 149.5zM662 904q-159 0 -257.5 -111t-98.5 -286
q0 -179 100 -290t256 -111t254.5 111t98.5 289.5t-98.5 288t-254.5 109.5zM863 1348l-281 -211h-144l252 286z" />
    <glyph glyph-name="Adblgrave" unicode="&#x200;" horiz-adv-x="1402" 
d="M624 1418h156l592 -1418h-178l-153 372h-680l-150 -372h-181zM701 1208l-283 -696h569zM639 1731l173 75l252 -286h-144zM258 1731l173 75l252 -286h-144z" />
    <glyph glyph-name="adblgrave" unicode="&#x201;" 
d="M602 1346l173 75l252 -286h-144zM221 1346l173 75l252 -286h-144zM956 1009h159v-1009h-159v134q-153 -159 -366 -159t-351 149q-139 150 -139 379t138.5 380t351.5 151t366 -159v134zM364 792q-99 -111 -99 -289t99 -288t255 -110t254.5 110t98.5 288t-98.5 289.5
t-254.5 111.5t-255 -112z" />
    <glyph glyph-name="Ainvertedbreve" unicode="&#x202;" horiz-adv-x="1402" 
d="M624 1418h156l592 -1418h-178l-153 372h-680l-150 -372h-181zM701 1208l-283 -696h569zM703 1726q-92 0 -148 -57.5t-56 -149.5h-143q0 145 98 239.5t249 94.5t248.5 -94.5t97.5 -239.5h-142q0 92 -56.5 149.5t-147.5 57.5z" />
    <glyph glyph-name="ainvertedbreve" unicode="&#x203;" 
d="M621 1341q-92 0 -148 -57.5t-56 -149.5h-143q0 145 98 239.5t249 94.5t248.5 -94.5t97.5 -239.5h-142q0 92 -56.5 149.5t-147.5 57.5zM956 1009h159v-1009h-159v134q-153 -159 -366 -159t-351 149q-139 150 -139 379t138.5 380t351.5 151t366 -159v134zM364 792
q-99 -111 -99 -289t99 -288t255 -110t254.5 110t98.5 288t-98.5 289.5t-254.5 111.5t-255 -112z" />
    <glyph glyph-name="Edblgrave" unicode="&#x204;" horiz-adv-x="1169" 
d="M140 1418h929v-137h-763v-477h699v-136h-699v-531h763v-137h-929v1418zM537 1731l173 75l252 -286h-144zM156 1731l173 75l252 -286h-144z" />
    <glyph glyph-name="edblgrave" unicode="&#x205;" horiz-adv-x="1193" 
d="M100 507q0 226 143 377t363 151q218 0 352 -148q135 -148 135 -380v-58h-827q3 -19 9 -51q29 -133 127.5 -212.5t235.5 -79.5q165 0 274 117l143 -66q-140 -182 -417 -182q-232 0 -385 151.5t-153 380.5zM374 809q-92 -95 -108 -248h681q-16 153 -108.5 248t-232.5 95
t-232 -95zM544 1348l173 75l252 -286h-144zM163 1348l173 75l252 -286h-144z" />
    <glyph glyph-name="Einvertedbreve" unicode="&#x206;" horiz-adv-x="1169" 
d="M140 1418h929v-137h-763v-477h699v-136h-699v-531h763v-137h-929v1418zM601 1726q-92 0 -148 -57.5t-56 -149.5h-143q0 145 98 239.5t249 94.5t248.5 -94.5t97.5 -239.5h-142q0 92 -56.5 149.5t-147.5 57.5z" />
    <glyph glyph-name="einvertedbreve" unicode="&#x207;" horiz-adv-x="1193" 
d="M100 507q0 226 143 377t363 151q218 0 352 -148q135 -148 135 -380v-58h-827q3 -19 9 -51q29 -133 127.5 -212.5t235.5 -79.5q165 0 274 117l143 -66q-140 -182 -417 -182q-232 0 -385 151.5t-153 380.5zM374 809q-92 -95 -108 -248h681q-16 153 -108.5 248t-232.5 95
t-232 -95zM606 1343q-92 0 -148 -57.5t-56 -149.5h-143q0 145 98 239.5t249 94.5t248.5 -94.5t97.5 -239.5h-142q0 92 -56.5 149.5t-147.5 57.5z" />
    <glyph glyph-name="Idblgrave" unicode="&#x208;" horiz-adv-x="446" 
d="M140 1418h166v-1418h-166v1418zM201 1731l173 75l252 -286h-144zM-180 1731l173 75l252 -286h-144z" />
    <glyph glyph-name="idblgrave" unicode="&#x209;" horiz-adv-x="440" 
d="M140 1009h160v-1009h-160v1009zM198 1322l173 75l252 -286h-144zM-183 1322l173 75l252 -286h-144z" />
    <glyph glyph-name="Iinvertedbreve" unicode="&#x20a;" horiz-adv-x="441" 
d="M140 1418h166v-1418h-166v1418zM221 1726q-92 0 -148 -57.5t-56 -149.5h-143q0 145 98 239.5t249 94.5t248.5 -94.5t97.5 -239.5h-142q0 92 -56.5 149.5t-147.5 57.5z" />
    <glyph glyph-name="iinvertedbreve" unicode="&#x20b;" horiz-adv-x="447" 
d="M140 1009h160v-1009h-160v1009zM224 1317q-92 0 -148 -57.5t-56 -149.5h-143q0 145 98 239.5t249 94.5t248.5 -94.5t97.5 -239.5h-142q0 92 -56.5 149.5t-147.5 57.5z" />
    <glyph glyph-name="Odblgrave" unicode="&#x20c;" horiz-adv-x="1608" 
d="M1310 1234q198 -208 198 -526t-199.5 -525.5t-504 -207.5t-504.5 207.5t-200 525.5t200 527.5t504.5 209.5t505.5 -211zM279 708q0 -253 146 -412q145 -159 379 -159t379.5 159t145.5 412t-145 412t-380 159q-239 0 -382 -159t-143 -412zM732 1758l173 75l252 -286h-144z
M351 1758l173 75l252 -286h-144z" />
    <glyph glyph-name="odblgrave" unicode="&#x20d;" horiz-adv-x="1215" 
d="M972 882q143 -150 143 -379t-145 -378.5t-364.5 -149.5t-362.5 149.5t-143 378.5t143 380t362.5 151t366.5 -152zM361 792q-96 -111 -96 -289t94 -288t246.5 -110t248 110t95.5 288t-95.5 289.5t-248 111.5t-244.5 -112zM541 1347l173 75l252 -286h-144zM160 1347l173 75
l252 -286h-144z" />
    <glyph glyph-name="Oinvertedbreve" unicode="&#x20e;" horiz-adv-x="1608" 
d="M1310 1234q198 -208 198 -526t-199.5 -525.5t-504 -207.5t-504.5 207.5t-200 525.5t200 527.5t504.5 209.5t505.5 -211zM279 708q0 -253 146 -412q145 -159 379 -159t379.5 159t145.5 412t-145 412t-380 159q-239 0 -382 -159t-143 -412zM802 1753q-92 0 -148 -57.5
t-56 -149.5h-143q0 145 98 239.5t249 94.5t248.5 -94.5t97.5 -239.5h-142q0 92 -56.5 149.5t-147.5 57.5z" />
    <glyph glyph-name="oinvertedbreve" unicode="&#x20f;" horiz-adv-x="1215" 
d="M972 882q143 -150 143 -379t-145 -378.5t-364.5 -149.5t-362.5 149.5t-143 378.5t143 380t362.5 151t366.5 -152zM361 792q-96 -111 -96 -289t94 -288t246.5 -110t248 110t95.5 288t-95.5 289.5t-248 111.5t-244.5 -112zM604 1342q-92 0 -148 -57.5t-56 -149.5h-143
q0 145 98 239.5t249 94.5t248.5 -94.5t97.5 -239.5h-142q0 92 -56.5 149.5t-147.5 57.5z" />
    <glyph glyph-name="Rdblgrave" unicode="&#x210;" horiz-adv-x="1239" 
d="M540 1731l173 75l252 -286h-144zM159 1731l173 75l252 -286h-144zM306 1281v-527h356q114 0 189 71.5t75 192t-75 192t-189 71.5h-356zM947 0l-375 617h-266v-617h-166v1418h557q172 0 288 -108t116 -293q0 -182 -116 -286q-94 -86 -225 -105l391 -626h-204z" />
    <glyph glyph-name="rdblgrave" unicode="&#x211;" horiz-adv-x="715" 
d="M649 1034h6v-181q-57 19 -127 19q-96 0 -162 -52q-67 -53 -67 -164v-656h-159v1009h159v-121q133 146 350 146zM376 1347l173 75l252 -286h-144zM-5 1347l173 75l252 -286h-144z" />
    <glyph glyph-name="Rinvertedbreve" unicode="&#x212;" horiz-adv-x="1239" 
d="M571 1726q-92 0 -148 -57.5t-56 -149.5h-143q0 145 98 239.5t249 94.5t248.5 -94.5t97.5 -239.5h-142q0 92 -56.5 149.5t-147.5 57.5zM306 1281v-527h356q114 0 189 71.5t75 192t-75 192t-189 71.5h-356zM947 0l-375 617h-266v-617h-166v1418h557q172 0 288 -108
t116 -293q0 -182 -116 -286q-94 -86 -225 -105l391 -626h-204z" />
    <glyph glyph-name="rinvertedbreve" unicode="&#x213;" horiz-adv-x="695" 
d="M609 1034h6v-181q-57 19 -127 19q-96 0 -162 -52q-67 -53 -67 -164v-656h-159v1009h159v-121q133 146 350 146zM354 1342q-92 0 -148 -57.5t-56 -149.5h-143q0 145 98 239.5t249 94.5t248.5 -94.5t97.5 -239.5h-142q0 92 -56.5 149.5t-147.5 57.5z" />
    <glyph glyph-name="Udblgrave" unicode="&#x214;" horiz-adv-x="1398" 
d="M130 1418h165v-893q0 -181 109.5 -292t291 -111t292.5 111t111 292v893h169v-886q0 -261 -154 -409t-418 -148t-415 148t-151 409v886zM642 1731l173 75l252 -286h-144zM261 1731l173 75l252 -286h-144z" />
    <glyph glyph-name="udblgrave" unicode="&#x215;" horiz-adv-x="1170" 
d="M130 1009h159v-624q0 -124 67 -202t187 -78q131 0 229.5 92.5t98.5 251.5v560h159v-1009h-159v140q-152 -165 -358 -165q-163 0 -273 108q-110 109 -110 293v633zM538 1322l173 75l252 -286h-144zM157 1322l173 75l252 -286h-144z" />
    <glyph glyph-name="Uinvertedbreve" unicode="&#x216;" horiz-adv-x="1398" 
d="M130 1418h165v-893q0 -181 109.5 -292t291 -111t292.5 111t111 292v893h169v-886q0 -261 -154 -409t-418 -148t-415 148t-151 409v886zM696 1726q-92 0 -148 -57.5t-56 -149.5h-143q0 145 98 239.5t249 94.5t248.5 -94.5t97.5 -239.5h-142q0 92 -56.5 149.5t-147.5 57.5z
" />
    <glyph glyph-name="uinvertedbreve" unicode="&#x217;" horiz-adv-x="1170" 
d="M130 1009h159v-624q0 -124 67 -202t187 -78q131 0 229.5 92.5t98.5 251.5v560h159v-1009h-159v140q-152 -165 -358 -165q-163 0 -273 108q-110 109 -110 293v633zM580 1317q-92 0 -148 -57.5t-56 -149.5h-143q0 145 98 239.5t249 94.5t248.5 -94.5t97.5 -239.5h-142
q0 92 -56.5 149.5t-147.5 57.5z" />
    <glyph glyph-name="Scommaaccent" unicode="&#x218;" horiz-adv-x="1252" 
d="M642 -125q65 0 104 -45.5t39 -118.5q0 -207 -197 -391l-75 65q131 130 148 230q-6 -1 -21 -1q-55 0 -94 37q-38 38 -38 94q0 53 39 91.5t95 38.5zM642 1445q256 3 480 -179l-111 -133q-165 155 -366 155q-149 0 -223 -66q-69 -58 -69 -162q0 -97 85 -149q74 -46 253 -98
q206 -57 298 -122q163 -118 163 -306t-150 -303q-143 -107 -360 -107q-302 0 -542 202l111 133q197 -177 437 -177q153 0 234 61q87 69 87 182q-1 107 -90 168q-70 47 -246 98q-216 61 -299 116q-165 114 -165 294q0 174 129 283q130 110 344 110z" />
    <glyph glyph-name="scommaaccent" unicode="&#x219;" horiz-adv-x="1002" 
d="M508 -125q65 0 104 -45.5t39 -118.5q0 -207 -197 -391l-75 65q131 130 148 230q-6 -1 -21 -1q-55 0 -94 37q-38 38 -38 94q0 53 39 91.5t95 38.5zM511 1034q204 0 372 -140l-89 -114q-127 121 -283 121q-99 0 -156 -45q-48 -38 -48 -105q0 -64 61 -102q44 -25 184 -67
q160 -47 226 -89q124 -79 124 -219q0 -134 -114 -220q-108 -79 -277 -79q-235 0 -411 159l93 114q140 -140 318 -140q108 0 169 45q63 48 63 121q0 76 -63 114q-38 23 -182 67q-178 54 -226 83q-127 76 -127 210q0 130 99 207q105 79 267 79z" />
    <glyph glyph-name="Tcommabelow" unicode="&#x21a;" horiz-adv-x="1217" 
d="M606 -100q65 0 104 -45.5t39 -118.5q0 -207 -197 -391l-75 65q131 130 148 230q-6 -1 -21 -1q-55 0 -94 37q-38 38 -38 94q0 53 39 91.5t95 38.5zM60 1418h1097v-137h-467v-1281h-165v1281h-465v137z" />
    <glyph glyph-name="tcommabelow" unicode="&#x21b;" horiz-adv-x="745" 
d="M414 -125q65 0 104 -45.5t39 -118.5q0 -207 -197 -391l-75 65q131 130 148 230q-6 -1 -21 -1q-55 0 -94 37q-38 38 -38 94q0 53 39 91.5t95 38.5zM214 1330h159v-321h185v-134h-185v-659q0 -51 32 -82.5t86 -31.5q60 0 114 48l80 -99q-99 -76 -213 -76q-118 0 -188 70
t-70 191v639h-134v134h134v321z" />
    <glyph glyph-name="Hcaron" unicode="&#x21e;" horiz-adv-x="1403" 
d="M140 1418h166v-614h791v614h166v-1418h-166v668h-791v-668h-166v1418zM804 1520h-203l-251 285h142l210 -158l210 158h143z" />
    <glyph glyph-name="hcaron" unicode="&#x21f;" horiz-adv-x="1172" 
d="M140 1418h160v-549q153 165 359 165q163 0 273 -108q110 -109 110 -293v-633h-160v624q0 124 -67 202t-188 78q-130 0 -228.5 -92.5t-98.5 -251.5v-560h-160v1418zM693 1521h-203l-251 285h142l210 -158l210 158h143z" />
    <glyph glyph-name="Adotabove" unicode="&#x226;" horiz-adv-x="1402" 
d="M624 1418h156l592 -1418h-178l-153 372h-680l-150 -372h-181zM701 1208l-283 -696h569zM702 1727q-45 0 -76 -31q-30 -30 -31 -74q1 -43 31 -74q31 -31 76 -31q43 0 74 30q32 31 32 75q-1 43 -31 73q-32 32 -75 32z" />
    <glyph glyph-name="adotabove" unicode="&#x227;" 
d="M590 1368q-45 0 -76 -31q-30 -30 -31 -74q1 -43 31 -74q31 -31 76 -31q43 0 74 30q32 31 32 75q-1 43 -31 73q-32 32 -75 32zM956 1009h159v-1009h-159v134q-153 -159 -366 -159t-351 149q-139 150 -139 379t138.5 380t351.5 151t366 -159v134zM364 792
q-99 -111 -99 -289t99 -288t255 -110t254.5 110t98.5 288t-98.5 289.5t-254.5 111.5t-255 -112z" />
    <glyph glyph-name="Ecedilla" unicode="&#x228;" horiz-adv-x="1169" 
d="M678 0l-90 -177q33 14 72 14q68 0 114 -43q47 -44 47 -117q0 -78 -61 -132q-60 -54 -158 -54q-85 0 -149 33l45 91q52 -26 104 -26q54 0 84 25q31 25 31 63q0 34 -29 58q-28 24 -68 24q-58 0 -99 -36l-71 33l123 243l-433 1v1418h929v-137h-763v-477h699v-136h-699v-531
h763v-137h-391z" />
    <glyph glyph-name="ecedilla" unicode="&#x229;" horiz-adv-x="1193" 
d="M374 809q-92 -95 -108 -248h681q-16 153 -108.5 248t-232.5 95t-232 -95zM671 -24l-87 -173q33 14 72 14q68 0 114 -43q47 -44 47 -117q0 -78 -61 -132q-60 -54 -158 -54q-85 0 -149 33l45 91q52 -26 104 -26q54 0 84 25q31 25 31 63q0 34 -29 58q-28 24 -68 24
q-58 0 -99 -36l-71 33l122 243q-186 19 -315 148q-153 151 -153 380q0 226 143 377t363 151q218 0 352 -148q135 -148 135 -380v-58h-827q3 -19 9 -51q29 -133 128 -213q98 -79 235 -79q165 0 274 117l143 -66q-132 -171 -384 -181z" />
    <glyph glyph-name="Odotabove" unicode="&#x22e;" horiz-adv-x="1608" 
d="M804 1752q-45 0 -76 -31q-30 -30 -31 -74q1 -43 31 -74q31 -31 76 -31q43 0 74 30q32 31 32 75q-1 43 -31 73q-32 32 -75 32zM1310 1234q198 -208 198 -526t-199.5 -525.5t-504 -207.5t-504.5 207.5t-200 525.5t200 527.5t504.5 209.5t505.5 -211zM279 708
q0 -253 146 -412q145 -159 379 -159t379.5 159t145.5 412t-145 412t-380 159q-239 0 -382 -159t-143 -412z" />
    <glyph glyph-name="odotabove" unicode="&#x22f;" horiz-adv-x="1215" 
d="M972 882q143 -150 143 -379t-145 -378.5t-364.5 -149.5t-362.5 149.5t-143 378.5t143 380t362.5 151t366.5 -152zM361 792q-96 -111 -96 -289t94 -288t246.5 -110t248 110t95.5 288t-95.5 289.5t-248 111.5t-244.5 -112zM606 1368q-45 0 -76 -31q-30 -30 -31 -74
q1 -43 31 -74q31 -31 76 -31q43 0 74 30q32 31 32 75q-1 43 -31 73q-32 32 -75 32z" />
    <glyph glyph-name="Ymacron" unicode="&#x232;" horiz-adv-x="1313" 
d="M30 1418h201l426 -639l426 639h200l-544 -788v-630h-165v630zM292 1654v-134h729v134h-729z" />
    <glyph glyph-name="ymacron" unicode="&#x233;" horiz-adv-x="1171" 
d="M130 1009h159v-624q0 -127 65.5 -203.5t186.5 -76.5q130 0 230.5 92.5t100.5 251.5v560h159v-1022q0 -191 -136 -307q-137 -116 -353 -116q-232 0 -412 115l73 130q169 -102 341 -102q153 0 240 73q88 74 88 188v172q-147 -165 -357 -165q-162 0 -273.5 108t-111.5 293
v633zM216 1245v-134h729v134h-729z" />
    <glyph glyph-name="circumflex" unicode="&#x2c6;" horiz-adv-x="705" 
d="M251 1728h203l251 -285h-142l-210 158l-210 -158h-143z" />
    <glyph glyph-name="circumflex" unicode="&#x302;" horiz-adv-x="705" 
d="M251 1728h203l251 -285h-142l-210 158l-210 -158h-143z" />
    <glyph glyph-name="caron" unicode="&#x2c7;" horiz-adv-x="705" 
d="M454 1442h-203l-251 285h142l210 -158l210 158h143z" />
    <glyph glyph-name="caron" unicode="&#x30c;" horiz-adv-x="705" 
d="M454 1442h-203l-251 285h142l210 -158l210 158h143z" />
    <glyph glyph-name="firsttonechinese" unicode="&#x2c9;" horiz-adv-x="729" 
d="M0 1577v-134h729v134h-729z" />
    <glyph glyph-name="firsttonechinese" unicode="&#x304;" horiz-adv-x="729" 
d="M0 1577v-134h729v134h-729z" />
    <glyph glyph-name="breve" unicode="&#x2d8;" horiz-adv-x="693" 
d="M346 1569q92 0 148 57.5t56 149.5h143q0 -145 -98 -239.5t-249 -94.5t-248.5 94.5t-97.5 239.5h142q0 -92 56.5 -149.5t147.5 -57.5z" />
    <glyph glyph-name="breve" unicode="&#x306;" horiz-adv-x="693" 
d="M346 1569q92 0 148 57.5t56 149.5h143q0 -145 -98 -239.5t-249 -94.5t-248.5 94.5t-97.5 239.5h142q0 -92 56.5 -149.5t147.5 -57.5z" />
    <glyph glyph-name="dotaccent" unicode="&#x2d9;" horiz-adv-x="213" 
d="M107 1727q-45 0 -76 -31q-30 -30 -31 -74q1 -43 31 -74q31 -31 76 -31q43 0 74 30q32 31 32 75q-1 43 -31 73q-32 32 -75 32z" />
    <glyph glyph-name="ring" unicode="&#x2da;" horiz-adv-x="462" 
d="M231 1794q-48 0 -81.5 -35t-33.5 -82q0 -48 33.5 -81t81.5 -33t81.5 33t33.5 81q0 47 -33.5 82t-81.5 35zM231 1910q47 0 89 -18.5t73.5 -50.5t50 -74t18.5 -90q0 -49 -18.5 -92t-50 -74.5t-73.5 -49.5t-89 -18q-48 0 -90 18t-73 49.5t-48.5 74.5t-17.5 92q0 48 17.5 90
t48.5 74t73 50.5t90 18.5z" />
    <glyph glyph-name="ring" unicode="&#x30a;" horiz-adv-x="462" 
d="M231 1794q-48 0 -81.5 -35t-33.5 -82q0 -48 33.5 -81t81.5 -33t81.5 33t33.5 81q0 47 -33.5 82t-81.5 35zM231 1910q47 0 89 -18.5t73.5 -50.5t50 -74t18.5 -90q0 -49 -18.5 -92t-50 -74.5t-73.5 -49.5t-89 -18q-48 0 -90 18t-73 49.5t-48.5 74.5t-17.5 92q0 48 17.5 90
t48.5 74t73 50.5t90 18.5z" />
    <glyph glyph-name="ogonek" unicode="&#x2db;" horiz-adv-x="380" 
d="M202 0h147q-269 -192 -269 -326q0 -46 30 -78q30 -33 79 -33q67 0 116 78l78 -68q-86 -115 -203 -115q-107 0 -164 58q-57 56 -57 147q0 172 243 337z" />
    <glyph glyph-name="ogonek" unicode="&#x328;" horiz-adv-x="380" 
d="M202 0h147q-269 -192 -269 -326q0 -46 30 -78q30 -33 79 -33q67 0 116 78l78 -68q-86 -115 -203 -115q-107 0 -164 58q-57 56 -57 147q0 172 243 337z" />
    <glyph glyph-name="tilde" unicode="&#x2dc;" horiz-adv-x="677" 
d="M214 1666q66 0 159 -56q60 -36 92 -36q58 0 102 62l110 -71q-45 -60 -97.5 -91t-114.5 -31q-69 0 -159 54q-62 38 -92 38q-58 0 -103 -62l-111 71q47 59 99 91t115 31z" />
    <glyph glyph-name="tilde" unicode="&#x303;" horiz-adv-x="677" 
d="M214 1666q66 0 159 -56q60 -36 92 -36q58 0 102 62l110 -71q-45 -60 -97.5 -91t-114.5 -31q-69 0 -159 54q-62 38 -92 38q-58 0 -103 -62l-111 71q47 59 99 91t115 31z" />
    <glyph glyph-name="hungarumlaut" unicode="&#x2dd;" horiz-adv-x="806" 
d="M425 1654l-281 -211h-144l252 286zM806 1654l-281 -211h-144l252 286z" />
    <glyph glyph-name="hungarumlaut" unicode="&#x30b;" horiz-adv-x="806" 
d="M425 1654l-281 -211h-144l252 286zM806 1654l-281 -211h-144l252 286z" />
    <glyph glyph-name="gravecmb" unicode="&#x300;" horiz-adv-x="425" 
d="M0 1654l173 75l252 -286h-144z" />
    <glyph glyph-name="dieresiscmb" unicode="&#x308;" horiz-adv-x="594" 
d="M488 1653q-45 0 -76 -31q-30 -30 -31 -74q1 -43 31 -74q31 -31 76 -31q43 0 74 30q32 31 32 75q-1 43 -31 73q-32 32 -75 32zM107 1653q-45 0 -76 -31q-30 -30 -31 -74q1 -43 31 -74q31 -31 76 -31q43 0 74 30q32 31 32 75q-1 43 -31 73q-32 32 -75 32z" />
    <glyph glyph-name="dblgravecmb" unicode="&#x30f;" horiz-adv-x="806" 
d="M381 1654l173 75l252 -286h-144zM0 1654l173 75l252 -286h-144z" />
    <glyph glyph-name="breveinvertedcmb" unicode="&#x311;" horiz-adv-x="692" 
d="M346 1649q-92 0 -148 -57.5t-56 -149.5h-142q0 145 97.5 239.5t248.5 94.5t248.5 -94.5t97.5 -239.5h-142q0 92 -56.5 149.5t-147.5 57.5z" />
    <glyph glyph-name="cedillacmb" unicode="&#x327;" horiz-adv-x="371" 
d="M125 0h104l-91 -181q33 14 72 14q68 0 114 -43q47 -44 47 -117q0 -78 -60.5 -132t-158.5 -54q-85 0 -149 33l45 91q52 -26 104 -26q54 0 84 25q31 25 31 63q0 34 -28.5 58t-68.5 24q-58 0 -99 -36l-71 33z" />
    <glyph glyph-name="uni1E9E" unicode="&#x1e9e;" horiz-adv-x="1401" 
d="M704 1418q-261 0 -412.5 -146t-151.5 -406v-866h164v870q0 180 109.5 289.5t290.5 109.5h266l-296 -368v-123h114q161 0 251.5 -87t90.5 -228t-96.5 -227.5t-261.5 -86.5h-327v-149h359q221 0 359 130.5t138 332.5q0 196 -127.5 312.5t-322.5 114.5l326 400v128h-473z
" />
    <glyph glyph-name="endash" unicode="&#x2013;" horiz-adv-x="1140" 
d="M120 642v-133h900v133h-900z" />
    <glyph glyph-name="emdash" unicode="&#x2014;" horiz-adv-x="1709" 
d="M120 642v-133h1469v133h-1469z" />
    <glyph glyph-name="quotesinglbase" unicode="&#x201a;" horiz-adv-x="437" 
d="M214 241q65 0 104 -45.5t39 -118.5q0 -207 -197 -391l-75 65q131 130 148 230q-6 -1 -21 -1q-55 0 -94 37q-38 38 -38 94q0 53 39 91.5t95 38.5z" />
    <glyph glyph-name="quotedblleft" unicode="&#x201c;" horiz-adv-x="809" 
d="M595 861q-65 0 -104 45.5t-39 118.5q0 207 197 391l75 -65q-131 -130 -148 -230q6 1 21 1q55 0 94 -37q38 -38 38 -94q0 -53 -39 -91.5t-95 -38.5zM223 861q-65 0 -104 45.5t-39 118.5q0 207 197 391l75 -65q-131 -130 -148 -230q6 1 21 1q55 0 94 -37q38 -38 38 -94
q0 -53 -39 -91.5t-95 -38.5z" />
    <glyph glyph-name="quotedblright" unicode="&#x201d;" horiz-adv-x="809" 
d="M214 1417q65 0 104 -45.5t39 -118.5q0 -207 -197 -391l-75 65q131 130 148 230q-6 -1 -21 -1q-55 0 -94 37q-38 38 -38 94q0 53 39 91.5t95 38.5zM586 1417q65 0 104 -45.5t39 -118.5q0 -207 -197 -391l-75 65q131 130 148 230q-6 -1 -21 -1q-55 0 -94 37q-38 38 -38 94
q0 53 39 91.5t95 38.5z" />
    <glyph glyph-name="quotedblbase" unicode="&#x201e;" horiz-adv-x="809" 
d="M214 241q65 0 104 -45.5t39 -118.5q0 -207 -197 -391l-75 65q131 130 148 230q-6 -1 -21 -1q-55 0 -94 37q-38 38 -38 94q0 53 39 91.5t95 38.5zM586 241q65 0 104 -45.5t39 -118.5q0 -207 -197 -391l-75 65q131 130 148 230q-6 -1 -21 -1q-55 0 -94 37q-38 38 -38 94
q0 53 39 91.5t95 38.5z" />
    <glyph glyph-name="dagger" unicode="&#x2020;" horiz-adv-x="960" 
d="M406 984l-5 434h158l-4 -434l325 5v-143l-325 5l5 -696h-159l5 696l-326 -5v143z" />
    <glyph glyph-name="daggerdbl" unicode="&#x2021;" horiz-adv-x="960" 
d="M406 984l-5 434h158l-4 -434l325 5v-143l-325 5v-696l325 5v-143l-325 5l4 -433h-158l5 433l-326 -5v143l326 -5v696l-326 -5v143z" />
    <glyph glyph-name="bullet" unicode="&#x2022;" horiz-adv-x="692" 
d="M346 971q-112 0 -188 -76t-78 -186q2 -108 78 -184q76 -78 188 -78q108 0 186 76q80 76 80 186q-2 108 -78 184q-80 78 -188 78z" />
    <glyph glyph-name="ellipsis" unicode="&#x2026;" horiz-adv-x="1858" 
d="M213 242q-56 0 -94 -38t-39 -93q1 -54 39 -92q38 -39 94 -39q54 0 93 38q40 38 40 93q-1 54 -39 92q-40 39 -94 39zM929 242q-56 0 -94 -38t-39 -93q1 -54 39 -92q38 -39 94 -39q54 0 93 38q40 38 40 93q-1 54 -39 92q-40 39 -94 39zM1645 242q-56 0 -94 -38t-39 -93
q1 -54 39 -92q38 -39 94 -39q54 0 93 38q40 38 40 93q-1 54 -39 92q-40 39 -94 39z" />
    <glyph glyph-name="perthousand" unicode="&#x2030;" horiz-adv-x="2519" 
d="M1242 1418h117l-916 -1418h-117zM435 1443q73 0 138.5 -28t114 -76t77.5 -113t29 -138q0 -75 -29 -140.5t-77.5 -114t-114 -76.5t-138.5 -28q-75 0 -139.5 28t-112.5 76.5t-75.5 114t-27.5 140.5q0 73 27.5 138t75.5 113t112.5 76t139.5 28zM435 1332q-51 0 -95.5 -19.5
t-77.5 -52.5t-52 -77.5t-19 -94.5q0 -51 19 -96t52 -78t77.5 -52t95.5 -19q50 0 94.5 19t77.5 52t52.5 78t19.5 96q0 50 -19.5 94.5t-52.5 77.5t-77.5 52.5t-94.5 19.5zM1251 689q73 0 138.5 -28t114 -76t77.5 -113t29 -138q0 -75 -29 -140.5t-77.5 -114t-114 -76.5
t-138.5 -28q-75 0 -139.5 28t-112.5 76.5t-75.5 114t-27.5 140.5q0 73 27.5 138t75.5 113t112.5 76t139.5 28zM1251 578q-51 0 -95.5 -19.5t-77.5 -52.5t-52 -77.5t-19 -94.5q0 -51 19 -96t52 -78t77.5 -52t95.5 -19q50 0 94.5 19t77.5 52t52.5 78t19.5 96q0 50 -19.5 94.5
t-52.5 77.5t-77.5 52.5t-94.5 19.5zM2080 689q73 0 138.5 -28t114 -76t77.5 -113t29 -138q0 -75 -29 -140.5t-77.5 -114t-114 -76.5t-138.5 -28q-75 0 -139.5 28t-112.5 76.5t-75.5 114t-27.5 140.5q0 73 27.5 138t75.5 113t112.5 76t139.5 28zM2080 578q-51 0 -95.5 -19.5
t-77.5 -52.5t-52 -77.5t-19 -94.5q0 -51 19 -96t52 -78t77.5 -52t95.5 -19q50 0 94.5 19t77.5 52t52.5 78t19.5 96q0 50 -19.5 94.5t-52.5 77.5t-77.5 52.5t-94.5 19.5z" />
    <glyph glyph-name="guilsinglleft" unicode="&#x2039;" horiz-adv-x="681" 
d="M269 505l332 -387h-193l-328 387l328 387h193z" />
    <glyph glyph-name="guilsinglright" unicode="&#x203a;" horiz-adv-x="681" 
d="M412 505l-332 387h193l328 -387l-328 -387h-193z" />
    <glyph glyph-name="fraction" unicode="&#x2044;" horiz-adv-x="1073" 
d="M936 1418h117l-916 -1418h-117z" />
    <glyph glyph-name="Euro" unicode="&#x20ac;" horiz-adv-x="1570" 
d="M250 468q49 -163 167 -286q199 -208 503 -208q392 0 590 318l-159 72q-145 -228 -431 -228q-233 0 -378 159q-69 76 -105 173h603v133h-636q-7 51 -7 106q0 56 7 108h636v133h-603q36 94 103 168q146 163 380 163q286 0 431 -228l159 72q-202 321 -590 321
q-304 0 -503 -209q-118 -124 -166 -287h-211v-133h185q-7 -52 -7 -107t6 -107h-184v-133h210z" />
    <glyph glyph-name="trademark" unicode="&#x2122;" horiz-adv-x="1250" 
d="M543 1418h90l204 -467l203 467h90v-567h-70v458l-199 -458h-49l-200 458v-458h-69v567zM40 1418h439v-58h-184v-509h-72v509h-183v58z" />
    <glyph glyph-name="approxequal" unicode="&#x2248;" horiz-adv-x="1159" 
d="M383 1085q98 0 237 -110q104 -84 158 -84q43 0 92 44t65.5 70.5t27.5 41.5l116 -59q-63 -116 -137.5 -173.5t-165.5 -57.5t-233 112q-101 79 -160 79q-46 0 -94.5 -42.5t-65.5 -68.5t-28 -42l-115 61q62 116 136.5 172.5t166.5 56.5zM383 658q98 0 237 -110
q104 -84 158 -84q43 0 92 44t65.5 70.5t27.5 41.5l116 -59q-63 -116 -137.5 -173.5t-165.5 -57.5t-233 112q-101 79 -160 79q-46 0 -94.5 -42.5t-65.5 -68.5t-28 -42l-115 61q62 116 136.5 172.5t166.5 56.5z" />
    <glyph glyph-name="lessequal" unicode="&#x2264;" horiz-adv-x="1160" 
d="M1080 1301v-143l-834 -332l834 -334v-141l-1000 420v110zM80 251v-133h1000v133h-1000z" />
    <glyph glyph-name="greaterequal" unicode="&#x2265;" horiz-adv-x="1160" 
d="M80 251v-133h1000v133h-1000zM80 351v143l834 332l-834 334v141l1000 -420v-110z" />
    <glyph glyph-name="zero.os" horiz-adv-x="1074" 
d="M865 882q129 -150 129 -379t-131 -378.5t-328.5 -149.5t-326 149.5t-128.5 378.5t128.5 380t326 151t330.5 -152zM332 780q-80 -106 -80 -277t78 -276.5t204 -105.5t205 105.5t79 276.5t-79 278t-205 107t-202 -108z" />
    <glyph glyph-name="one.os" horiz-adv-x="565" 
d="M305 1009h140v-1009h-165v839l-175 -91l-65 120z" />
    <glyph glyph-name="two.os" horiz-adv-x="949" 
d="M456 1042q202 0 301 -90q112 -105 112 -253q0 -285 -477 -553h481v-146h-786v131q613 331 613 571q0 98 -80 152q-60 40 -167 40q-146 0 -286 -71l-83 133q184 86 372 86z" />
    <glyph glyph-name="three.os" horiz-adv-x="1063" 
d="M463 1042q213 0 342 -94q134 -96 134 -264q0 -240 -261 -324q146 -50 224 -149q81 -106 81 -243q0 -193 -147 -292.5t-379 -99.5q-210 0 -377 90l57 153q116 -93 326 -93q152 0 248 68q97 69 97 199.5t-99.5 211.5t-245.5 81h-162v146h162q124 0 215 62q87 59 87 171
t-81 168t-212 56q-161 0 -279 -53l-44 139q156 67 314 67z" />
    <glyph glyph-name="four.os" horiz-adv-x="1177" 
d="M779 1009h143v-869h175v-140h-175v-367h-165v367h-677v114zM757 763l-487 -623h487v623z" />
    <glyph glyph-name="five.os" horiz-adv-x="1157" 
d="M204 1009h797v-137h-645l-51 -518q131 146 321.5 146t320.5 -133.5t130 -333.5q0 -203 -142 -335t-366 -132q-292 0 -489 229l105 124q154 -203 384 -203q147 0 241 88q96 90 96 229q0 141 -88 229q-88 89 -224 89q-206 0 -285 -178l-175 70z" />
    <glyph glyph-name="six.os" horiz-adv-x="1195" 
d="M642 1441q168 0 308 -95q41 -28 95 -82l-99 -131q-70 70 -104 96q-83 60 -200 60q-150 0 -251 -117q-134 -156 -140 -489q148 225 384 225q190 0 334 -127q146 -130 146 -343q0 -209 -140 -340q-133 -123 -346 -123q-238 0 -381 158q-168 188 -168 559q0 375 171 572
q156 177 391 177zM384 664q-95 -93 -95 -223t95.5 -223.5t232 -93.5t231.5 93.5t95 223.5t-95 224t-231.5 94t-232.5 -95z" />
    <glyph glyph-name="seven.os" horiz-adv-x="1128" 
d="M80 1009h968v-111l-619 -1307h-184l622 1278h-787v140z" />
    <glyph glyph-name="eight.os" horiz-adv-x="1179" 
d="M921 1349q131 -92 131 -266q0 -238 -248 -324q137 -48 216 -149.5t79 -244.5q0 -190 -142.5 -290t-368 -100t-367 100t-141.5 290q0 143 79.5 244.5t212.5 149.5q-247 86 -247 324q0 174 130 266t333 92t333 -92zM375 1232q-79 -57 -79 -168.5t82.5 -171.5t209.5 -60
t209.5 60t82.5 171.5t-81 168.5t-211 57t-213 -57zM347 603q-95 -79 -95 -212q0 -131 95 -199t241 -68t241.5 68t95.5 199q0 133 -97 214t-240 81t-241 -83z" />
    <glyph glyph-name="nine.os" horiz-adv-x="1195" 
d="M566 1043q238 0 380 -161q169 -188 169 -559q0 -375 -172 -572q-152 -174 -390 -174q-172 0 -308 92q-41 28 -99 85l102 127q70 -69 105 -95q82 -60 200 -60q149 0 251 117q133 156 139 489q-148 -225 -384 -225q-190 0 -333 127q-146 130 -146 343q0 209 139 339
q137 127 347 127zM345 795q-95 -93 -95 -223t95.5 -223.5t232 -93.5t231.5 93.5t95 223.5t-95 224t-231.5 94t-232.5 -95z" />
    <glyph glyph-name="A.sc" horiz-adv-x="1120" 
d="M644 1064l446 -1064h-176l-104 264h-500l-104 -264h-176l446 1064h168zM560 906l-199 -510h398z" />
    <glyph glyph-name="B.sc" horiz-adv-x="1084" 
d="M674 1064q112 0 192 -79t80 -191q0 -76 -38 -140.5t-102 -97.5q80 -34 129 -105t49 -162q0 -119 -83 -204t-203 -85h-558v1064h534zM608 928h-306v-317h306q70 0 119.5 46.5t49.5 112t-49.5 112t-119.5 46.5zM302 483v-348h327q77 0 132 51t55 124q0 70 -55 121.5
t-132 51.5h-327z" />
    <glyph glyph-name="C.sc" horiz-adv-x="1152" 
d="M926 285l146 -73q-28 -43 -65 -81q-150 -156 -378.5 -156t-378.5 155.5t-150 394t150 395.5t378.5 157t379.5 -158q36 -38 63 -81l-149 -66q-15 22 -34 43q-99 112 -259 112q-163 0 -261 -112t-98 -290t100 -290q99 -112 259 -112t259 112q21 24 38 50z" />
    <glyph glyph-name="D.sc" horiz-adv-x="1189" 
d="M140 1064h417q229 0 380.5 -144.5t151.5 -387.5t-151.5 -387.5t-380.5 -144.5h-417v1064zM302 929v-795h214q172 0 287 109t115 288t-115 288.5t-287 109.5h-214z" />
    <glyph glyph-name="E.sc" horiz-adv-x="973" 
d="M140 1064h733v-135h-573v-310h525v-134h-525v-350h573v-135h-733v1064z" />
    <glyph glyph-name="F.sc" horiz-adv-x="953" 
d="M140 1064h733v-135h-573v-310h525v-134h-525v-485h-160v1064z" />
    <glyph glyph-name="G.sc" horiz-adv-x="1229" 
d="M629 1078q-230 0 -379 -157q-150 -156 -150 -393q0 -238 149 -395q150 -158 380 -158q226 0 365 156q135 153 135 397q0 29 -3 66h-540v-135h386q-12 -143 -102 -237q-92 -96 -241 -96q-164 0 -264.5 110.5t-100.5 288.5q0 180 102 291q100 111 263 111q195 0 294 -179
l147 67q-74 133 -184 197q-111 66 -257 66z" />
    <glyph glyph-name="H.sc" horiz-adv-x="1195" 
d="M140 1064h161v-445h593v445h161v-1064h-161v485h-593v-485h-161v1064z" />
    <glyph glyph-name="I.sc" horiz-adv-x="442" 
d="M140 1064h162v-1064h-162v1064z" />
    <glyph glyph-name="J.sc" horiz-adv-x="768" 
d="M476 1064v-753q-1 -85 -44 -137q-41 -50 -117 -51q-51 0 -90 29t-72 77l-103 -124q46 -62 111.5 -96t153.5 -34q153 0 238 92q85 90 85 229v768h-162z" />
    <glyph glyph-name="K.sc" horiz-adv-x="1005" 
d="M140 1064h160v-466l429 466h205l-451 -478l472 -586h-193l-378 482l-84 -88v-394h-160v1064z" />
    <glyph glyph-name="L.sc" horiz-adv-x="852" 
d="M140 1064h161v-929h501v-135h-662v1064z" />
    <glyph glyph-name="M.sc" horiz-adv-x="1416" 
d="M140 1064h225l345 -856l342 856h224v-1064h-160v840l-343 -840h-129l-343 840v-840h-161v1064z" />
    <glyph glyph-name="N.sc" horiz-adv-x="1180" 
d="M140 1064h179l561 -830v830h160v-1064h-178l-561 832v-832h-161v1064z" />
    <glyph glyph-name="O.sc" horiz-adv-x="1256" 
d="M1008 919q148 -156 148 -394.5t-149.5 -394t-378 -155.5t-378.5 155.5t-150 394t150 395.5t378.5 157t379.5 -158zM270 525q0 -178 100 -290q99 -112 259 -112t259.5 112t99.5 290t-99.5 290t-259.5 112q-163 0 -261 -112t-98 -290z" />
    <glyph glyph-name="P.sc" horiz-adv-x="999" 
d="M140 1064h456q129 0 216 -81t87 -219.5t-87 -219.5t-216 -81h-294v-463h-162v1064zM302 929v-331h247q78 0 130 44.5t52 120.5t-52 121t-130 45h-247z" />
    <glyph glyph-name="Q.sc" 
d="M270 534q0 -174 100 -283q99 -109 258 -109t258.5 109t99.5 283t-99.5 283.5t-258.5 109.5q-162 0 -260 -109.5t-98 -283.5zM628 1077q228 0 379 -155q148 -153 148 -387q0 -233 -149 -384q-8 -8 -18 -17h211v-134h-571v0q-228 0 -378 149q-150 153 -150 387
q0 233 150 387t378 154z" />
    <glyph glyph-name="R.sc" horiz-adv-x="1027" 
d="M302 929v-331h247q78 0 130 44.5t52 120.5t-52 121t-130 45h-247zM673 481l304 -481h-193l-291 463h-191v-463h-162v1064h456q129 0 216 -81t87 -220q0 -135 -86 -211q-57 -51 -140 -71z" />
    <glyph glyph-name="S.sc" horiz-adv-x="1033" 
d="M527 1077q212 0 387 -146l-93 -118q-132 126 -294 126q-103 0 -162 -47q-50 -40 -50 -109q0 -67 63 -106q46 -26 192 -70q166 -49 235 -93q128 -82 128 -227q0 -140 -118 -229q-112 -82 -288 -82q-244 0 -427 165l96 119q146 -146 331 -146q112 0 176 47q65 50 65 126
q0 79 -65 118q-40 24 -190 70q-185 56 -234 86q-132 79 -132 219q0 135 102 215q110 82 278 82z" />
    <glyph glyph-name="T.sc" horiz-adv-x="1019" 
d="M80 1064h859v-135h-350v-929h-160v929h-349v135z" />
    <glyph glyph-name="U.sc" horiz-adv-x="1133" 
d="M130 1064v-664q-1 -200 115 -312q114 -113 319 -114q202 2 320 114q117 112 119 312v664h-161v-665q-2 -127 -79 -202q-75 -75 -200 -75t-200 75q-74 74 -76 202v665h-157z" />
    <glyph glyph-name="V.sc" horiz-adv-x="1120" 
d="M30 1064h176l354 -906l354 906h176l-446 -1064h-168z" />
    <glyph glyph-name="W.sc" horiz-adv-x="1586" 
d="M30 1064h167l259 -866l248 866h178l251 -866l259 866h164l-326 -1064h-182l-254 884l-256 -884h-182z" />
    <glyph glyph-name="X.sc" horiz-adv-x="1089" 
d="M56 1064h198l292 -393l292 393h195l-393 -514l419 -550h-194l-319 428l-318 -428h-198l420 550z" />
    <glyph glyph-name="Y.sc" horiz-adv-x="1072" 
d="M30 1064h186l320 -480l320 480h186l-426 -610v-454h-160v454z" />
    <glyph glyph-name="Z.sc" horiz-adv-x="1030" 
d="M127 1064h791v-121l-613 -799h625v-144h-830v123l610 797h-583v144z" />
    <glyph glyph-name="a.salt" horiz-adv-x="1134" 
d="M542 1033q210 0 336 -105t126 -292v-636h-156v94q-159 -117 -369 -117q-182 0 -280.5 90.5t-98.5 243.5t100.5 245t278.5 92q210 0 369 -118v112q0 118 -86 189.5t-220 71.5q-152 0 -261 -61l-76 121q157 70 337 70zM520 521q-121 0 -187.5 -59t-66.5 -151t66.5 -149.5
t187.5 -57.5q131 0 237.5 65.5t106.5 141.5t-106.5 143t-237.5 67z" />
    <glyph glyph-name="g.salt" horiz-adv-x="1125" 
d="M901 1167q-163 0 -207 -150q-66 18 -134 18q-183 0 -303 -103.5t-120 -261.5q0 -147 108 -251q-110 -58 -110 -162q0 -102 142 -160q-90 -38 -143.5 -92.5t-53.5 -141.5q0 -129 137.5 -215t346 -86t345.5 86q136 86 136 215q0 125 -128 203t-354 98q-166 14 -229.5 40
t-63.5 87q0 48 48 76q108 -61 242 -61q183 0 302.5 102.5t119.5 261.5q0 93 -45.5 171t-125.5 128q21 76 108 76q21 0 48 -8l21 118q-43 12 -87 12zM376 838q71 66 184 66t184 -65.5t71 -169t-71 -168t-184 -64.5t-184 64.5t-71 168t71 168.5zM340 -17q94 48 223.5 48
t221.5 -47.5t92 -115.5t-92 -115.5t-221.5 -47.5t-222.5 47.5t-93 115.5t92 115z" />
    <glyph glyph-name="y.salt" horiz-adv-x="1047" 
d="M30 1009l409 -1009l-167 -411h171l574 1420h-171l-324 -802l-322 802h-170z" />
    <glyph glyph-name="agrave.salt" horiz-adv-x="1134" 
d="M542 1033q210 0 336 -105t126 -292v-636h-156v94q-159 -117 -369 -117q-182 0 -280.5 90.5t-98.5 243.5t100.5 245t278.5 92q210 0 369 -118v112q0 118 -86 189.5t-220 71.5q-152 0 -261 -61l-76 121q157 70 337 70zM520 521q-121 0 -187.5 -59t-66.5 -151t66.5 -149.5
t187.5 -57.5q131 0 237.5 65.5t106.5 141.5t-106.5 143t-237.5 67zM340 1346l173 75l252 -286h-144z" />
    <glyph glyph-name="aacute.salt" horiz-adv-x="1134" 
d="M542 1033q210 0 336 -105t126 -292v-636h-156v94q-159 -117 -369 -117q-182 0 -280.5 90.5t-98.5 243.5t100.5 245t278.5 92q210 0 369 -118v112q0 118 -86 189.5t-220 71.5q-152 0 -261 -61l-76 121q157 70 337 70zM520 521q-121 0 -187.5 -59t-66.5 -151t66.5 -149.5
t187.5 -57.5q131 0 237.5 65.5t106.5 141.5t-106.5 143t-237.5 67zM765 1346l-281 -211h-144l252 286z" />
    <glyph glyph-name="acircumflex.salt" horiz-adv-x="1134" 
d="M542 1033q210 0 336 -105t126 -292v-636h-156v94q-159 -117 -369 -117q-182 0 -280.5 90.5t-98.5 243.5t100.5 245t278.5 92q210 0 369 -118v112q0 118 -86 189.5t-220 71.5q-152 0 -261 -61l-76 121q157 70 337 70zM520 521q-121 0 -187.5 -59t-66.5 -151t66.5 -149.5
t187.5 -57.5q131 0 237.5 65.5t106.5 141.5t-106.5 143t-237.5 67zM483 1420h203l251 -285h-142l-210 158l-210 -158h-143z" />
    <glyph glyph-name="atilde.salt" horiz-adv-x="1134" 
d="M542 1033q210 0 336 -105t126 -292v-636h-156v94q-159 -117 -369 -117q-182 0 -280.5 90.5t-98.5 243.5t100.5 245t278.5 92q210 0 369 -118v112q0 118 -86 189.5t-220 71.5q-152 0 -261 -61l-76 121q157 70 337 70zM520 521q-121 0 -187.5 -59t-66.5 -151t66.5 -149.5
t187.5 -57.5q131 0 237.5 65.5t106.5 141.5t-106.5 143t-237.5 67zM458 1358q66 0 159 -56q60 -36 92 -36q58 0 102 62l110 -71q-45 -60 -97.5 -91t-114.5 -31q-69 0 -159 54q-62 38 -92 38q-58 0 -103 -62l-111 71q47 59 99 91t115 31z" />
    <glyph glyph-name="adieresis.salt" horiz-adv-x="1134" 
d="M542 1033q210 0 336 -105t126 -292v-636h-156v94q-159 -117 -369 -117q-182 0 -280.5 90.5t-98.5 243.5t100.5 245t278.5 92q210 0 369 -118v112q0 118 -86 189.5t-220 71.5q-152 0 -261 -61l-76 121q157 70 337 70zM520 521q-121 0 -187.5 -59t-66.5 -151t66.5 -149.5
t187.5 -57.5q131 0 237.5 65.5t106.5 141.5t-106.5 143t-237.5 67zM743 1345q-45 0 -76 -31q-30 -30 -31 -74q1 -43 31 -74q31 -31 76 -31q43 0 74 30q32 31 32 75q-1 43 -31 73q-32 32 -75 32zM362 1345q-45 0 -76 -31q-30 -30 -31 -74q1 -43 31 -74q31 -31 76 -31
q43 0 74 30q32 31 32 75q-1 43 -31 73q-32 32 -75 32z" />
    <glyph glyph-name="aring.salt" horiz-adv-x="1134" 
d="M542 1033q210 0 336 -105t126 -292v-636h-156v94q-159 -117 -369 -117q-182 0 -280.5 90.5t-98.5 243.5t100.5 245t278.5 92q210 0 369 -118v112q0 118 -86 189.5t-220 71.5q-152 0 -261 -61l-76 121q157 70 337 70zM520 521q-121 0 -187.5 -59t-66.5 -151t66.5 -149.5
t187.5 -57.5q131 0 237.5 65.5t106.5 141.5t-106.5 143t-237.5 67zM594 1486q-48 0 -81.5 -35t-33.5 -82q0 -48 33.5 -81t81.5 -33t81.5 33t33.5 81q0 47 -33.5 82t-81.5 35zM594 1602q47 0 89 -18.5t73.5 -50.5t50 -74t18.5 -90q0 -49 -18.5 -92t-50 -74.5t-73.5 -49.5
t-89 -18q-48 0 -90 18t-73 49.5t-48.5 74.5t-17.5 92q0 48 17.5 90t48.5 74t73 50.5t90 18.5z" />
    <glyph glyph-name="gcircumflex.salt" horiz-adv-x="1125" 
d="M457 1536h203l251 -285h-142l-210 158l-210 -158h-143zM901 1167q-163 0 -207 -150q-66 18 -134 18q-183 0 -303 -103.5t-120 -261.5q0 -147 108 -251q-110 -58 -110 -162q0 -102 142 -160q-90 -38 -143.5 -92.5t-53.5 -141.5q0 -129 137.5 -215t346 -86t345.5 86
q136 86 136 215q0 125 -128 203t-354 98q-166 14 -229.5 40t-63.5 87q0 48 48 76q108 -61 242 -61q183 0 302.5 102.5t119.5 261.5q0 93 -45.5 171t-125.5 128q21 76 108 76q21 0 48 -8l21 118q-43 12 -87 12zM376 838q71 66 184 66t184 -65.5t71 -169t-71 -168t-184 -64.5
t-184 64.5t-71 168t71 168.5zM340 -17q94 48 223.5 48t221.5 -47.5t92 -115.5t-92 -115.5t-221.5 -47.5t-222.5 47.5t-93 115.5t92 115z" />
    <glyph glyph-name="gbreve.salt" horiz-adv-x="1125" 
d="M562 1347q92 0 148 57.5t56 149.5h143q0 -145 -98 -239.5t-249 -94.5t-248.5 94.5t-97.5 239.5h142q0 -92 56.5 -149.5t147.5 -57.5zM901 1167q-163 0 -207 -150q-66 18 -134 18q-183 0 -303 -103.5t-120 -261.5q0 -147 108 -251q-110 -58 -110 -162q0 -102 142 -160
q-90 -38 -143.5 -92.5t-53.5 -141.5q0 -129 137.5 -215t346 -86t345.5 86q136 86 136 215q0 125 -128 203t-354 98q-166 14 -229.5 40t-63.5 87q0 48 48 76q108 -61 242 -61q183 0 302.5 102.5t119.5 261.5q0 93 -45.5 171t-125.5 128q21 76 108 76q21 0 48 -8l21 118
q-43 12 -87 12zM376 838q71 66 184 66t184 -65.5t71 -169t-71 -168t-184 -64.5t-184 64.5t-71 168t71 168.5zM340 -17q94 48 223.5 48t221.5 -47.5t92 -115.5t-92 -115.5t-221.5 -47.5t-222.5 47.5t-93 115.5t92 115z" />
    <glyph glyph-name="gcedilla.salt" horiz-adv-x="1125" 
d="M568 1209q-65 0 -104 45.5t-39 118.5q0 207 197 391l75 -65q-131 -130 -148 -230q6 1 21 1q55 0 94 -37q38 -38 38 -94q0 -53 -39 -91.5t-95 -38.5zM901 1167q-163 0 -207 -150q-66 18 -134 18q-183 0 -303 -103.5t-120 -261.5q0 -147 108 -251q-110 -58 -110 -162
q0 -102 142 -160q-90 -38 -143.5 -92.5t-53.5 -141.5q0 -129 137.5 -215t346 -86t345.5 86q136 86 136 215q0 125 -128 203t-354 98q-166 14 -229.5 40t-63.5 87q0 48 48 76q108 -61 242 -61q183 0 302.5 102.5t119.5 261.5q0 93 -45.5 171t-125.5 128q21 76 108 76
q21 0 48 -8l21 118q-43 12 -87 12zM376 838q71 66 184 66t184 -65.5t71 -169t-71 -168t-184 -64.5t-184 64.5t-71 168t71 168.5zM340 -17q94 48 223.5 48t221.5 -47.5t92 -115.5t-92 -115.5t-221.5 -47.5t-222.5 47.5t-93 115.5t92 115z" />
    <glyph glyph-name="gcaron.salt" horiz-adv-x="1125" 
d="M457 1536h203l251 -285h-142l-210 158l-210 -158h-143zM901 1167q-163 0 -207 -150q-66 18 -134 18q-183 0 -303 -103.5t-120 -261.5q0 -147 108 -251q-110 -58 -110 -162q0 -102 142 -160q-90 -38 -143.5 -92.5t-53.5 -141.5q0 -129 137.5 -215t346 -86t345.5 86
q136 86 136 215q0 125 -128 203t-354 98q-166 14 -229.5 40t-63.5 87q0 48 48 76q108 -61 242 -61q183 0 302.5 102.5t119.5 261.5q0 93 -45.5 171t-125.5 128q21 76 108 76q21 0 48 -8l21 118q-43 12 -87 12zM376 838q71 66 184 66t184 -65.5t71 -169t-71 -168t-184 -64.5
t-184 64.5t-71 168t71 168.5zM340 -17q94 48 223.5 48t221.5 -47.5t92 -115.5t-92 -115.5t-221.5 -47.5t-222.5 47.5t-93 115.5t92 115z" />
    <glyph glyph-name="gacute.salt" horiz-adv-x="1125" 
d="M833 1420l-281 -211h-144l252 286zM901 1167q-163 0 -207 -150q-66 18 -134 18q-183 0 -303 -103.5t-120 -261.5q0 -147 108 -251q-110 -58 -110 -162q0 -102 142 -160q-90 -38 -143.5 -92.5t-53.5 -141.5q0 -129 137.5 -215t346 -86t345.5 86q136 86 136 215
q0 125 -128 203t-354 98q-166 14 -229.5 40t-63.5 87q0 48 48 76q108 -61 242 -61q183 0 302.5 102.5t119.5 261.5q0 93 -45.5 171t-125.5 128q21 76 108 76q21 0 48 -8l21 118q-43 12 -87 12zM376 838q71 66 184 66t184 -65.5t71 -169t-71 -168t-184 -64.5t-184 64.5
t-71 168t71 168.5zM340 -17q94 48 223.5 48t221.5 -47.5t92 -115.5t-92 -115.5t-221.5 -47.5t-222.5 47.5t-93 115.5t92 115z" />
    <glyph glyph-name="gdot.salt" horiz-adv-x="1125" 
d="M559 1481q-45 0 -76 -31q-30 -30 -31 -74q1 -43 31 -74q31 -31 76 -31q43 0 74 30q32 31 32 75q-1 43 -31 73q-32 32 -75 32zM901 1167q-163 0 -207 -150q-66 18 -134 18q-183 0 -303 -103.5t-120 -261.5q0 -147 108 -251q-110 -58 -110 -162q0 -102 142 -160
q-90 -38 -143.5 -92.5t-53.5 -141.5q0 -129 137.5 -215t346 -86t345.5 86q136 86 136 215q0 125 -128 203t-354 98q-166 14 -229.5 40t-63.5 87q0 48 48 76q108 -61 242 -61q183 0 302.5 102.5t119.5 261.5q0 93 -45.5 171t-125.5 128q21 76 108 76q21 0 48 -8l21 118
q-43 12 -87 12zM376 838q71 66 184 66t184 -65.5t71 -169t-71 -168t-184 -64.5t-184 64.5t-71 168t71 168.5zM340 -17q94 48 223.5 48t221.5 -47.5t92 -115.5t-92 -115.5t-221.5 -47.5t-222.5 47.5t-93 115.5t92 115z" />
    <glyph glyph-name="yacute.salt" horiz-adv-x="1047" 
d="M733 1322l-281 -211h-144l252 286zM30 1009l409 -1009l-167 -411h171l574 1420h-171l-324 -802l-322 802h-170z" />
    <glyph glyph-name="ydieresis.salt" horiz-adv-x="1047" 
d="M711 1321q-45 0 -76 -31q-30 -30 -31 -74q1 -43 31 -74q31 -31 76 -31q43 0 74 30q32 31 32 75q-1 43 -31 73q-32 32 -75 32zM330 1321q-45 0 -76 -31q-30 -30 -31 -74q1 -43 31 -74q31 -31 76 -31q43 0 74 30q32 31 32 75q-1 43 -31 73q-32 32 -75 32zM30 1009
l409 -1009l-167 -411h171l574 1420h-171l-324 -802l-322 802h-170z" />
    <glyph glyph-name="ycircumflex.salt" horiz-adv-x="1047" 
d="M419 1396h203l251 -285h-142l-210 158l-210 -158h-143zM30 1009l409 -1009l-167 -411h171l574 1420h-171l-324 -802l-322 802h-170z" />
    <glyph glyph-name="ymacron.salt" horiz-adv-x="1047" 
d="M156 1245v-134h729v134h-729zM30 1009l409 -1009l-167 -411h171l574 1420h-171l-324 -802l-322 802h-170z" />
    <glyph glyph-name="amacron.salt" horiz-adv-x="1134" 
d="M542 1033q210 0 336 -105t126 -292v-636h-156v94q-159 -117 -369 -117q-182 0 -280.5 90.5t-98.5 243.5t100.5 245t278.5 92q210 0 369 -118v112q0 118 -86 189.5t-220 71.5q-152 0 -261 -61l-76 121q157 70 337 70zM520 521q-121 0 -187.5 -59t-66.5 -151t66.5 -149.5
t187.5 -57.5q131 0 237.5 65.5t106.5 141.5t-106.5 143t-237.5 67zM213 1269v-134h729v134h-729z" />
    <glyph glyph-name="abreve.salt" horiz-adv-x="1134" 
d="M542 1033q210 0 336 -105t126 -292v-636h-156v94q-159 -117 -369 -117q-182 0 -280.5 90.5t-98.5 243.5t100.5 245t278.5 92q210 0 369 -118v112q0 118 -86 189.5t-220 71.5q-152 0 -261 -61l-76 121q157 70 337 70zM520 521q-121 0 -187.5 -59t-66.5 -151t66.5 -149.5
t187.5 -57.5q131 0 237.5 65.5t106.5 141.5t-106.5 143t-237.5 67zM565 1261q92 0 148 57.5t56 149.5h143q0 -145 -98 -239.5t-249 -94.5t-248.5 94.5t-97.5 239.5h142q0 -92 56.5 -149.5t147.5 -57.5z" />
    <glyph glyph-name="aogonek.salt" horiz-adv-x="1169" 
d="M520 521q-121 0 -187.5 -59t-66.5 -151t66.5 -149.5t187.5 -57.5q131 0 237.5 65.5t106.5 141.5t-106.5 143t-237.5 67zM848 94q-159 -117 -369 -117q-182 0 -281 91q-98 90 -98 243t101 245q100 92 278 92q210 0 369 -118v112q0 118 -86 190q-86 71 -220 71
q-152 0 -261 -61l-76 121q157 70 337 70q210 0 336 -105t126 -292v-635q-268 -193 -268 -327q0 -46 30 -78q30 -33 79 -33q67 0 116 78l78 -68q-86 -115 -203 -115q-107 0 -164 58q-57 56 -57 147q0 172 242 336l-9 1v94z" />
    <glyph glyph-name="acaron.salt" horiz-adv-x="1134" 
d="M542 1033q210 0 336 -105t126 -292v-636h-156v94q-159 -117 -369 -117q-182 0 -280.5 90.5t-98.5 243.5t100.5 245t278.5 92q210 0 369 -118v112q0 118 -86 189.5t-220 71.5q-152 0 -261 -61l-76 121q157 70 337 70zM520 521q-121 0 -187.5 -59t-66.5 -151t66.5 -149.5
t187.5 -57.5q131 0 237.5 65.5t106.5 141.5t-106.5 143t-237.5 67zM660 1135h-203l-251 285h142l210 -158l210 158h143z" />
    <glyph glyph-name="adblgrave.salt" horiz-adv-x="1134" 
d="M542 1033q210 0 336 -105t126 -292v-636h-156v94q-159 -117 -369 -117q-182 0 -280.5 90.5t-98.5 243.5t100.5 245t278.5 92q210 0 369 -118v112q0 118 -86 189.5t-220 71.5q-152 0 -261 -61l-76 121q157 70 337 70zM520 521q-121 0 -187.5 -59t-66.5 -151t66.5 -149.5
t187.5 -57.5q131 0 237.5 65.5t106.5 141.5t-106.5 143t-237.5 67zM530 1346l173 75l252 -286h-144zM149 1346l173 75l252 -286h-144z" />
    <glyph glyph-name="ainvertedbreve.salt" horiz-adv-x="1134" 
d="M542 1033q210 0 336 -105t126 -292v-636h-156v94q-159 -117 -369 -117q-182 0 -280.5 90.5t-98.5 243.5t100.5 245t278.5 92q210 0 369 -118v112q0 118 -86 189.5t-220 71.5q-152 0 -261 -61l-76 121q157 70 337 70zM520 521q-121 0 -187.5 -59t-66.5 -151t66.5 -149.5
t187.5 -57.5q131 0 237.5 65.5t106.5 141.5t-106.5 143t-237.5 67zM579 1341q-92 0 -148 -57.5t-56 -149.5h-143q0 145 98 239.5t249 94.5t248.5 -94.5t97.5 -239.5h-142q0 92 -56.5 149.5t-147.5 57.5z" />
    <glyph glyph-name="germandbls.salt" horiz-adv-x="1401" 
d="M704 1418q-261 0 -412.5 -146t-151.5 -406v-866h164v870q0 180 109.5 289.5t290.5 109.5h266l-296 -368v-123h114q161 0 251.5 -87t90.5 -228t-96.5 -227.5t-261.5 -86.5h-327v-149h359q221 0 359 130.5t138 332.5q0 196 -127.5 312.5t-322.5 114.5l326 400v128h-473z
" />
    <glyph glyph-name="adotabove.salt" horiz-adv-x="1134" 
d="M563 1368q-45 0 -76 -31q-30 -30 -31 -74q1 -43 31 -74q31 -31 76 -31q43 0 74 30q32 31 32 75q-1 43 -31 73q-32 32 -75 32zM542 1033q210 0 336 -105t126 -292v-636h-156v94q-159 -117 -369 -117q-182 0 -280.5 90.5t-98.5 243.5t100.5 245t278.5 92q210 0 369 -118
v112q0 118 -86 189.5t-220 71.5q-152 0 -261 -61l-76 121q157 70 337 70zM520 521q-121 0 -187.5 -59t-66.5 -151t66.5 -149.5t187.5 -57.5q131 0 237.5 65.5t106.5 141.5t-106.5 143t-237.5 67z" />
    </font>
</defs>
</svg>
