<svg id="individual" xmlns="http://www.w3.org/2000/svg" viewBox="0 0 46 60"><defs><style>.cls-1{fill:#cf152d;}</style></defs><title>individual1</title><path class="cls-1" d="M68,45.39l-9.55-4.78A2.62,2.62,0,0,1,57,38.25V34.87c.23-.28.47-.6.72-.95a22.8,22.8,0,0,0,3-5.8A4,4,0,0,0,63,24.5v-4a4,4,0,0,0-1-2.62V12.56A8.94,8.94,0,0,0,59.91,6C57.85,3.69,54.52,2.5,50,2.5S42.15,3.69,40.09,6A8.94,8.94,0,0,0,38,12.56v5.32a4,4,0,0,0-1,2.62v4a4,4,0,0,0,1.5,3.11A20.91,20.91,0,0,0,42,34.85v3.3a2.64,2.64,0,0,1-1.38,2.32L31.7,45.34A9,9,0,0,0,27,53.26V56.5c0,4.75,15,6,23,6s23-1.25,23-6v-3A9,9,0,0,0,68,45.39ZM71,56.5c0,1.36-7.41,4-21,4s-21-2.64-21-4V53.26a7,7,0,0,1,3.66-6.16l8.92-4.87A4.65,4.65,0,0,0,44,38.15v-4l-.23-.28a18.76,18.76,0,0,1-3.41-7.07l-.09-.39-.34-.22A2,2,0,0,1,39,24.5v-4A2,2,0,0,1,39.67,19l.33-.3V12.37a7,7,0,0,1,1.61-5C43.25,5.46,46.08,4.5,50,4.5s6.73,1,8.39,2.83a7.08,7.08,0,0,1,1.62,5v6.36l.33.3A2,2,0,0,1,61,20.5v4a2,2,0,0,1-1.42,1.9l-.5.15-.16.5a21,21,0,0,1-2.83,5.71c-.3.42-.59.79-.84,1.08l-.25.28v4.13a4.6,4.6,0,0,0,2.57,4.15l9.55,4.78A7,7,0,0,1,71,53.46Z" transform="translate(-27 -2.5)"/></svg>