<svg id="suggestion" xmlns="http://www.w3.org/2000/svg" viewBox="0 0 60.25 60"><defs><style>.cls-1{fill:#cf152d;}</style></defs><title>suggestion</title><g id="flaticon1573548862-svg"><g id="Group_46" data-name="Group 46"><g id="Group_45" data-name="Group 45"><path id="Path_17" data-name="Path 17" class="cls-1" d="M55.6,13.08l1.45-1.75a3.7,3.7,0,0,0-5.67-4.75l-.08.09L46,13.06H43.83a3.46,3.46,0,0,0-2.42,1,2.81,2.81,0,0,0-1.92-.77H36a2.5,2.5,0,0,0-2.5,2.51V28.35A2.52,2.52,0,0,0,36,30.86h3.51a2.81,2.81,0,0,0,1.75-.62,3.44,3.44,0,0,0,2.59,1.19H54.28a6.26,6.26,0,0,0,6.24-6.25V18.41A5.35,5.35,0,0,0,55.6,13.08Zm-15.21,15a.9.9,0,0,1-.91.91H36a.62.62,0,0,1-.62-.62V15.8a.62.62,0,0,1,.62-.62h3.5a.9.9,0,0,1,.91.91Zm18.24-2.87a4.36,4.36,0,0,1-4.36,4.35H43.83A1.55,1.55,0,0,1,42.28,28V16.5A1.56,1.56,0,0,1,43.83,15h2.28a1.66,1.66,0,0,0,1.29-.61l5.36-6.46A1.81,1.81,0,1,1,55.66,10a.36.36,0,0,1-.07.1l-1.72,2.08a1.68,1.68,0,0,0,.25,2.36,1.64,1.64,0,0,0,1.06.38,3.47,3.47,0,0,1,3.45,3.46Z" transform="translate(-19.88 -2.5)"/></g></g><g id="Group_48" data-name="Group 48"><g id="Group_47" data-name="Group 47"><path id="Path_18" data-name="Path 18" class="cls-1" d="M58,2.5H36a16.11,16.11,0,0,0-8.08,30.05v4.51a.89.89,0,0,0,1.77,0V32a.89.89,0,0,0-.47-.78A14.34,14.34,0,0,1,36,4.27H58A14.36,14.36,0,0,1,70.41,25.8a.89.89,0,0,0,1.53.89A16.13,16.13,0,0,0,58,2.5Z" transform="translate(-19.88 -2.5)"/></g></g><g id="Group_50" data-name="Group 50"><g id="Group_49" data-name="Group 49"><path id="Path_19" data-name="Path 19" class="cls-1" d="M79.2,41a.89.89,0,0,0-1.15-.5.9.9,0,0,0-.51,1.11h0a14.4,14.4,0,1,1-1.43-3,.89.89,0,0,0,1.5-.94,16.21,16.21,0,0,0-9-6.88c.39-.34.76-.7,1.11-1.07a.88.88,0,0,0-1.28-1.22,14.3,14.3,0,0,1-2,1.78A16.25,16.25,0,0,0,54.57,33H39.09a.89.89,0,0,0-.81.53L33.47,44.32a2,2,0,0,1-3.8-.81V40.59a.89.89,0,0,0-1.77,0h0v2.92A3.76,3.76,0,0,0,35.09,45l4.57-10.31H52.45A16.23,16.23,0,1,0,79.2,41Z" transform="translate(-19.88 -2.5)"/></g></g><g id="Group_52" data-name="Group 52"><g id="Group_51" data-name="Group 51"><circle id="Ellipse_5" data-name="Ellipse 5" class="cls-1" cx="40.63" cy="37.35" r="1.47"/></g></g><g id="Group_54" data-name="Group 54"><g id="Group_53" data-name="Group 53"><circle id="Ellipse_6" data-name="Ellipse 6" class="cls-1" cx="47.35" cy="37.35" r="1.47"/></g></g><g id="Group_56" data-name="Group 56"><g id="Group_55" data-name="Group 55"><path id="Path_20" data-name="Path 20" class="cls-1" d="M71.78,42.18a.89.89,0,0,0-.88.89h0a7,7,0,0,1-14.06,0,.89.89,0,1,0-1.77,0h0a8.8,8.8,0,0,0,17.6,0A.89.89,0,0,0,71.78,42.18Z" transform="translate(-19.88 -2.5)"/></g></g></g></svg>