<svg id="b-user" xmlns="http://www.w3.org/2000/svg" viewBox="0 0 40.31 59.82"><defs><style>.cls-1{fill:#cf152d;}</style></defs><title>b-user</title><path class="cls-1" d="M69.28,51.06a.88.88,0,0,0-.88.88v8.24a.48.48,0,0,1-.48.48H63.21V43.4a.88.88,0,0,0-1.75,0V60.66H52l2.74-3a1.51,1.51,0,0,0,.38-1.26v0L52.48,40.87l.71-1.06a2,2,0,0,0,1.25.54,1.53,1.53,0,0,0,1.37-.85h0L58.58,34l6.29,2.44a6.08,6.08,0,0,1,3.53,5.52v5.93a.88.88,0,0,0,1.75,0V41.92a7.8,7.8,0,0,0-4.62-7.14h0L55,30.71V28.26a8.26,8.26,0,0,0,3.11-5.41,3.72,3.72,0,0,0,2.61-6.15V13.45a10.86,10.86,0,1,0-21.71,0v3.33a3.5,3.5,0,0,0-.91,2.35A3.74,3.74,0,0,0,39.44,22a3.69,3.69,0,0,0,2.22.9A8.1,8.1,0,0,0,45,28.38v2.33L34.48,34.77h0a7.81,7.81,0,0,0-4.63,7.14V60.18a2.24,2.24,0,0,0,2.24,2.23h8.35a.88.88,0,0,0,0-1.75H38.54V43.4a.88.88,0,0,0-1.75,0V60.66H32.08a.48.48,0,0,1-.48-.48V41.92a6.08,6.08,0,0,1,3.53-5.52L41.42,34l2.76,5.54a1.53,1.53,0,0,0,1.37.85,2,2,0,0,0,1.26-.54l.7,1.06L44.89,56.35v0a1.58,1.58,0,0,0,.38,1.26l2.75,3h-3.5a.88.88,0,1,0,0,1.75h23.4a2.24,2.24,0,0,0,2.24-2.23V51.94A.88.88,0,0,0,69.28,51.06ZM56.94,33.33l-2.58,5.16-3.1-2.2,3.18-3.93Zm-5.18,5.46-.67,1H48.9l-.66-1L50,37.54ZM46.7,31V29.36A9,9,0,0,0,50,30a8.19,8.19,0,0,0,3.28-.68V31L50,35.07ZM59.91,19.13a2,2,0,0,1-.68,1.49,2,2,0,0,1-1,.46V17.17A2,2,0,0,1,59.91,19.13ZM41.59,21.08a2,2,0,0,1-1.69-1.95,2.09,2.09,0,0,1,1.69-1.92Zm0-5.65a4.3,4.3,0,0,0-.84.19V13.45a9.11,9.11,0,1,1,18.21,0v2.11a4.1,4.1,0,0,0-.79-.16c0-.84,0-.68-2.76-3.65a1.55,1.55,0,0,0-2-.24,16.87,16.87,0,0,1-10.21,2.74A1.56,1.56,0,0,0,41.64,15.43Zm1.7,6.34V16a18.75,18.75,0,0,0,10.95-3c1.27,1.36,2,2.08,2.18,2.35v6.36a6.57,6.57,0,0,1-13.13,0Zm2.29,16.72-2.57-5.16,2.49-1,3.18,3.93Zm1,18,2.53-15h1.65l2.53,15L50,60.23Z" transform="translate(-29.84 -2.59)"/></svg>