<svg id="enquiry" xmlns="http://www.w3.org/2000/svg" viewBox="0 0 64.94 60"><defs><style>.cls-1{fill:#cf152d;}</style></defs><title>enquiry</title><g id="Group_58" data-name="Group 58"><g id="Group_57" data-name="Group 57"><path id="Path_21" data-name="Path 21" class="cls-1" d="M61.42,38a1.27,1.27,0,0,0-1.27,1.27h0V48a6.35,6.35,0,0,1-6.34,6.34H40.11a1.27,1.27,0,0,0-1.27,1.27v2.52l-3-3a1.26,1.26,0,0,0-1.16-.76H26.41A6.34,6.34,0,0,1,20.07,48V28.51a6.34,6.34,0,0,1,6.34-6.34H39.22a1.27,1.27,0,1,0,0-2.54H26.41a8.89,8.89,0,0,0-8.88,8.88V48a8.89,8.89,0,0,0,8.88,8.88H34l5.21,5.21a1.27,1.27,0,0,0,2.16-.9V56.92H53.81A8.88,8.88,0,0,0,62.68,48V39.29A1.26,1.26,0,0,0,61.42,38Z" transform="translate(-17.53 -2.5)"/></g></g><g id="Group_60" data-name="Group 60"><g id="Group_59" data-name="Group 59"><path id="Path_22" data-name="Path 22" class="cls-1" d="M64,2.5H60.83a18.44,18.44,0,1,0,0,36.87H64a18.41,18.41,0,0,0,4.67-.6l4.75,4.74a1.27,1.27,0,0,0,2.16-.9V35.27A18.43,18.43,0,0,0,64,2.5Zm9.55,31.14a1.28,1.28,0,0,0-.51,1v4.89L70,36.45a1.29,1.29,0,0,0-1.27-.32,15.41,15.41,0,0,1-4.67.7H60.83A15.9,15.9,0,1,1,60.83,5H64a15.9,15.9,0,0,1,9.55,28.6Z" transform="translate(-17.53 -2.5)"/></g></g><g id="Group_62" data-name="Group 62"><g id="Group_61" data-name="Group 61"><path id="Path_23" data-name="Path 23" class="cls-1" d="M68.14,16.38a5.37,5.37,0,0,0-10.73.38,1.27,1.27,0,0,0,2.54,0,2.84,2.84,0,0,1,2.84-2.84H63a2.83,2.83,0,0,1,.42,5.59,2.39,2.39,0,0,0-1.89,2.35v3.05a1.27,1.27,0,1,0,2.53,0V22A5.34,5.34,0,0,0,68.14,16.38Z" transform="translate(-17.53 -2.5)"/></g></g><g id="Group_64" data-name="Group 64"><g id="Group_63" data-name="Group 63"><path id="Path_24" data-name="Path 24" class="cls-1" d="M63.68,27a1.27,1.27,0,1,0,0,1.79,1.24,1.24,0,0,0,.37-.89A1.26,1.26,0,0,0,63.68,27Z" transform="translate(-17.53 -2.5)"/></g></g><g id="Group_66" data-name="Group 66"><g id="Group_65" data-name="Group 65"><path id="Path_25" data-name="Path 25" class="cls-1" d="M52.41,38.71H25.65a1.27,1.27,0,1,0,0,2.53H52.41a1.27,1.27,0,1,0,0-2.53Z" transform="translate(-17.53 -2.5)"/></g></g><g id="Group_68" data-name="Group 68"><g id="Group_67" data-name="Group 67"><path id="Path_26" data-name="Path 26" class="cls-1" d="M53.31,45.62a1.27,1.27,0,1,0,0,1.79,1.27,1.27,0,0,0,0-1.79Z" transform="translate(-17.53 -2.5)"/></g></g><g id="Group_70" data-name="Group 70"><g id="Group_69" data-name="Group 69"><path id="Path_27" data-name="Path 27" class="cls-1" d="M47.42,45.25H25.65a1.27,1.27,0,1,0,0,2.53H47.42a1.27,1.27,0,1,0,0-2.53Z" transform="translate(-17.53 -2.5)"/></g></g><g id="Group_72" data-name="Group 72"><g id="Group_71" data-name="Group 71"><path id="Path_28" data-name="Path 28" class="cls-1" d="M44.17,32.17H25.65a1.27,1.27,0,1,0,0,2.53H44.17a1.27,1.27,0,0,0,0-2.53Z" transform="translate(-17.53 -2.5)"/></g></g></svg>