<svg id="gov-entity" xmlns="http://www.w3.org/2000/svg" viewBox="0 0 59.93 59.93"><defs><style>.cls-1{fill:#cf152d;}</style></defs><title>gov-entity</title><path class="cls-1" d="M41.55,19.3h1.87V17.54H41.55Zm7.51,0h1.87V17.54H49.06Zm-3.75,0h1.87V17.54H45.31Zm7.5,0h1.87V17.54H52.81Zm3.76,0h1.87V17.54H56.57ZM74.33,57V55.6l-1.46-1.46h-.42V38.07h2.81V32.56H64.94V29.69H63.19v2.87H36.8V25.7a2.65,2.65,0,0,1,2.64-2.64H60.55a2.65,2.65,0,0,1,2.64,2.64v2.11h1.75V25.7a4.4,4.4,0,0,0-3.75-4.35V18.44a4.62,4.62,0,0,0-4.62-4.63H50.88V9h7.51V3.88a1.35,1.35,0,0,0-1.34-1.34H49.13V13.8H43.44a4.62,4.62,0,0,0-4.62,4.62v2.92a4.4,4.4,0,0,0-3.75,4.35v6.86H24.72v5.51h2.82V47.5h1.75V38.06h1.06V54.12H29.29V49.38H27.54v4.74h-.43l-1.45,1.45V57H20v5.5H80V57ZM50.88,4.29h5.74V7.22H50.88ZM40.55,18.42a2.88,2.88,0,0,1,2.87-2.87H56.55a2.88,2.88,0,0,1,2.88,2.87v2.87H40.55Zm32,37.9V57h-4.8v-.64l.42-.42h4Zm-10-2.19h-.42V38.07h5.74V54.13h-.42L66,55.59V57H64V55.6Zm-.72,1.76.42.42v.63h-4.8v-.63l.42-.42Zm-2.51-1.76V38.07h1V54.13Zm10.32,0V38.07H70.7V54.13ZM26.48,36.31v-2h47v2H53.74v1.76h3.81V54.13h-.41l-1.45,1.46V57h-2V49.39a3.69,3.69,0,0,0-7.38,0V57h-2V55.6l-1.47-1.47h-.42V38.07h9.44V36.31ZM51.93,49.39V57H48.06V49.39a1.94,1.94,0,0,1,3.87,0ZM32.54,54.13h-.42V38.07h5.74V54.13h-.43L36,55.59V57H34V55.6Zm5.2,2.18.42-.42h4l.42.42v.63h-4.8Zm1.87-2.18V38.07h1.06V54.13ZM27.42,56.32l.42-.42h4l.42.42V57h-4.8Zm50.79,4.39H21.79v-2H78.21Zm-33.78-17h1.76V40H44.43Zm4.69,0h1.75V40H49.12ZM55.56,40H53.8v3.75h1.76Zm10.32,0H64.12v3.75h1.76Zm0,5.64H64.12v1.87h1.76Zm0,3.75H64.12v1.87h1.76ZM35.86,40H34.11v3.75h1.75Zm0,5.64H34.11v1.87h1.75Zm5.63-15V25H39.73v5.62Zm9.38,0V25H49.12v5.62Zm9.39,0V25H58.5v5.62ZM35.86,49.39H34.11v1.87h1.75Zm10.39-20.7V26.93H44.37v1.76Zm9.37,0V26.93H53.74v1.76Z" transform="translate(-20.04 -2.54)"/></svg>